<?xml version="1.0" encoding="UTF-8" standalone="no"?>
<!-- Created with Inkscape (http://www.inkscape.org/) -->

<svg
   width="210mm"
   height="297mm"
   viewBox="0 0 210 297"
   version="1.1"
   id="svg5"
   inkscape:version="1.2 (dc2aedaf03, 2022-05-15)"
   sodipodi:docname="Bicycle Icon.svg"
   xmlns:inkscape="http://www.inkscape.org/namespaces/inkscape"
   xmlns:sodipodi="http://sodipodi.sourceforge.net/DTD/sodipodi-0.dtd"
   xmlns="http://www.w3.org/2000/svg"
   xmlns:svg="http://www.w3.org/2000/svg">
  <sodipodi:namedview
     id="namedview7"
     pagecolor="#ffffff"
     bordercolor="#999999"
     borderopacity="1"
     inkscape:showpageshadow="0"
     inkscape:pageopacity="0"
     inkscape:pagecheckerboard="0"
     inkscape:deskcolor="#ffffff"
     inkscape:document-units="px"
     showgrid="false"
     showborder="false"
     inkscape:zoom="0.35355339"
     inkscape:cx="779.23167"
     inkscape:cy="403.05086"
     inkscape:window-width="1075"
     inkscape:window-height="991"
     inkscape:window-x="835"
     inkscape:window-y="0"
     inkscape:window-maximized="0"
     inkscape:current-layer="layer1" />
  <defs
     id="defs2" />
  <g
     inkscape:label="Layer 1"
     inkscape:groupmode="layer"
     id="layer1">
    <g
       id="g14227"
       transform="matrix(1.8119455,0,0,1.8119455,-25.679716,-114.76225)">
      <path
         id="path2147"
         style="opacity:1;fill:none;fill-opacity:1;stroke:#000000;stroke-width:1.85208;stroke-linecap:square;stroke-dasharray:none"
         d="M 85.460417,87.3125 A 26.458334,26.458334 0 0 0 59.002083,113.77083 26.458334,26.458334 0 0 0 85.460417,140.22917 26.458334,26.458334 0 0 0 111.91875,113.77083 26.458334,26.458334 0 0 0 85.460417,87.3125 Z m 0,3.96875 A 22.489584,22.489584 0 0 1 107.95,113.77083 22.489584,22.489584 0 0 1 85.460417,136.26042 22.489584,22.489584 0 0 1 62.970833,113.77083 22.489584,22.489584 0 0 1 85.460417,91.28125 Z" />
      <path
         id="path5898"
         style="opacity:1;fill:none;fill-opacity:1;stroke:#000000;stroke-width:1.85208;stroke-linecap:square;stroke-dasharray:none"
         d="M 54.770986,113.40047 A 30.691668,30.691668 0 0 1 85.460419,83.079176 30.691668,30.691668 0 0 1 116.14974,113.39159" />
      <path
         id="path5892"
         style="opacity:1;fill:none;fill-opacity:1;stroke:#000000;stroke-width:1.85208;stroke-linecap:square;stroke-dasharray:none"
         d="m 201.12819,87.312504 a 26.458334,26.458334 0 0 0 -26.45833,26.458326 26.458334,26.458334 0 0 0 26.45833,26.45834 26.458334,26.458334 0 0 0 26.45834,-26.45834 26.458334,26.458334 0 0 0 -26.45834,-26.458326 z m 0,3.968753 a 22.489584,22.489584 0 0 1 22.48959,22.489573 22.489584,22.489584 0 0 1 -22.48959,22.48959 22.489584,22.489584 0 0 1 -22.48958,-22.48959 22.489584,22.489584 0 0 1 22.48958,-22.489573 z" />
      <path
         id="path5901"
         style="opacity:1;fill:none;fill-opacity:1;stroke:#000000;stroke-width:1.85208;stroke-linecap:square;stroke-dasharray:none"
         d="m 170.52908,116.15258 a 30.691668,30.691668 0 0 1 -0.0925,-2.38174 30.691668,30.691668 0 0 1 30.69166,-30.691663" />
      <g
         id="g6714"
         transform="translate(54.636459,44.582292)">
        <path
           style="fill:none;stroke:#000000;stroke-width:1.05833;stroke-linecap:butt;stroke-linejoin:miter;stroke-dasharray:none;stroke-opacity:1"
           d="M 30.823958,46.698958 V 91.678127"
           id="path5967" />
        <path
           style="fill:none;stroke:#000000;stroke-width:1.05833;stroke-linecap:butt;stroke-linejoin:miter;stroke-dasharray:none;stroke-opacity:1"
           d="M 42.06875,49.711991 19.579166,88.665094"
           id="path5969" />
        <path
           style="fill:none;stroke:#000000;stroke-width:1.05833;stroke-linecap:butt;stroke-linejoin:miter;stroke-dasharray:none;stroke-opacity:1"
           d="M 50.300509,57.94375 11.347407,80.433335"
           id="path5971" />
        <path
           style="fill:none;stroke:#000000;stroke-width:1.05833;stroke-linecap:butt;stroke-linejoin:miter;stroke-dasharray:none;stroke-opacity:1"
           d="m 53.313542,69.188542 -44.9791682,10e-7"
           id="path5973" />
        <path
           style="fill:none;stroke:#000000;stroke-width:1.05833;stroke-linecap:butt;stroke-linejoin:miter;stroke-dasharray:none;stroke-opacity:1"
           d="M 50.300509,80.433334 11.347406,57.943751"
           id="path5975" />
        <path
           style="fill:none;stroke:#000000;stroke-width:1.05833;stroke-linecap:butt;stroke-linejoin:miter;stroke-dasharray:none;stroke-opacity:1"
           d="M 42.06875,88.665093 19.579165,49.711992"
           id="path5977" />
        <path
           style="fill:none;stroke:#000000;stroke-width:1.05833;stroke-linecap:butt;stroke-linejoin:miter;stroke-dasharray:none;stroke-opacity:1"
           d="M 42.06875,88.665093 19.579165,49.711992"
           id="path5979" />
      </g>
      <g
         id="g6730"
         transform="translate(170.30424,44.582298)">
        <path
           style="fill:none;stroke:#000000;stroke-width:1.05833;stroke-linecap:butt;stroke-linejoin:miter;stroke-dasharray:none;stroke-opacity:1"
           d="M 30.823958,46.698958 V 91.678127"
           id="path6716" />
        <path
           style="fill:none;stroke:#000000;stroke-width:1.05833;stroke-linecap:butt;stroke-linejoin:miter;stroke-dasharray:none;stroke-opacity:1"
           d="M 42.06875,49.711991 19.579166,88.665094"
           id="path6718" />
        <path
           style="fill:none;stroke:#000000;stroke-width:1.05833;stroke-linecap:butt;stroke-linejoin:miter;stroke-dasharray:none;stroke-opacity:1"
           d="M 50.300509,57.94375 11.347407,80.433335"
           id="path6720" />
        <path
           style="fill:none;stroke:#000000;stroke-width:1.05833;stroke-linecap:butt;stroke-linejoin:miter;stroke-dasharray:none;stroke-opacity:1"
           d="m 53.313542,69.188542 -44.9791682,10e-7"
           id="path6722" />
        <path
           style="fill:none;stroke:#000000;stroke-width:1.05833;stroke-linecap:butt;stroke-linejoin:miter;stroke-dasharray:none;stroke-opacity:1"
           d="M 50.300509,80.433334 11.347406,57.943751"
           id="path6724" />
        <path
           style="fill:none;stroke:#000000;stroke-width:1.05833;stroke-linecap:butt;stroke-linejoin:miter;stroke-dasharray:none;stroke-opacity:1"
           d="M 42.06875,88.665093 19.579165,49.711992"
           id="path6726" />
        <path
           style="fill:none;stroke:#000000;stroke-width:1.05833;stroke-linecap:butt;stroke-linejoin:miter;stroke-dasharray:none;stroke-opacity:1"
           d="M 42.06875,88.665093 19.579165,49.711992"
           id="path6728" />
      </g>
      <path
         id="rect8242"
         style="opacity:1;fill:none;stroke:#000000;stroke-width:1.85208;stroke-linecap:square"
         d="M 163.85941,85.391107 149.81892,113.77084 H 85.460419 L 103.04675,78.223986 v 0 h 51.40009" />
      <ellipse
         style="opacity:1;fill:#ffffff;fill-opacity:1;stroke:#000000;stroke-width:1.85208;stroke-linecap:square;stroke-dasharray:none"
         id="path6734"
         cx="85.460419"
         cy="113.77084"
         rx="4.2947273"
         ry="4.0257463" />
      <path
         style="fill:none;stroke:#000000;stroke-width:1.85208;stroke-linecap:round;stroke-linejoin:round;stroke-dasharray:none;stroke-opacity:1"
         d="M 94.050914,71.304917 149.81892,113.77084"
         id="path8341" />
      <path
         style="fill:none;stroke:#000000;stroke-width:1.85208;stroke-linecap:round;stroke-linejoin:round;stroke-dasharray:none;stroke-opacity:1"
         d="M 145.36019,71.304917 201.1282,113.77084"
         id="path8343" />
      <ellipse
         style="opacity:1;fill:#ffffff;fill-opacity:1;stroke:#000000;stroke-width:1.85208;stroke-linecap:square;stroke-dasharray:none"
         id="ellipse8188"
         cx="201.12822"
         cy="113.77085"
         rx="4.2947273"
         ry="4.0257463" />
      <path
         style="fill:none;stroke:#000000;stroke-width:1.85208;stroke-linecap:round;stroke-linejoin:round;stroke-dasharray:none;stroke-opacity:1"
         d="M 89.944201,71.304916 H 107.02396"
         id="path11254" />
      <path
         style="fill:none;stroke:#000000;stroke-width:1.85208;stroke-linecap:round;stroke-linejoin:round;stroke-dasharray:none;stroke-opacity:1"
         d="m 145.36019,71.304916 19.73987,-0.02413 c 3.53429,0 4.11137,5.986839 0,5.986839"
         id="path11256"
         sodipodi:nodetypes="ccc" />
      <g
         id="g14182"
         transform="matrix(1,0,0,-1,4.5996094e-6,230.37694)">
        <path
           style="fill:none;stroke:#000000;stroke-width:1.85208;stroke-linecap:round;stroke-linejoin:round;stroke-dasharray:none;stroke-opacity:1"
           d="m 150.74496,114.69687 v 15.14267"
           id="path14178" />
        <path
           style="fill:none;stroke:#000000;stroke-width:1.85208;stroke-linecap:round;stroke-linejoin:round;stroke-dasharray:none;stroke-opacity:1"
           d="m 153.76747,129.83954 h -6.25482"
           id="path14180"
           sodipodi:nodetypes="cc" />
      </g>
      <ellipse
         style="opacity:1;fill:#ffffff;fill-opacity:1;stroke:#000000;stroke-width:1.85208;stroke-linecap:square;stroke-dasharray:none"
         id="ellipse11984"
         cx="150.74496"
         cy="114.69688"
         rx="6.9963155"
         ry="6.5881448" />
      <g
         id="g14170">
        <path
           style="fill:none;stroke:#000000;stroke-width:1.85208;stroke-linecap:round;stroke-linejoin:round;stroke-dasharray:none;stroke-opacity:1"
           d="m 150.74496,114.69687 v 15.14267"
           id="path12712" />
        <path
           style="fill:none;stroke:#000000;stroke-width:1.85208;stroke-linecap:round;stroke-linejoin:round;stroke-dasharray:none;stroke-opacity:1"
           d="m 153.76747,129.83954 h -6.25482"
           id="path13440"
           sodipodi:nodetypes="cc" />
      </g>
      <path
         style="fill:none;stroke:#000000;stroke-width:1.85208;stroke-linecap:round;stroke-linejoin:round;stroke-dasharray:none;stroke-opacity:1"
         d="M 32.553428,140.22917 H 114.87244"
         id="path14184" />
      <path
         style="fill:none;stroke:#000000;stroke-width:1.85208;stroke-linecap:round;stroke-linejoin:round;stroke-dasharray:none;stroke-opacity:1"
         d="m 174.66986,140.22917 h 51.62735"
         id="path14186"
         sodipodi:nodetypes="cc" />
      <path
         style="fill:none;stroke:#000000;stroke-width:1.85208;stroke-linecap:round;stroke-linejoin:round;stroke-dasharray:none;stroke-opacity:1"
         d="m 151.671,140.41626 14.82879,-0.18709"
         id="path14188"
         sodipodi:nodetypes="cc" />
    </g>
  </g>
</svg>
