<?xml version="1.0" encoding="UTF-8" standalone="no"?>
<!-- Created with Inkscape (http://www.inkscape.org/) -->

<svg
   width="210mm"
   height="297mm"
   viewBox="0 0 210 297"
   version="1.1"
   id="svg5"
   sodipodi:docname="Circle Infographic.svg"
   xml:space="preserve"
   inkscape:version="1.2 (dc2aedaf03, 2022-05-15)"
   xmlns:inkscape="http://www.inkscape.org/namespaces/inkscape"
   xmlns:sodipodi="http://sodipodi.sourceforge.net/DTD/sodipodi-0.dtd"
   xmlns:xlink="http://www.w3.org/1999/xlink"
   xmlns="http://www.w3.org/2000/svg"
   xmlns:svg="http://www.w3.org/2000/svg"><sodipodi:namedview
     id="namedview7"
     pagecolor="#ffffff"
     bordercolor="#999999"
     borderopacity="1"
     inkscape:showpageshadow="0"
     inkscape:pageopacity="0"
     inkscape:pagecheckerboard="0"
     inkscape:deskcolor="#ffffff"
     inkscape:document-units="px"
     showgrid="false"
     showborder="false"
     showguides="false"
     inkscape:zoom="0.90509668"
     inkscape:cx="411.00582"
     inkscape:cy="566.23785"
     inkscape:window-width="1092"
     inkscape:window-height="991"
     inkscape:window-x="818"
     inkscape:window-y="0"
     inkscape:window-maximized="0"
     inkscape:current-layer="layer1" /><defs
     id="defs2"><linearGradient
       inkscape:collect="always"
       id="linearGradient3409"><stop
         style="stop-color:#cccccc;stop-opacity:1;"
         offset="0"
         id="stop3405" /><stop
         style="stop-color:#ffffff;stop-opacity:1;"
         offset="0.65481639"
         id="stop5719" /><stop
         style="stop-color:#d2d2d2;stop-opacity:1;"
         offset="1"
         id="stop3407" /></linearGradient><radialGradient
       inkscape:collect="always"
       xlink:href="#linearGradient3409"
       id="radialGradient3411"
       cx="97.262402"
       cy="139.71933"
       fx="97.262402"
       fy="139.71933"
       r="140.02417"
       gradientTransform="matrix(1,0,0,0.72025055,0,39.086405)"
       gradientUnits="userSpaceOnUse" /><clipPath
       clipPathUnits="userSpaceOnUse"
       id="clipPath13850"><rect
         style="opacity:1;fill:url(#radialGradient13854);fill-opacity:1;stroke-width:3.175;stroke-linecap:square"
         id="rect13852"
         width="280.04834"
         height="201.70497"
         x="-42.761768"
         y="38.866844" /></clipPath><radialGradient
       inkscape:collect="always"
       xlink:href="#linearGradient3409"
       id="radialGradient13854"
       gradientUnits="userSpaceOnUse"
       gradientTransform="matrix(0.99999999,0,0,0.72025055,0,39.086404)"
       cx="97.262402"
       cy="139.71933"
       fx="97.262402"
       fy="139.71933"
       r="140.02417" /><clipPath
       id="clipPath20"
       clipPathUnits="userSpaceOnUse"><path
         inkscape:connector-curvature="0"
         id="path18"
         d="m 0,10.012 h 1366.9 v 1110.9 H 0 z" /></clipPath><clipPath
       clipPathUnits="userSpaceOnUse"
       id="clipPath20-2"><path
         d="M 0,1567.7 V 0 h 6196 v 1567.7 z"
         id="path18-8"
         inkscape:connector-curvature="0" /></clipPath><filter
       id="e"
       color-interpolation-filters="sRGB"><feGaussianBlur
         id="feGaussianBlur4016"
         stdDeviation="0.5" /></filter><linearGradient
       x1="100"
       y1="-3.5999999"
       x2="100"
       gradientUnits="userSpaceOnUse"
       y2="203.60001"
       id="d"><stop
         id="stop4011"
         offset="0"
         stop-color="#00ffbf" /><stop
         id="stop4013"
         offset="1"
         stop-color="#444" /></linearGradient><linearGradient
       x1="100"
       x2="100"
       gradientUnits="userSpaceOnUse"
       xlink:href="#a"
       y2="200"
       id="b" /><linearGradient
       x1="100"
       y1="-3.5999999"
       x2="100"
       gradientUnits="userSpaceOnUse"
       y2="203.60001"
       id="c"><stop
         id="stop4005"
         offset="0"
         stop-color="#00ffbf" /><stop
         id="stop4007"
         offset="1"
         stop-color="#3d4d48" /></linearGradient><linearGradient
       x1="100"
       x2="100"
       gradientUnits="userSpaceOnUse"
       y2="200"
       id="a"
       y1="0"
       spreadMethod="pad"><stop
         id="stop4000"
         offset="0"
         stop-color="#00D59F" /><stop
         id="stop4002"
         offset="1"
         stop-color="#00AA80" /></linearGradient></defs><g
     inkscape:label="Layer 1"
     inkscape:groupmode="layer"
     id="layer1"><rect
       style="opacity:1;fill:url(#radialGradient3411);stroke-width:3.175;stroke-linecap:square;fill-opacity:1"
       id="rect3380"
       width="280.04834"
       height="201.70497"
       x="-42.761768"
       y="38.866844" /><g
       id="g10543"
       style="opacity:0.15471698"
       clip-path="url(#clipPath13850)"><g
         style="opacity:1;fill:#000000;stroke-width:3.175;stroke-linecap:square"
         id="g10540"><path
           d="M 99.55 77.3219 L 107.487 93.8816 L 673.173 659.567 L 665.235 643.007 Z"
           id="path10478" /><path
           d="M 107.487 93.8816 L 99.55 110.441 L 665.235 676.126 L 673.173 659.567 Z"
           id="path10480" /><path
           d="M 99.55 110.441 C 106.625 110.983 113.171 114.056 118.073 118.958 L 683.758 684.643 C 678.856 679.741 672.31 676.669 665.235 676.126 Z"
           id="path10482" /><path
           d="M 118.073 118.958 C 119.854 120.739 121.419 122.763 122.712 124.994 L 688.398 690.68 C 687.104 688.448 685.54 686.425 683.758 684.643 Z"
           id="path10484" /><path
           d="M 122.712 124.994 C 127.535 133.382 127.918 143.606 123.735 152.33 L 689.421 718.016 C 693.603 709.291 693.221 699.067 688.398 690.68 Z"
           id="path10486" /><path
           d="M 123.735 152.33 L 134.107 167.484 L 699.792 733.17 L 689.421 718.016 Z"
           id="path10488" /><path
           d="M 134.107 167.484 L 152.417 168.889 L 718.102 734.575 L 699.792 733.17 Z"
           id="path10490" /><path
           d="M 152.417 168.889 C 162.485 149.905 162.083 127.077 151.354 108.458 L 717.039 674.143 C 727.769 692.762 728.17 715.59 718.102 734.575 Z"
           id="path10492" /><path
           d="M 151.354 108.458 C 148.596 103.69 145.259 99.3712 141.46 95.5718 L 707.145 661.257 C 710.945 665.057 714.281 669.375 717.039 674.143 Z"
           id="path10494" /><path
           d="M 141.46 95.5718 C 130.437 84.5489 115.521 77.8967 99.55 77.3219 L 665.235 643.007 C 681.206 643.582 696.122 650.234 707.145 661.257 Z"
           id="path10496" /><path
           d="M 99.55 77.3219 L 99.55 77.3219 L 665.235 643.007 L 665.235 643.007 Z"
           id="path10498" /><path
           d="M 91.6125 77.5245 C 82.6098 78.3358 73.8907 81.0918 66.0575 85.6025 L 631.743 651.288 C 639.576 646.777 648.295 644.021 657.298 643.21 Z"
           id="path10500" /><path
           d="M 66.0575 85.6025 C 37.5296 102.076 26.7066 137.879 41.3313 167.397 L 607.017 733.082 C 592.392 703.564 603.215 667.762 631.743 651.288 Z"
           id="path10502" /><path
           d="M 41.3313 167.397 L 51.7457 152.219 L 617.431 717.904 L 607.017 733.082 Z"
           id="path10504" /><path
           d="M 51.7457 152.219 L 70.0975 150.789 L 635.783 716.474 L 617.431 717.904 Z"
           id="path10506" /><path
           d="M 70.0975 150.789 C 64.5412 137.196 69.8782 121.589 82.5939 114.245 L 648.279 679.93 C 635.564 687.274 630.227 702.882 635.783 716.474 Z"
           id="path10508" /><path
           d="M 82.5939 114.245 C 85.3943 112.633 88.4413 111.493 91.6125 110.873 L 657.298 676.559 C 654.127 677.179 651.08 678.318 648.279 679.93 Z"
           id="path10510" /><path
           d="M 91.6125 110.873 L 99.55 94.1989 L 665.235 659.884 L 657.298 676.559 Z"
           id="path10512" /><path
           d="M 99.55 94.1989 L 91.6125 77.5245 L 657.298 643.21 L 665.235 659.884 Z"
           id="path10514" /><path
           d="M 91.6125 77.5245 L 91.6125 77.5245 L 657.298 643.21 L 657.298 643.21 Z"
           id="path10516" /><path
           d="M 74.0885 157.65 L 55.733 159.082 L 621.418 724.768 L 639.774 723.336 Z"
           id="path10518" /><path
           d="M 55.733 159.082 L 45.3151 174.263 L 611 739.948 L 621.418 724.768 Z"
           id="path10520" /><path
           d="M 45.3151 174.263 C 47.6545 177.778 50.2923 180.983 53.1738 183.864 L 618.859 749.55 C 615.978 746.668 613.34 743.463 611 739.948 Z"
           id="path10522" /><path
           d="M 53.1738 183.864 C 72.7682 203.459 103.627 208.103 128.499 193.755 L 694.185 759.441 C 669.313 773.789 638.454 769.144 618.859 749.55 Z"
           id="path10524" /><path
           d="M 128.499 193.755 C 136.322 189.227 143.069 183.054 148.273 175.663 L 713.958 741.348 C 708.754 748.739 702.008 754.912 694.185 759.441 Z"
           id="path10526" /><path
           d="M 148.273 175.663 L 129.863 174.2 L 695.549 739.885 L 713.958 741.348 Z"
           id="path10528" /><path
           d="M 129.863 174.2 L 119.392 158.988 L 685.077 724.674 L 695.549 739.885 Z"
           id="path10530" /><path
           d="M 119.392 158.988 C 117.269 161.425 114.759 163.494 111.963 165.113 L 677.648 730.798 C 680.445 729.179 682.955 727.11 685.077 724.674 Z"
           id="path10532" /><path
           d="M 111.963 165.113 C 100.337 171.809 85.8246 169.72 76.5531 160.449 L 642.239 726.134 C 651.51 735.405 666.023 737.494 677.648 730.798 Z"
           id="path10534" /><path
           d="M 76.5531 160.449 C 75.6832 159.579 74.8594 158.645 74.0885 157.65 L 639.774 723.336 C 640.545 724.331 641.369 725.264 642.239 726.134 Z"
           id="path10536" /><path
           d="M 74.0885 157.65 L 74.0885 157.65 L 639.774 723.336 L 639.774 723.336 Z"
           id="path10538" /></g><path
         id="path10083"
         style="opacity:1;fill:#000000;stroke-width:3.175;stroke-linecap:square"
         d="M 99.549996 77.321896 L 107.4875 93.881608 L 99.549996 110.4408 C 109.19666 111.18073 117.86023 116.62413 122.71241 124.99444 C 127.53517 133.38172 127.91761 143.60602 123.73508 152.33024 L 134.10706 167.48435 L 152.41654 168.88943 C 162.48479 149.90477 162.08333 127.07705 151.35407 108.45798 C 140.59414 89.856629 121.0253 78.09486 99.549996 77.321896 z M 91.612496 77.524467 C 82.609833 78.33578 73.8907 81.091821 66.057467 85.602527 C 37.529575 102.07616 26.706583 137.87859 41.331327 167.39702 L 51.745679 152.21862 L 70.09753 150.78873 C 64.541243 137.19623 69.878209 121.58902 82.593925 114.24471 C 85.39426 112.63255 88.441303 111.49337 91.612496 110.87334 L 99.549996 94.198902 L 91.612496 77.524467 z M 74.088501 157.65033 L 55.733032 159.08228 L 45.315064 174.26275 C 63.562767 201.6819 99.969795 210.21308 128.49913 193.7551 C 136.32216 189.22669 143.06865 183.05354 148.2726 175.66266 L 129.86339 174.1997 L 119.39168 158.98823 C 117.26912 161.42455 114.75908 163.49396 111.96268 165.11292 C 99.246522 172.43681 83.075784 169.2507 74.088501 157.65033 z " /></g><path
       style="opacity:1;fill:#ffffff;stroke-width:3.175;stroke-linecap:square"
       d="m 123.73506,152.3304 10.37195,15.1537 18.30945,1.40556 c 10.06826,-18.98468 9.66699,-41.81263 -1.06228,-60.43172 C 140.59424,89.856571 121.02526,78.095096 99.549933,77.322131 l 7.937517,16.55923 -7.937482,16.559229 c 9.646672,0.73993 18.310052,6.1835 23.162232,14.55382 4.82277,8.38729 5.20539,18.61176 1.02286,27.33599 z"
       id="path7177" /><path
       style="opacity:1;fill:#34344c;stroke-width:3.175;stroke-linecap:square;fill-opacity:1"
       d="m 45.314851,174.2625 c 18.247722,27.41918 54.654722,35.95036 83.184089,19.49236 7.82303,-4.52841 14.56958,-10.70136 19.77354,-18.09224 l -18.40922,-1.46311 -10.47174,-15.21128 c -2.12256,2.43632 -4.63263,4.50567 -7.42904,6.12463 -12.716166,7.3239 -28.886779,4.1376 -37.874071,-7.46279 l -18.355532,1.43214 z"
       id="path7175" /><path
       style="opacity:1;fill:#f0390c;stroke-width:3.175;stroke-linecap:square;fill-opacity:1"
       d="m 41.331335,167.39695 10.414225,-15.17809 18.351725,-1.42994 c -5.556293,-13.59251 -0.219278,-29.1999 12.496451,-36.54422 2.800338,-1.61216 5.847415,-2.7514 9.018611,-3.37143 L 99.549865,94.198852 91.612378,77.524443 c -9.002672,0.811314 -17.721862,3.567555 -25.555103,8.078266 -28.52792,16.473651 -39.350699,52.275781 -24.72594,81.794241 z"
       id="path1517" /><text
       xml:space="preserve"
       style="font-style:normal;font-variant:normal;font-weight:bold;font-stretch:normal;font-size:7.33189px;line-height:1.25;font-family:sans-serif;-inkscape-font-specification:'sans-serif, Bold';font-variant-ligatures:normal;font-variant-caps:normal;font-variant-numeric:normal;font-variant-east-asian:normal;fill:#ffffff;fill-opacity:1;stroke:none;stroke-width:0.264583"
       x="45.075306"
       y="146.76653"
       id="text13910"><tspan
         sodipodi:role="line"
         id="tspan13908"
         style="font-style:normal;font-variant:normal;font-weight:bold;font-stretch:normal;font-size:7.33189px;font-family:sans-serif;-inkscape-font-specification:'sans-serif, Bold';font-variant-ligatures:normal;font-variant-caps:normal;font-variant-numeric:normal;font-variant-east-asian:normal;fill:#ffffff;stroke-width:0.264583"
         x="45.075306"
         y="146.76653">01</tspan></text><text
       xml:space="preserve"
       style="font-style:normal;font-variant:normal;font-weight:bold;font-stretch:normal;font-size:7.33189px;line-height:1.25;font-family:sans-serif;-inkscape-font-specification:'sans-serif, Bold';font-variant-ligatures:normal;font-variant-caps:normal;font-variant-numeric:normal;font-variant-east-asian:normal;fill:#34344c;fill-opacity:1;stroke:none;stroke-width:0.264583"
       x="109.98091"
       y="97.570564"
       id="text13964"><tspan
         sodipodi:role="line"
         id="tspan13962"
         style="font-style:normal;font-variant:normal;font-weight:bold;font-stretch:normal;font-size:7.33189px;font-family:sans-serif;-inkscape-font-specification:'sans-serif, Bold';font-variant-ligatures:normal;font-variant-caps:normal;font-variant-numeric:normal;font-variant-east-asian:normal;fill:#34344c;fill-opacity:1;stroke-width:0.264583"
         x="109.98091"
         y="97.570564">02</tspan></text><text
       xml:space="preserve"
       style="font-style:normal;font-variant:normal;font-weight:bold;font-stretch:normal;font-size:7.33189px;line-height:1.25;font-family:sans-serif;-inkscape-font-specification:'sans-serif, Bold';font-variant-ligatures:normal;font-variant-caps:normal;font-variant-numeric:normal;font-variant-east-asian:normal;fill:#ffffff;fill-opacity:1;stroke:none;stroke-width:0.264583"
       x="119.90279"
       y="182.31992"
       id="text14451"><tspan
         sodipodi:role="line"
         id="tspan14449"
         style="font-style:normal;font-variant:normal;font-weight:bold;font-stretch:normal;font-size:7.33189px;font-family:sans-serif;-inkscape-font-specification:'sans-serif, Bold';font-variant-ligatures:normal;font-variant-caps:normal;font-variant-numeric:normal;font-variant-east-asian:normal;fill:#ffffff;fill-opacity:1;stroke-width:0.264583"
         x="119.90279"
         y="182.31992">03</tspan></text><path
       style="fill:#ffffff;fill-opacity:1;stroke-width:0.264583"
       d="m 60.91832,162.78853 c -2.439445,0 -4.416678,1.97725 -4.416678,4.41669 0,3.28421 3.531936,6.89421 4.416678,6.89421 0.88475,0 4.416686,-3.60992 4.416686,-6.89421 0,-2.43944 -1.977241,-4.41669 -4.416686,-4.41669 z m 0,1.75182 c 1.480107,0 2.680052,1.19995 2.680052,2.68005 8e-6,1.48011 -1.199937,2.68006 -2.680052,2.68006 -1.480099,0 -2.680052,-1.19995 -2.680052,-2.68006 0,-0.58672 0.18995,-1.12818 0.509693,-1.56955 0.03428,0.56682 0.503056,1.01599 1.078432,1.01599 0.597833,0 1.083495,-0.48573 1.083495,-1.08349 0,-0.42698 -0.248331,-0.79427 -0.60757,-0.97043 0.198087,-0.0467 0.403688,-0.0726 0.616002,-0.0726 z"
       id="path3884"
       inkscape:connector-curvature="0" /><path
       style="fill:#ffffff;fill-opacity:1;stroke:none;stroke-width:0.264583"
       d="m 88.300698,89.73682 c -2.761338,0 -5.000764,2.239429 -5.000764,5.000766 0,2.052998 1.238568,3.81477 3.008212,4.58468 -0.02756,-0.383506 -0.03243,-0.839321 0.04911,-1.188812 0.09598,-0.413638 0.620249,-2.636064 0.620249,-2.636064 0,0 -0.160231,-0.318708 -0.160231,-0.788231 0,-0.737642 0.429491,-1.287017 0.961387,-1.287017 0.452438,0 0.669352,0.338987 0.669352,0.74688 0,0.453964 -0.289295,1.135246 -0.439344,1.765129 -0.124881,0.528856 0.264948,0.958799 0.78565,0.958799 0.943006,0 1.666922,-0.994694 1.666922,-2.429314 0,-1.269573 -0.91149,-2.155363 -2.214809,-2.155363 -1.50824,0 -2.393131,1.13092 -2.393131,2.30009 0,0.45547 0.174798,0.944817 0.392827,1.209489 0.04375,0.05296 0.05194,0.09889 0.03876,0.152475 -0.03996,0.167899 -0.129572,0.528262 -0.14731,0.60216 -0.02286,0.09689 -0.07749,0.116708 -0.178321,0.06979 -0.662428,-0.308107 -1.075099,-1.274805 -1.075099,-2.051988 0,-1.673844 1.213279,-3.209796 3.501825,-3.209796 1.839661,0 3.269233,1.310388 3.269233,3.062481 0,1.826777 -1.153315,3.29766 -2.752359,3.29766 -0.537346,0 -1.040856,-0.280103 -1.214655,-0.609908 0,0 -0.264629,1.013306 -0.328215,1.261169 -0.09383,0.359762 -0.312331,0.789676 -0.506537,1.129376 0.458413,0.138502 0.943651,0.214507 1.44725,0.214507 2.761337,0 5.000762,-2.236844 5.000762,-4.998182 0,-2.761337 -2.239425,-5.000766 -5.000762,-5.000766 z"
       id="path4173"
       inkscape:connector-curvature="0" /><path
       inkscape:connector-curvature="0"
       id="path14-2"
       style="fill:#34344c;fill-opacity:1;fill-rule:nonzero;stroke:none;stroke-width:0.264583"
       d="m 146.90513,160.00102 v -1.47763 h -1.05546 v 1.47763 h -1.51985 v 1.05545 h 1.51985 v 1.51985 h 1.05546 v -1.51985 h 1.47762 v -1.05545 z m -7.68369,-0.0844 v 1.68872 c 0,0 1.63823,-0.002 2.30528,-0.002 -0.36121,1.09475 -0.92288,1.69091 -2.30528,1.69091 -1.39898,0 -2.49086,-1.13409 -2.49086,-2.53307 0,-1.39898 1.09188,-2.53308 2.49086,-2.53308 0.73968,0 1.21736,0.25998 1.65555,0.62233 0.35075,-0.35075 0.32146,-0.40073 1.2138,-1.24344 -0.75752,-0.68951 -1.76431,-1.10983 -2.86935,-1.10983 -2.35495,0 -4.264,1.90906 -4.264,4.26402 0,2.35492 1.90905,4.26401 4.264,4.26401 3.52002,0 4.38038,-3.06502 4.09515,-5.10837 -0.83331,0 -4.09515,0 -4.09515,0" /><text
       xml:space="preserve"
       style="font-style:normal;font-variant:normal;font-weight:normal;font-stretch:normal;font-size:3.15169px;line-height:1.25;font-family:sans-serif;-inkscape-font-specification:'sans-serif, Normal';font-variant-ligatures:normal;font-variant-caps:normal;font-variant-numeric:normal;font-variant-east-asian:normal;fill:#ffffff;fill-opacity:1;stroke:none;stroke-width:0.264583"
       x="46.47887"
       y="109.06113"
       id="text14874"><tspan
         sodipodi:role="line"
         id="tspan14872"
         style="font-style:normal;font-variant:normal;font-weight:normal;font-stretch:normal;font-size:3.15169px;font-family:sans-serif;-inkscape-font-specification:'sans-serif, Normal';font-variant-ligatures:normal;font-variant-caps:normal;font-variant-numeric:normal;font-variant-east-asian:normal;fill:#ffffff;stroke-width:0.264583"
         x="46.47887"
         y="109.06113">this is some text</tspan><tspan
         sodipodi:role="line"
         style="font-style:normal;font-variant:normal;font-weight:normal;font-stretch:normal;font-size:3.15169px;font-family:sans-serif;-inkscape-font-specification:'sans-serif, Normal';font-variant-ligatures:normal;font-variant-caps:normal;font-variant-numeric:normal;font-variant-east-asian:normal;fill:#ffffff;stroke-width:0.264583"
         x="46.47887"
         y="113.00075"
         id="tspan14876">this is some text</tspan><tspan
         sodipodi:role="line"
         style="font-style:normal;font-variant:normal;font-weight:normal;font-stretch:normal;font-size:3.15169px;font-family:sans-serif;-inkscape-font-specification:'sans-serif, Normal';font-variant-ligatures:normal;font-variant-caps:normal;font-variant-numeric:normal;font-variant-east-asian:normal;fill:#ffffff;stroke-width:0.264583"
         x="46.47887"
         y="116.94036"
         id="tspan14878">this is some text</tspan><tspan
         sodipodi:role="line"
         style="font-style:normal;font-variant:normal;font-weight:normal;font-stretch:normal;font-size:3.15169px;font-family:sans-serif;-inkscape-font-specification:'sans-serif, Normal';font-variant-ligatures:normal;font-variant-caps:normal;font-variant-numeric:normal;font-variant-east-asian:normal;fill:#ffffff;stroke-width:0.264583"
         x="46.47887"
         y="120.87997"
         id="tspan14908">this is some text</tspan><tspan
         sodipodi:role="line"
         style="font-style:normal;font-variant:normal;font-weight:normal;font-stretch:normal;font-size:3.15169px;font-family:sans-serif;-inkscape-font-specification:'sans-serif, Normal';font-variant-ligatures:normal;font-variant-caps:normal;font-variant-numeric:normal;font-variant-east-asian:normal;fill:#ffffff;stroke-width:0.264583"
         x="46.47887"
         y="124.81959"
         id="tspan14890">this is some </tspan><tspan
         sodipodi:role="line"
         style="font-style:normal;font-variant:normal;font-weight:normal;font-stretch:normal;font-size:3.15169px;font-family:sans-serif;-inkscape-font-specification:'sans-serif, Normal';font-variant-ligatures:normal;font-variant-caps:normal;font-variant-numeric:normal;font-variant-east-asian:normal;fill:#ffffff;stroke-width:0.264583"
         x="46.47887"
         y="128.7592"
         id="tspan14906">text</tspan><tspan
         sodipodi:role="line"
         style="font-style:normal;font-variant:normal;font-weight:normal;font-stretch:normal;font-size:3.15169px;font-family:sans-serif;-inkscape-font-specification:'sans-serif, Normal';font-variant-ligatures:normal;font-variant-caps:normal;font-variant-numeric:normal;font-variant-east-asian:normal;fill:#ffffff;stroke-width:0.264583"
         x="46.47887"
         y="132.69881"
         id="tspan14894" /></text><text
       xml:space="preserve"
       style="font-style:normal;font-weight:normal;font-size:10.5833px;line-height:1.25;font-family:sans-serif;fill:#000000;fill-opacity:1;stroke:none;stroke-width:0.264583"
       x="70.742905"
       y="116.34576"
       id="text14900"><tspan
         sodipodi:role="line"
         id="tspan14898"
         style="stroke-width:0.264583"
         x="70.742905"
         y="116.34576"></tspan><tspan
         sodipodi:role="line"
         style="stroke-width:0.264583"
         id="tspan14902"
         x="70.742905"
         y="129.57487" /><tspan
         sodipodi:role="line"
         style="stroke-width:0.264583"
         x="70.742905"
         y="142.804"
         id="tspan14904" /></text><text
       xml:space="preserve"
       style="font-style:normal;font-variant:normal;font-weight:normal;font-stretch:normal;font-size:3.15169px;line-height:1.25;font-family:sans-serif;-inkscape-font-specification:'sans-serif, Normal';font-variant-ligatures:normal;font-variant-caps:normal;font-variant-numeric:normal;font-variant-east-asian:normal;fill:#34344c;fill-opacity:1;stroke:none;stroke-width:0.264583"
       x="127.45319"
       y="116.36928"
       id="text14926"><tspan
         sodipodi:role="line"
         id="tspan14912"
         style="font-style:normal;font-variant:normal;font-weight:normal;font-stretch:normal;font-size:3.15169px;font-family:sans-serif;-inkscape-font-specification:'sans-serif, Normal';font-variant-ligatures:normal;font-variant-caps:normal;font-variant-numeric:normal;font-variant-east-asian:normal;fill:#34344c;fill-opacity:1;stroke-width:0.264583"
         x="127.45319"
         y="116.36928">this is some text</tspan><tspan
         sodipodi:role="line"
         style="font-style:normal;font-variant:normal;font-weight:normal;font-stretch:normal;font-size:3.15169px;font-family:sans-serif;-inkscape-font-specification:'sans-serif, Normal';font-variant-ligatures:normal;font-variant-caps:normal;font-variant-numeric:normal;font-variant-east-asian:normal;fill:#34344c;fill-opacity:1;stroke-width:0.264583"
         x="127.45319"
         y="120.30889"
         id="tspan14914">this is some text</tspan><tspan
         sodipodi:role="line"
         style="font-style:normal;font-variant:normal;font-weight:normal;font-stretch:normal;font-size:3.15169px;font-family:sans-serif;-inkscape-font-specification:'sans-serif, Normal';font-variant-ligatures:normal;font-variant-caps:normal;font-variant-numeric:normal;font-variant-east-asian:normal;fill:#34344c;fill-opacity:1;stroke-width:0.264583"
         x="127.45319"
         y="124.2485"
         id="tspan14916">this is some text</tspan><tspan
         sodipodi:role="line"
         style="font-style:normal;font-variant:normal;font-weight:normal;font-stretch:normal;font-size:3.15169px;font-family:sans-serif;-inkscape-font-specification:'sans-serif, Normal';font-variant-ligatures:normal;font-variant-caps:normal;font-variant-numeric:normal;font-variant-east-asian:normal;fill:#34344c;fill-opacity:1;stroke-width:0.264583"
         x="127.45319"
         y="128.18813"
         id="tspan14918">this is some text</tspan><tspan
         sodipodi:role="line"
         style="font-style:normal;font-variant:normal;font-weight:normal;font-stretch:normal;font-size:3.15169px;font-family:sans-serif;-inkscape-font-specification:'sans-serif, Normal';font-variant-ligatures:normal;font-variant-caps:normal;font-variant-numeric:normal;font-variant-east-asian:normal;fill:#34344c;fill-opacity:1;stroke-width:0.264583"
         x="127.45319"
         y="132.12773"
         id="tspan14920">this is some </tspan><tspan
         sodipodi:role="line"
         style="font-style:normal;font-variant:normal;font-weight:normal;font-stretch:normal;font-size:3.15169px;font-family:sans-serif;-inkscape-font-specification:'sans-serif, Normal';font-variant-ligatures:normal;font-variant-caps:normal;font-variant-numeric:normal;font-variant-east-asian:normal;fill:#34344c;fill-opacity:1;stroke-width:0.264583"
         x="127.45319"
         y="136.06734"
         id="tspan14922">text</tspan><tspan
         sodipodi:role="line"
         style="font-style:normal;font-variant:normal;font-weight:normal;font-stretch:normal;font-size:3.15169px;font-family:sans-serif;-inkscape-font-specification:'sans-serif, Normal';font-variant-ligatures:normal;font-variant-caps:normal;font-variant-numeric:normal;font-variant-east-asian:normal;fill:#34344c;fill-opacity:1;stroke-width:0.264583"
         x="127.45319"
         y="140.00696"
         id="tspan14924" /></text><text
       xml:space="preserve"
       style="font-style:normal;font-variant:normal;font-weight:normal;font-stretch:normal;font-size:3.15169px;line-height:1.25;font-family:sans-serif;-inkscape-font-specification:'sans-serif, Normal';font-variant-ligatures:normal;font-variant-caps:normal;font-variant-numeric:normal;font-variant-east-asian:normal;fill:#ffffff;fill-opacity:1;stroke:none;stroke-width:0.264583"
       x="78.050095"
       y="176.0038"
       id="text15011"><tspan
         sodipodi:role="line"
         id="tspan14997"
         style="font-style:normal;font-variant:normal;font-weight:normal;font-stretch:normal;font-size:3.15169px;font-family:sans-serif;-inkscape-font-specification:'sans-serif, Normal';font-variant-ligatures:normal;font-variant-caps:normal;font-variant-numeric:normal;font-variant-east-asian:normal;fill:#ffffff;fill-opacity:1;stroke-width:0.264583"
         x="78.050095"
         y="176.0038">this is some text</tspan><tspan
         sodipodi:role="line"
         style="font-style:normal;font-variant:normal;font-weight:normal;font-stretch:normal;font-size:3.15169px;font-family:sans-serif;-inkscape-font-specification:'sans-serif, Normal';font-variant-ligatures:normal;font-variant-caps:normal;font-variant-numeric:normal;font-variant-east-asian:normal;fill:#ffffff;fill-opacity:1;stroke-width:0.264583"
         x="78.050095"
         y="179.94341"
         id="tspan14999">this is some text</tspan><tspan
         sodipodi:role="line"
         style="font-style:normal;font-variant:normal;font-weight:normal;font-stretch:normal;font-size:3.15169px;font-family:sans-serif;-inkscape-font-specification:'sans-serif, Normal';font-variant-ligatures:normal;font-variant-caps:normal;font-variant-numeric:normal;font-variant-east-asian:normal;fill:#ffffff;fill-opacity:1;stroke-width:0.264583"
         x="78.050095"
         y="183.88303"
         id="tspan15001">this is some text</tspan><tspan
         sodipodi:role="line"
         style="font-style:normal;font-variant:normal;font-weight:normal;font-stretch:normal;font-size:3.15169px;font-family:sans-serif;-inkscape-font-specification:'sans-serif, Normal';font-variant-ligatures:normal;font-variant-caps:normal;font-variant-numeric:normal;font-variant-east-asian:normal;fill:#ffffff;fill-opacity:1;stroke-width:0.264583"
         x="78.050095"
         y="187.82263"
         id="tspan15003">this is some text</tspan><tspan
         sodipodi:role="line"
         style="font-style:normal;font-variant:normal;font-weight:normal;font-stretch:normal;font-size:3.15169px;font-family:sans-serif;-inkscape-font-specification:'sans-serif, Normal';font-variant-ligatures:normal;font-variant-caps:normal;font-variant-numeric:normal;font-variant-east-asian:normal;fill:#ffffff;fill-opacity:1;stroke-width:0.264583"
         x="78.050095"
         y="191.76225"
         id="tspan15005">this is some </tspan><tspan
         sodipodi:role="line"
         style="font-style:normal;font-variant:normal;font-weight:normal;font-stretch:normal;font-size:3.15169px;font-family:sans-serif;-inkscape-font-specification:'sans-serif, Normal';font-variant-ligatures:normal;font-variant-caps:normal;font-variant-numeric:normal;font-variant-east-asian:normal;fill:#ffffff;fill-opacity:1;stroke-width:0.264583"
         x="78.050095"
         y="195.70186"
         id="tspan15007">text</tspan><tspan
         sodipodi:role="line"
         style="font-style:normal;font-variant:normal;font-weight:normal;font-stretch:normal;font-size:3.15169px;font-family:sans-serif;-inkscape-font-specification:'sans-serif, Normal';font-variant-ligatures:normal;font-variant-caps:normal;font-variant-numeric:normal;font-variant-east-asian:normal;fill:#ffffff;fill-opacity:1;stroke-width:0.264583"
         x="78.050095"
         y="199.64148"
         id="tspan15009" /></text></g></svg>
