<?xml version="1.0" encoding="UTF-8" standalone="no"?>
<!-- Created with Inkscape (http://www.inkscape.org/) -->

<svg
   width="210mm"
   height="297mm"
   viewBox="0 0 210 297"
   version="1.1"
   id="svg5"
   inkscape:version="1.2 (dc2aedaf03, 2022-05-15)"
   sodipodi:docname="Download Icon with Long Shadows.svg"
   xmlns:inkscape="http://www.inkscape.org/namespaces/inkscape"
   xmlns:sodipodi="http://sodipodi.sourceforge.net/DTD/sodipodi-0.dtd"
   xmlns:xlink="http://www.w3.org/1999/xlink"
   xmlns="http://www.w3.org/2000/svg"
   xmlns:svg="http://www.w3.org/2000/svg">
  <sodipodi:namedview
     id="namedview7"
     pagecolor="#ffffff"
     bordercolor="#999999"
     borderopacity="1"
     inkscape:showpageshadow="0"
     inkscape:pageopacity="0"
     inkscape:pagecheckerboard="0"
     inkscape:deskcolor="#ffffff"
     inkscape:document-units="px"
     showgrid="false"
     showborder="false"
     showguides="false"
     inkscape:zoom="0.70710678"
     inkscape:cx="319.61227"
     inkscape:cy="146.3711"
     inkscape:window-width="1074"
     inkscape:window-height="991"
     inkscape:window-x="836"
     inkscape:window-y="0"
     inkscape:window-maximized="0"
     inkscape:current-layer="layer1">
    <sodipodi:guide
       position="115.05953,253.50189"
       orientation="-0.70710678,-0.70710678"
       id="guide2756"
       inkscape:locked="false" />
    <sodipodi:guide
       position="70.379167,215.11146"
       orientation="-0.70710678,-0.70710678"
       id="guide2758"
       inkscape:locked="false" />
    <sodipodi:guide
       position="102.3375,243.30555"
       orientation="-0.70710678,-0.70710678"
       id="guide2760"
       inkscape:locked="false" />
    <sodipodi:guide
       position="65.153646,232.37552"
       orientation="-0.70710678,-0.70710678"
       id="guide2762"
       inkscape:locked="false" />
    <sodipodi:guide
       position="110.00813,225.90631"
       orientation="-0.70710678,-0.70710678"
       id="guide2764"
       inkscape:locked="false" />
    <sodipodi:guide
       position="88.238542,243.025"
       orientation="-0.70710678,-0.70710678"
       id="guide2766"
       inkscape:locked="false" />
    <sodipodi:guide
       position="80.16875,235.21979"
       orientation="-0.70710678,-0.70710678"
       id="guide2768"
       inkscape:locked="false" />
  </sodipodi:namedview>
  <defs
     id="defs2">
    <linearGradient
       inkscape:collect="always"
       id="linearGradient5770">
      <stop
         style="stop-color:#000000;stop-opacity:1;"
         offset="0"
         id="stop5766" />
      <stop
         style="stop-color:#000000;stop-opacity:0;"
         offset="1"
         id="stop5768" />
    </linearGradient>
    <linearGradient
       inkscape:collect="always"
       id="linearGradient5762">
      <stop
         style="stop-color:#000000;stop-opacity:1;"
         offset="0"
         id="stop5758" />
      <stop
         style="stop-color:#000000;stop-opacity:0;"
         offset="1"
         id="stop5760" />
    </linearGradient>
    <linearGradient
       inkscape:collect="always"
       id="linearGradient5754">
      <stop
         style="stop-color:#000000;stop-opacity:1;"
         offset="0"
         id="stop5750" />
      <stop
         style="stop-color:#000000;stop-opacity:0;"
         offset="1"
         id="stop5752" />
    </linearGradient>
    <linearGradient
       inkscape:collect="always"
       id="linearGradient2750">
      <stop
         style="stop-color:#6e8a93;stop-opacity:1;"
         offset="0"
         id="stop2746" />
      <stop
         style="stop-color:#253132;stop-opacity:1;"
         offset="1"
         id="stop2748" />
    </linearGradient>
    <linearGradient
       inkscape:collect="always"
       id="linearGradient1838">
      <stop
         style="stop-color:#39c6a8;stop-opacity:1;"
         offset="0"
         id="stop1834" />
      <stop
         style="stop-color:#267162;stop-opacity:1;"
         offset="1"
         id="stop1836" />
    </linearGradient>
    <linearGradient
       inkscape:collect="always"
       xlink:href="#linearGradient1838"
       id="linearGradient1840"
       x1="55.390598"
       y1="23.494177"
       x2="102.73222"
       y2="72.511406"
       gradientUnits="userSpaceOnUse" />
    <linearGradient
       inkscape:collect="always"
       xlink:href="#linearGradient2750"
       id="linearGradient2752"
       x1="-10.928248"
       y1="-7.1883659"
       x2="170.54778"
       y2="105.06483"
       gradientUnits="userSpaceOnUse" />
    <linearGradient
       inkscape:collect="always"
       xlink:href="#linearGradient5754"
       id="linearGradient5756"
       x1="67.332253"
       y1="34.275906"
       x2="148.09706"
       y2="105.43901"
       gradientUnits="userSpaceOnUse" />
    <linearGradient
       inkscape:collect="always"
       xlink:href="#linearGradient5762"
       id="linearGradient5764"
       x1="61.903713"
       y1="35.689297"
       x2="103.10637"
       y2="72.796074"
       gradientUnits="userSpaceOnUse" />
    <linearGradient
       inkscape:collect="always"
       xlink:href="#linearGradient5770"
       id="linearGradient5772"
       x1="61.903713"
       y1="35.689297"
       x2="98.64827"
       y2="62.34568"
       gradientUnits="userSpaceOnUse" />
  </defs>
  <g
     inkscape:label="Layer 1"
     inkscape:groupmode="layer"
     id="layer1">
    <rect
       style="opacity:1;fill:url(#linearGradient2752);fill-opacity:1;stroke-width:1.85208;stroke-linecap:round;stroke-linejoin:round"
       id="rect2744"
       width="184.84361"
       height="114.49827"
       x="-13.921667"
       y="-9.0592537" />
    <path
       id="path2831"
       style="fill:url(#linearGradient5756);stroke:none;stroke-width:0.264583px;stroke-linecap:butt;stroke-linejoin:miter;stroke-opacity:1;opacity:0.62641509;fill-opacity:1"
       d="M 98.648242 26.722917 L 58.351994 68.527084 L 94.677425 105.43904 L 170.92187 105.43904 L 170.92187 99.312801 L 98.648242 26.722917 z " />
    <path
       id="rect236"
       style="opacity:1;stroke-width:1.85208;stroke-linecap:round;stroke-linejoin:round;fill:url(#linearGradient1840);fill-opacity:1"
       d="m 67.387639,23.583633 h 22.224999 c 7.47554,0 13.493752,6.018212 13.493752,13.493749 V 59.30238 c 0,7.475537 -6.018212,13.493747 -13.493752,13.493747 H 67.387639 c -7.475538,0 -13.49375,-6.01821 -13.49375,-13.493747 V 37.077382 c 0,-7.475537 6.018212,-13.493749 13.49375,-13.493749 z" />
    <path
       id="path4288"
       style="fill:url(#linearGradient5764);stroke:none;stroke-width:0.264583px;stroke-linecap:butt;stroke-linejoin:miter;stroke-opacity:1;opacity:0.61509434;fill-opacity:1"
       d="M 83.980404 35.689295 L 61.903715 60.999894 L 73.552617 72.796074 L 89.612618 72.796074 C 97.088151 72.796074 103.10637 66.777853 103.10637 59.302324 L 103.10637 54.649894 L 83.980404 35.689295 z " />
    <path
       id="path1004"
       style="opacity:1;fill:#ece9e7;stroke-width:1.21583;stroke-linecap:round;stroke-linejoin:round;fill-opacity:1"
       d="m 78.500138,34.03408 a 9.9003748,9.9003748 0 0 0 -9.900374,9.900374 9.9003748,9.9003748 0 0 0 0.434906,2.899821 7.9897763,7.9897763 0 0 0 -2.692883,-0.468151 7.9897763,7.9897763 0 0 0 -7.98978,7.989775 7.9897763,7.9897763 0 0 0 7.98978,7.98978 h 24.316704 a 7.9897763,7.9897763 0 0 0 7.989781,-7.98978 7.9897763,7.9897763 0 0 0 -7.989781,-7.989775 7.9897763,7.9897763 0 0 0 -2.694583,0.473579 9.9003748,9.9003748 0 0 0 0.436605,-2.905249 9.9003748,9.9003748 0 0 0 -9.900375,-9.900374 z" />
    <path
       id="path5745"
       style="fill:url(#linearGradient5772);stroke:none;stroke-width:0.264583px;stroke-linecap:butt;stroke-linejoin:miter;stroke-opacity:1;opacity:0.5245283;fill-opacity:1"
       d="M 78.500118 44.883049 L 77.267119 58.886845 L 80.712386 62.345549 L 90.658549 62.345549 A 7.9897763 7.9897763 0 0 0 97.451416 58.560767 L 87.481999 48.671965 L 85.195834 50.932292 L 78.500118 44.883049 z " />
    <path
       id="rect1076"
       style="opacity:1;fill:#f97979;fill-opacity:1;stroke-width:0.615421;stroke-linecap:round;stroke-linejoin:round"
       d="m 78.500146,44.883254 c -0.928378,0 -1.675757,0.86508 -1.675757,1.939595 v 6.785386 l -4.749866,-4.749867 c -0.759794,-0.759796 -1.899868,-0.84289 -2.556332,-0.186425 -0.656463,0.656462 -0.573368,1.796536 0.186427,2.55633 l 7.298058,7.298058 c 0.06832,0.130748 0.156019,0.252422 0.264316,0.360721 0.313017,0.313015 0.736083,0.457328 1.175375,0.440846 0.0192,7.3e-4 0.0384,0.0018 0.05777,0.0018 0.01938,0 0.03856,-10e-4 0.05777,-0.0018 0.439293,0.01648 0.862361,-0.127831 1.175376,-0.440846 0.108301,-0.108299 0.195995,-0.229973 0.264315,-0.360721 l 7.298066,-7.298058 c 0.759793,-0.759795 0.842887,-1.899868 0.186426,-2.55633 -0.656465,-0.656465 -1.796537,-0.573371 -2.556332,0.186425 l -4.749868,4.749866 v -6.785386 c 0,-1.074514 -0.747379,-1.939595 -1.675757,-1.939595 z" />
  </g>
</svg>
