<?xml version="1.0" encoding="UTF-8" standalone="no"?>
<!-- Created with Inkscape (http://www.inkscape.org/) -->

<svg
   width="210mm"
   height="297mm"
   viewBox="0 0 210 297"
   version="1.1"
   id="svg5"
   inkscape:version="1.2 (dc2aedaf03, 2022-05-15)"
   sodipodi:docname="Drone Icon Vector.svg"
   xmlns:inkscape="http://www.inkscape.org/namespaces/inkscape"
   xmlns:sodipodi="http://sodipodi.sourceforge.net/DTD/sodipodi-0.dtd"
   xmlns="http://www.w3.org/2000/svg"
   xmlns:svg="http://www.w3.org/2000/svg">
  <sodipodi:namedview
     id="namedview7"
     pagecolor="#ffffff"
     bordercolor="#999999"
     borderopacity="1"
     inkscape:showpageshadow="0"
     inkscape:pageopacity="0"
     inkscape:pagecheckerboard="0"
     inkscape:deskcolor="#ffffff"
     inkscape:document-units="px"
     showgrid="false"
     showborder="false"
     inkscape:zoom="1"
     inkscape:cx="428.5"
     inkscape:cy="477.5"
     inkscape:window-width="1920"
     inkscape:window-height="1001"
     inkscape:window-x="-9"
     inkscape:window-y="-9"
     inkscape:window-maximized="1"
     inkscape:current-layer="layer1" />
  <defs
     id="defs2" />
  <g
     inkscape:label="Layer 1"
     inkscape:groupmode="layer"
     id="layer1">
    <g
       id="g21314"
       transform="matrix(1.4776262,0,0,1.4776262,-54.339923,-63.312324)">
      <circle
         style="fill:#ffffff;fill-opacity:1;stroke:#003380;stroke-width:2.64583;stroke-linecap:round;stroke-linejoin:round;stroke-dasharray:none;paint-order:stroke markers fill"
         id="path11637"
         cx="80.241547"
         cy="132.55624"
         r="17.4625" />
      <path
         id="circle16671"
         style="fill:none;fill-opacity:1;stroke:#003380;stroke-width:0.79375;stroke-linecap:round;stroke-linejoin:round;stroke-dasharray:none;paint-order:stroke markers fill"
         d="m 93.477985,123.32137 a 16.139584,16.139584 0 0 1 2.903146,9.23487 v 0 a 16.139584,16.139584 0 0 1 -2.901054,9.23188" />
      <path
         id="circle17399"
         style="fill:none;fill-opacity:1;stroke:#003380;stroke-width:0.79375;stroke-linecap:round;stroke-linejoin:round;stroke-dasharray:none;paint-order:stroke markers fill"
         d="m 92.430902,124.36781 a 14.684376,14.684376 0 0 1 2.495021,8.18843 v 0 a 14.684376,14.684376 0 0 1 -2.49342,8.18606" />
      <path
         id="path15942"
         style="fill:none;fill-opacity:1;stroke:#003380;stroke-width:0.79375;stroke-linecap:round;stroke-linejoin:round;stroke-dasharray:none;paint-order:stroke markers fill"
         d="m 67.819692,150.03186 a 22.225,22.225 0 0 1 -8.493524,-17.47562 22.225,22.225 0 0 1 8.493524,-17.47561" />
      <path
         id="path21100"
         style="fill:none;fill-opacity:1;stroke:#003380;stroke-width:0.79375;stroke-linecap:round;stroke-linejoin:round;stroke-dasharray:none;paint-order:stroke markers fill"
         d="m 67.003017,141.78812 a 16.139584,16.139584 0 0 1 -2.901054,-9.23188 16.139584,16.139584 0 0 1 2.901054,-9.23187" />
      <path
         id="path21093"
         style="fill:none;fill-opacity:1;stroke:#003380;stroke-width:0.79375;stroke-linecap:round;stroke-linejoin:round;stroke-dasharray:none;paint-order:stroke markers fill"
         d="m 68.050591,140.7423 a 14.684376,14.684376 0 0 1 -2.49342,-8.18606 14.684376,14.684376 0 0 1 2.49342,-8.18605" />
      <circle
         style="fill:#ffffff;fill-opacity:1;stroke:#003380;stroke-width:2.64583;stroke-linecap:round;stroke-linejoin:round;stroke-dasharray:none;paint-order:stroke markers fill"
         id="circle21191"
         cx="99.026955"
         cy="113.77084"
         r="17.4625"
         transform="matrix(0,1,1,0,0,0)" />
      <path
         id="path21193"
         style="fill:none;fill-opacity:1;stroke:#003380;stroke-width:0.79375;stroke-linecap:round;stroke-linejoin:round;stroke-dasharray:none;paint-order:stroke markers fill"
         d="m 104.53596,112.2634 a 16.139584,16.139584 0 0 0 9.23487,2.90314 v 0 a 16.139584,16.139584 0 0 0 9.23188,-2.90105" />
      <path
         id="path21195"
         style="fill:none;fill-opacity:1;stroke:#003380;stroke-width:0.79375;stroke-linecap:round;stroke-linejoin:round;stroke-dasharray:none;paint-order:stroke markers fill"
         d="m 105.5824,111.21631 a 14.684376,14.684376 0 0 0 8.18843,2.49502 v 0 a 14.684376,14.684376 0 0 0 8.18606,-2.49342" />
      <path
         id="path21199"
         style="fill:none;fill-opacity:1;stroke:#003380;stroke-width:0.79375;stroke-linecap:round;stroke-linejoin:round;stroke-dasharray:none;paint-order:stroke markers fill"
         d="M 131.24645,86.605102 A 22.225,22.225 0 0 0 113.77083,78.111578 22.225,22.225 0 0 0 96.29522,86.605102" />
      <path
         id="path21201"
         style="fill:none;fill-opacity:1;stroke:#003380;stroke-width:0.79375;stroke-linecap:round;stroke-linejoin:round;stroke-dasharray:none;paint-order:stroke markers fill"
         d="m 123.00271,85.788427 a 16.139584,16.139584 0 0 0 -9.23188,-2.901054 16.139584,16.139584 0 0 0 -9.23187,2.901054" />
      <path
         id="path21203"
         style="fill:none;fill-opacity:1;stroke:#003380;stroke-width:0.79375;stroke-linecap:round;stroke-linejoin:round;stroke-dasharray:none;paint-order:stroke markers fill"
         d="m 121.95689,86.836001 a 14.684376,14.684376 0 0 0 -8.18606,-2.49342 14.684376,14.684376 0 0 0 -8.18605,2.49342" />
      <circle
         style="fill:#ffffff;fill-opacity:1;stroke:#003380;stroke-width:2.64583;stroke-linecap:round;stroke-linejoin:round;stroke-dasharray:none;paint-order:stroke markers fill"
         id="circle21123"
         cx="-147.30013"
         cy="132.55624"
         r="17.4625"
         transform="scale(-1,1)" />
      <path
         id="path21125"
         style="fill:none;fill-opacity:1;stroke:#003380;stroke-width:0.79375;stroke-linecap:round;stroke-linejoin:round;stroke-dasharray:none;paint-order:stroke markers fill"
         d="m 134.06369,123.32137 a 16.139584,16.139584 0 0 0 -2.90315,9.23487 v 0 a 16.139584,16.139584 0 0 0 2.90105,9.23188" />
      <path
         id="path21127"
         style="fill:none;fill-opacity:1;stroke:#003380;stroke-width:0.79375;stroke-linecap:round;stroke-linejoin:round;stroke-dasharray:none;paint-order:stroke markers fill"
         d="m 135.11077,124.36781 a 14.684376,14.684376 0 0 0 -2.49502,8.18843 v 0 a 14.684376,14.684376 0 0 0 2.49342,8.18606" />
      <path
         id="path21131"
         style="fill:none;fill-opacity:1;stroke:#003380;stroke-width:0.79375;stroke-linecap:round;stroke-linejoin:round;stroke-dasharray:none;paint-order:stroke markers fill"
         d="m 159.72198,150.03186 a 22.225,22.225 0 0 0 8.49352,-17.47562 22.225,22.225 0 0 0 -8.49352,-17.47561" />
      <path
         id="path21133"
         style="fill:none;fill-opacity:1;stroke:#003380;stroke-width:0.79375;stroke-linecap:round;stroke-linejoin:round;stroke-dasharray:none;paint-order:stroke markers fill"
         d="m 160.53865,141.78812 a 16.139584,16.139584 0 0 0 2.90106,-9.23188 16.139584,16.139584 0 0 0 -2.90106,-9.23187" />
      <path
         id="path21135"
         style="fill:none;fill-opacity:1;stroke:#003380;stroke-width:0.79375;stroke-linecap:round;stroke-linejoin:round;stroke-dasharray:none;paint-order:stroke markers fill"
         d="m 159.49108,140.7423 a 14.684376,14.684376 0 0 0 2.49342,-8.18606 14.684376,14.684376 0 0 0 -2.49342,-8.18605" />
      <circle
         style="fill:#ffffff;fill-opacity:1;stroke:#003380;stroke-width:2.64583;stroke-linecap:round;stroke-linejoin:round;stroke-dasharray:none;paint-order:stroke markers fill"
         id="circle21207"
         cx="-166.08553"
         cy="113.77084"
         r="17.4625"
         transform="rotate(-90)" />
      <path
         id="path21209"
         style="fill:none;fill-opacity:1;stroke:#003380;stroke-width:0.79375;stroke-linecap:round;stroke-linejoin:round;stroke-dasharray:none;paint-order:stroke markers fill"
         d="m 104.53596,152.84908 a 16.139584,16.139584 0 0 1 9.23487,-2.90314 v 0 a 16.139584,16.139584 0 0 1 9.23188,2.90105" />
      <path
         id="path21211"
         style="fill:none;fill-opacity:1;stroke:#003380;stroke-width:0.79375;stroke-linecap:round;stroke-linejoin:round;stroke-dasharray:none;paint-order:stroke markers fill"
         d="m 105.5824,153.89617 a 14.684376,14.684376 0 0 1 8.18843,-2.49502 v 0 a 14.684376,14.684376 0 0 1 8.18606,2.49342" />
      <path
         id="path21215"
         style="fill:none;fill-opacity:1;stroke:#003380;stroke-width:0.79375;stroke-linecap:round;stroke-linejoin:round;stroke-dasharray:none;paint-order:stroke markers fill"
         d="m 131.24645,178.50738 a 22.225,22.225 0 0 1 -17.47562,8.49352 22.225,22.225 0 0 1 -17.47561,-8.49352" />
      <path
         id="path21217"
         style="fill:none;fill-opacity:1;stroke:#003380;stroke-width:0.79375;stroke-linecap:round;stroke-linejoin:round;stroke-dasharray:none;paint-order:stroke markers fill"
         d="m 123.00271,179.32405 a 16.139584,16.139584 0 0 1 -9.23188,2.90106 16.139584,16.139584 0 0 1 -9.23187,-2.90106" />
      <path
         id="path21219"
         style="fill:none;fill-opacity:1;stroke:#003380;stroke-width:0.79375;stroke-linecap:round;stroke-linejoin:round;stroke-dasharray:none;paint-order:stroke markers fill"
         d="m 121.95689,178.27648 a 14.684376,14.684376 0 0 1 -8.18606,2.49342 14.684376,14.684376 0 0 1 -8.18605,-2.49342" />
      <path
         sodipodi:type="star"
         style="opacity:1;fill:#79a15e;fill-opacity:1;stroke:#003380;stroke-width:2.64583;stroke-linecap:round;stroke-linejoin:round;stroke-dasharray:none;paint-order:stroke markers fill"
         id="path8725"
         inkscape:flatsided="false"
         sodipodi:sides="4"
         sodipodi:cx="76.993752"
         sodipodi:cy="101.07083"
         sodipodi:r1="39.161907"
         sodipodi:r2="9.0072393"
         sodipodi:arg1="1.5707963"
         sodipodi:arg2="2.3561945"
         inkscape:rounded="0.45"
         inkscape:randomized="0"
         d="m 76.993753,140.23274 c -15.032524,0 4.260518,-22.16323 -6.369082,-32.79283 -10.629599,-10.629598 -32.792827,8.66345 -32.792827,-6.36908 0,-15.032522 22.163228,4.26052 32.792828,-6.369079 10.629599,-10.6296 -8.663445,-32.792827 6.369078,-32.792827 15.032525,0 -4.260518,22.163228 6.369082,32.792827 10.629599,10.629599 32.792828,-8.663445 32.792828,6.369079 0,15.03252 -22.163229,-4.260519 -32.792829,6.36908 -10.629599,10.6296 8.663445,32.79283 -6.369078,32.79283 z"
         inkscape:transform-center-x="1.1720213e-06"
         inkscape:transform-center-y="-1.5385296e-06"
         transform="translate(36.777083,31.485417)" />
      <circle
         style="fill:#003380;fill-opacity:1;stroke:none;stroke-width:0.320707;stroke-linecap:round;stroke-linejoin:round;stroke-dasharray:none;paint-order:stroke markers fill"
         id="circle11639"
         cx="80.241547"
         cy="132.55624"
         r="2.1166663" />
      <circle
         style="fill:#003380;fill-opacity:1;stroke:none;stroke-width:0.320707;stroke-linecap:round;stroke-linejoin:round;stroke-dasharray:none;paint-order:stroke markers fill"
         id="circle21129"
         cx="-147.30013"
         cy="132.55624"
         r="2.1166663"
         transform="scale(-1,1)" />
      <circle
         style="fill:#003380;fill-opacity:1;stroke:none;stroke-width:0.320707;stroke-linecap:round;stroke-linejoin:round;stroke-dasharray:none;paint-order:stroke markers fill"
         id="circle21197"
         cx="99.026955"
         cy="113.77084"
         r="2.1166663"
         transform="matrix(0,1,1,0,0,0)" />
      <circle
         style="fill:#003380;fill-opacity:1;stroke:none;stroke-width:0.320707;stroke-linecap:round;stroke-linejoin:round;stroke-dasharray:none;paint-order:stroke markers fill"
         id="circle21213"
         cx="-166.08553"
         cy="113.77084"
         r="2.1166663"
         transform="rotate(-90)" />
    </g>
  </g>
</svg>
