<?xml version="1.0" encoding="UTF-8" standalone="no"?>
<!-- Created with Inkscape (http://www.inkscape.org/) -->

<svg
   width="210mm"
   height="297mm"
   viewBox="0 0 210 297"
   version="1.1"
   id="svg5"
   inkscape:version="1.2 (dc2aedaf03, 2022-05-15)"
   sodipodi:docname="Flat Style Phone.svg"
   xmlns:inkscape="http://www.inkscape.org/namespaces/inkscape"
   xmlns:sodipodi="http://sodipodi.sourceforge.net/DTD/sodipodi-0.dtd"
   xmlns="http://www.w3.org/2000/svg"
   xmlns:svg="http://www.w3.org/2000/svg">
  <sodipodi:namedview
     id="namedview7"
     pagecolor="#ffffff"
     bordercolor="#999999"
     borderopacity="1"
     inkscape:showpageshadow="0"
     inkscape:pageopacity="0"
     inkscape:pagecheckerboard="0"
     inkscape:deskcolor="#ffffff"
     inkscape:document-units="px"
     showgrid="false"
     showborder="false"
     inkscape:zoom="0.70710678"
     inkscape:cx="359.21024"
     inkscape:cy="528.20877"
     inkscape:window-width="1920"
     inkscape:window-height="1001"
     inkscape:window-x="-9"
     inkscape:window-y="-9"
     inkscape:window-maximized="1"
     inkscape:current-layer="layer1" />
  <defs
     id="defs2" />
  <g
     inkscape:label="Layer 1"
     inkscape:groupmode="layer"
     id="layer1">
    <path
       id="rect14804"
       style="opacity:1;fill:#aeaeae;fill-opacity:1;stroke-width:1.58776;stroke-linecap:round;stroke-linejoin:round;paint-order:stroke markers fill"
       d="m 98.658713,105.631 c -0.936734,-0.003 -1.619609,0.16693 -2.005849,0.52575 l -74.221843,68.95222 -2.472567,-4.42239 -3.961459,-0.907 0.975914,10.74112 0.0321,0.003 c -0.355702,3.0917 9.784472,11.47478 24.182502,19.78748 15.677231,9.05125 30.288766,14.48944 32.760691,12.19302 l 79.301219,-73.67114 c 0.27368,-0.25463 0.37802,-0.59735 0.34104,-1.01045 l 0.009,0.002 -1.02921,-11.3274 -8.39224,1.4656 -7.6e-4,0.005 c -3.98867,-2.99319 -9.0334,-6.3098 -14.76451,-9.61866 -13.22765,-7.63698 -25.69644,-12.70137 -30.754789,-12.71822 z" />
    <rect
       style="opacity:1;fill:#e6e6e6;stroke-width:1.62411;stroke-linecap:round;stroke-linejoin:round;paint-order:stroke markers fill"
       id="rect739"
       width="65.352081"
       height="120.42219"
       x="141.01309"
       y="30.042879"
       ry="6.0903172"
       rx="32.676041"
       transform="matrix(0.8660254,0.5,-0.73263669,0.68061993,0,0)" />
    <rect
       style="opacity:1;fill:#333333;stroke-width:1.62411;stroke-linecap:round;stroke-linejoin:round;paint-order:stroke markers fill"
       id="rect8211"
       width="65.352081"
       height="92.185249"
       x="141.01309"
       y="44.161343"
       transform="matrix(0.8660254,0.5,-0.73263669,0.68061993,0,0)" />
    <ellipse
       style="opacity:1;fill:#aeaeae;fill-opacity:1;stroke-width:1.62411;stroke-linecap:round;stroke-linejoin:round;paint-order:stroke markers fill"
       id="path14073"
       cx="173.68912"
       cy="143.94051"
       rx="3.2203953"
       ry="3.3694882"
       transform="matrix(0.8660254,0.5,-0.73263669,0.68061993,0,0)" />
    <g
       id="g23529"
       transform="matrix(0.9904588,-0.00550861,0.01652584,1.0095411,-13.744592,166.01074)">
      <g
         id="g23559"
         transform="matrix(0.8660254,0.5,-0.79060093,0.69824688,68.379564,-263.48009)">
        <path
           id="path44836"
           style="opacity:1;fill:#f2f2f2;stroke-width:1.58776;stroke-linecap:round;stroke-linejoin:round;paint-order:stroke markers fill"
           transform="matrix(1,0,0.0017866,0.9999984,0,0)"
           d="m 168.54199,137.43822 h 65.35208 v 88.10639 h -65.35208 z" />
        <path
           id="path44833"
           style="opacity:1;fill:#2c5aa0;stroke-width:1.58782;stroke-linecap:round;stroke-linejoin:round;paint-order:stroke markers fill"
           transform="matrix(1,0,0.01256932,0.999921,0,0)"
           d="m 167.05991,137.44885 h 65.35208 v 12.52342 h -65.35208 z" />
        <path
           id="path44830"
           style="opacity:1;fill:#2c5aa0;stroke-width:1.58828;stroke-linecap:round;stroke-linejoin:round;paint-order:stroke markers fill"
           transform="matrix(1,0,0.03641063,0.99933691,0,0)"
           d="m 160.72729,221.37068 h 65.35209 v 4.32321 h -65.35209 z" />
        <path
           id="path44827"
           style="opacity:1;fill:#b5cbeb;stroke-width:1.58776;stroke-linecap:round;stroke-linejoin:round;paint-order:stroke markers fill"
           d="m 180.90479,139.33359 h 41.275 c 2.41856,0 4.36563,1.94707 4.36563,4.36562 0,2.41856 -1.94707,4.36563 -4.36563,4.36563 h -41.275 c -2.41855,0 -4.36562,-1.94707 -4.36562,-4.36563 0,-2.41855 1.94707,-4.36562 4.36562,-4.36562 z" />
        <path
           id="path44824"
           style="opacity:1;fill:#80e5ff;stroke-width:1.58776;stroke-linecap:round;stroke-linejoin:round;paint-order:stroke markers fill"
           d="m 174.15791,153.85105 h 54.76875 v 19.57916 h -54.76875 z" />
        <g
           id="g23299"
           transform="translate(0,-1.0083365)">
          <path
             id="path44821"
             style="opacity:1;fill:#bec8b7;stroke-width:1.58776;stroke-linecap:round;stroke-linejoin:round;paint-order:stroke markers fill"
             d="m 174.15792,178.32917 h 32.54375 v 2.38124 h -32.54375 z" />
          <path
             id="path44818"
             style="opacity:1;fill:#bec8b7;stroke-width:1.58776;stroke-linecap:round;stroke-linejoin:round;paint-order:stroke markers fill"
             d="m 210.40583,178.32917 h 18.52083 v 2.38124 h -18.52083 z" />
        </g>
        <g
           id="g23305"
           transform="translate(0,5.2635292)">
          <path
             id="path44815"
             style="opacity:1;fill:#bec8b7;stroke-width:1.58776;stroke-linecap:round;stroke-linejoin:round;paint-order:stroke markers fill"
             d="m 174.15792,178.32917 h 32.54375 v 2.38124 h -32.54375 z" />
          <path
             id="path44812"
             style="opacity:1;fill:#bec8b7;stroke-width:1.58776;stroke-linecap:round;stroke-linejoin:round;paint-order:stroke markers fill"
             d="m 210.40583,178.32917 h 18.52083 v 2.38124 h -18.52083 z" />
        </g>
        <g
           id="g23311"
           transform="translate(0,11.535395)">
          <path
             id="path44809"
             style="opacity:1;fill:#bec8b7;stroke-width:1.58776;stroke-linecap:round;stroke-linejoin:round;paint-order:stroke markers fill"
             d="m 174.15792,178.32917 h 32.54375 v 2.38124 h -32.54375 z" />
          <path
             id="path44806"
             style="opacity:1;fill:#bec8b7;stroke-width:1.58776;stroke-linecap:round;stroke-linejoin:round;paint-order:stroke markers fill"
             d="m 210.40583,178.32917 h 18.52083 v 2.38124 h -18.52083 z" />
        </g>
        <g
           id="g23317"
           transform="translate(0,17.80726)">
          <path
             id="path44803"
             style="opacity:1;fill:#bec8b7;stroke-width:1.58776;stroke-linecap:round;stroke-linejoin:round;paint-order:stroke markers fill"
             d="m 174.15792,178.32917 h 32.54375 v 2.38124 h -32.54375 z" />
          <path
             id="path44800"
             style="opacity:1;fill:#bec8b7;stroke-width:1.58776;stroke-linecap:round;stroke-linejoin:round;paint-order:stroke markers fill"
             d="m 210.40583,178.32917 h 18.52083 v 2.38124 h -18.52083 z" />
        </g>
        <g
           id="g23323"
           transform="translate(0,24.079126)">
          <path
             id="path44797"
             style="opacity:1;fill:#bec8b7;stroke-width:1.58776;stroke-linecap:round;stroke-linejoin:round;paint-order:stroke markers fill"
             d="m 174.15792,178.32917 h 32.54375 v 2.38124 h -32.54375 z" />
          <path
             id="path44794"
             style="opacity:1;fill:#bec8b7;stroke-width:1.58776;stroke-linecap:round;stroke-linejoin:round;paint-order:stroke markers fill"
             d="m 210.40583,178.32917 h 18.52083 v 2.38124 h -18.52083 z" />
        </g>
        <g
           id="g23329"
           transform="translate(0,30.350992)">
          <path
             id="path44791"
             style="opacity:1;fill:#bec8b7;stroke-width:1.58776;stroke-linecap:round;stroke-linejoin:round;paint-order:stroke markers fill"
             d="m 174.15792,178.32917 h 32.54375 v 2.38124 h -32.54375 z" />
          <path
             id="path44788"
             style="opacity:1;fill:#bec8b7;stroke-width:1.58776;stroke-linecap:round;stroke-linejoin:round;paint-order:stroke markers fill"
             d="m 210.40583,178.32917 h 18.52083 v 2.38124 h -18.52083 z" />
        </g>
        <g
           id="g23335"
           transform="translate(0,36.622857)">
          <path
             id="path44785"
             style="opacity:1;fill:#bec8b7;stroke-width:1.58776;stroke-linecap:round;stroke-linejoin:round;paint-order:stroke markers fill"
             d="m 174.15792,178.32917 h 32.54375 v 2.38124 h -32.54375 z" />
          <path
             id="path44782"
             style="opacity:1;fill:#bec8b7;stroke-width:1.58776;stroke-linecap:round;stroke-linejoin:round;paint-order:stroke markers fill"
             d="m 210.40583,178.32917 h 18.52083 v 2.38124 h -18.52083 z" />
        </g>
        <g
           aria-label="NEWS"
           id="text23391"
           style="font-weight:bold;font-size:10.5833px;line-height:1.25;font-family:Montserrat;-inkscape-font-specification:'Montserrat, Bold';fill:#ffffff;stroke-width:0.264583">
          <path
             d="m 190.00648,159.93648 v 4.4979 l -3.68299,-4.4979 h -1.41816 v 7.40831 h 1.69333 v -4.4979 l 3.69357,4.4979 h 1.40758 v -7.40831 z"
             id="path44779" />
          <path
             d="m 195.16055,165.96896 v -1.7145 h 3.43958 v -1.33349 h -3.43958 v -1.60866 h 3.89466 v -1.37583 h -5.59857 v 7.40831 h 5.73615 v -1.37583 z"
             id="path44776" />
          <path
             d="m 210.00892,159.93648 -1.72508,5.24931 -1.69333,-5.24931 h -1.5875 l -1.74624,5.20698 -1.67216,-5.20698 h -1.778 l 2.43416,7.40831 h 1.83091 l 1.68275,-5.01649 1.62983,5.01649 h 1.84149 l 2.42358,-7.40831 z"
             id="path44773" />
          <path
             d="m 215.03599,167.47179 c 2.11666,0 3.14324,-1.05833 3.14324,-2.29658 0,-2.71991 -4.3074,-1.77799 -4.3074,-3.14324 0,-0.46566 0.39158,-0.84666 1.40758,-0.84666 0.65616,0 1.36524,0.1905 2.05316,0.58208 l 0.52916,-1.30175 c -0.68791,-0.43391 -1.64041,-0.65616 -2.57174,-0.65616 -2.10608,0 -3.12207,1.04774 -3.12207,2.30716 0,2.75166 4.3074,1.79916 4.3074,3.18557 0,0.45508 -0.41275,0.79375 -1.42875,0.79375 -0.88899,0 -1.82032,-0.3175 -2.44474,-0.77258 l -0.58208,1.29116 c 0.65616,0.508 1.84149,0.85725 3.01624,0.85725 z"
             id="path44770" />
        </g>
      </g>
    </g>
    <path
       id="rect35436"
       style="fill:#000000;stroke-width:1.62543;stroke-linecap:round;stroke-linejoin:round;paint-order:stroke markers fill"
       d="M 95.279481 -10.037242 L 95.279337 77.771482 L 95.129529 77.771442 L 95.279405 82.299617 L 160.63148 82.299626 L 160.63136 3.086249 L 160.76642 3.0864924 L 160.63155 -10.037232 L 95.279481 -10.037242 z "
       transform="matrix(0.8660254,0.5,-0.73622042,0.67674182,0,0)" />
    <g
       id="g25495"
       transform="matrix(0.8660254,0.5,-0.77311648,0.70834153,-102.43779,-81.007619)">
      <rect
         style="opacity:1;fill:#f2f2f2;stroke-width:1.58776;stroke-linecap:round;stroke-linejoin:round;paint-order:stroke markers fill"
         id="rect23445"
         width="65.352081"
         height="88.106392"
         x="230.43486"
         y="9.3584318"
         transform="matrix(1,0,0.0017866,0.9999984,0,0)" />
      <rect
         style="opacity:1;fill:#c83737;stroke-width:1.58782;stroke-linecap:round;stroke-linejoin:round;paint-order:stroke markers fill"
         id="rect23447"
         width="65.352081"
         height="12.523417"
         x="230.33395"
         y="9.3591518"
         transform="matrix(1,0,0.01256932,0.999921,0,0)" />
      <rect
         style="opacity:1;fill:#c83737;stroke-width:1.58828;stroke-linecap:round;stroke-linejoin:round;paint-order:stroke markers fill"
         id="rect23449"
         width="65.352081"
         height="4.3232117"
         x="227.05789"
         y="93.206116"
         transform="matrix(1,0,0.03641063,0.99933691,0,0)" />
      <rect
         style="opacity:1;fill:#f4d7d7;fill-opacity:1;stroke-width:1.58776;stroke-linecap:round;stroke-linejoin:round;paint-order:stroke markers fill"
         id="rect23451"
         width="50.006248"
         height="8.7312498"
         x="238.20322"
         y="11.254007"
         ry="4.3656249" />
      <path
         id="path23453"
         style="opacity:1;fill:#808080;stroke-width:1.58776;stroke-linecap:round;stroke-linejoin:round;paint-order:stroke markers fill"
         d="M 235.82195,25.771467 H 290.5907 V 73.396459 H 235.82195 Z" />
      <path
         id="path23485"
         style="fill:#bec8b7;stroke-width:1.58776;stroke-linecap:round;stroke-linejoin:round;paint-order:stroke markers fill"
         d="m 235.82197,83.406911 h 32.54375 v 2.38124 h -32.54375 z" />
      <path
         id="path23487"
         style="fill:#bec8b7;stroke-width:1.58776;stroke-linecap:round;stroke-linejoin:round;paint-order:stroke markers fill"
         d="m 272.06988,83.406911 h 18.52083 v 2.38124 h -18.52083 z" />
      <g
         id="g23495"
         transform="translate(61.664047,-89.960015)">
        <path
           id="path23491"
           style="opacity:1;fill:#bec8b7;stroke-width:1.58776;stroke-linecap:round;stroke-linejoin:round;paint-order:stroke markers fill"
           d="m 174.15792,178.32917 h 32.54375 v 2.38124 h -32.54375 z" />
        <path
           id="path23493"
           style="opacity:1;fill:#bec8b7;stroke-width:1.58776;stroke-linecap:round;stroke-linejoin:round;paint-order:stroke markers fill"
           d="m 210.40583,178.32917 h 18.52083 v 2.38124 h -18.52083 z" />
      </g>
      <path
         id="path24287"
         style="opacity:1;fill:#404040;fill-opacity:1;stroke-width:1.58776;stroke-linecap:round;stroke-linejoin:round;paint-order:stroke markers fill"
         d="m 235.82195,66.581498 h 54.76875 v 6.814959 h -54.76875 z" />
      <rect
         style="opacity:1;fill:#ffffff;fill-opacity:1;stroke-width:1.58776;stroke-linecap:round;stroke-linejoin:round;paint-order:stroke markers fill"
         id="rect24341"
         width="47.333431"
         height="1.1225319"
         x="239.53961"
         y="69.427711" />
      <circle
         style="opacity:1;fill:#ffffff;fill-opacity:1;stroke-width:1.58776;stroke-linecap:round;stroke-linejoin:round;paint-order:stroke markers fill"
         id="path24447"
         cx="245.46033"
         cy="69.988976"
         r="1.3096207" />
      <circle
         style="opacity:1;fill:#404040;fill-opacity:1;stroke-width:1.58776;stroke-linecap:round;stroke-linejoin:round;paint-order:stroke markers fill"
         id="path24451"
         cx="263.20633"
         cy="44.719658"
         r="9.541522" />
      <path
         sodipodi:type="star"
         style="opacity:1;fill:#808080;fill-opacity:1;stroke-width:2.40858;stroke-linecap:round;stroke-linejoin:round;paint-order:stroke markers fill"
         id="path25142"
         inkscape:flatsided="true"
         sodipodi:sides="3"
         sodipodi:cx="247.14413"
         sodipodi:cy="-4.3030396"
         sodipodi:r1="7.4765277"
         sodipodi:r2="3.7382636"
         sodipodi:arg1="2.0943951"
         sodipodi:arg2="3.1415927"
         inkscape:rounded="0"
         inkscape:randomized="0"
         d="m 243.40587,2.1718234 0,-12.9497254 11.21479,6.4748624 z"
         inkscape:transform-center-x="-1.2321483"
         transform="matrix(0.65921019,0,0,0.65921019,100.14783,47.556265)" />
      <rect
         style="opacity:1;fill:#ff8080;fill-opacity:1;stroke-width:1.58776;stroke-linecap:round;stroke-linejoin:round;paint-order:stroke markers fill"
         id="rect25196"
         width="6.3610144"
         height="6.3610144"
         x="235.82195"
         y="74.835464" />
      <path
         id="path25200"
         style="fill:#ff8080;fill-opacity:1;stroke-width:1.58776;stroke-linecap:round;stroke-linejoin:round;paint-order:stroke markers fill"
         d="m 244.00658,76.825352 h 18.52083 v 2.38124 h -18.52083 z" />
    </g>
  </g>
</svg>
