<?xml version="1.0" encoding="UTF-8" standalone="no"?>
<!-- Created with Inkscape (http://www.inkscape.org/) -->

<svg
   width="210mm"
   height="297mm"
   viewBox="0 0 210 297"
   version="1.1"
   id="svg5"
   sodipodi:docname="Flat Style Calendar.svg"
   inkscape:version="1.2 (dc2aedaf03, 2022-05-15)"
   xmlns:inkscape="http://www.inkscape.org/namespaces/inkscape"
   xmlns:sodipodi="http://sodipodi.sourceforge.net/DTD/sodipodi-0.dtd"
   xmlns="http://www.w3.org/2000/svg"
   xmlns:svg="http://www.w3.org/2000/svg">
  <sodipodi:namedview
     id="namedview7"
     pagecolor="#ffffff"
     bordercolor="#999999"
     borderopacity="1"
     inkscape:showpageshadow="0"
     inkscape:pageopacity="0"
     inkscape:pagecheckerboard="0"
     inkscape:deskcolor="#ffffff"
     inkscape:document-units="px"
     showgrid="false"
     showborder="false"
     inkscape:zoom="1"
     inkscape:cx="362"
     inkscape:cy="614.5"
     inkscape:window-width="939"
     inkscape:window-height="991"
     inkscape:window-x="971"
     inkscape:window-y="0"
     inkscape:window-maximized="0"
     inkscape:current-layer="layer1" />
  <defs
     id="defs2" />
  <g
     inkscape:label="Layer 1"
     inkscape:groupmode="layer"
     id="layer1">
    <path
       id="rect184"
       style="opacity:1;stroke-width:3.175;stroke-linecap:square;fill:#2a93ff;fill-opacity:1"
       d="m 72.23125,114.56458 h 55.5625 c 6.59606,0 11.90625,5.31019 11.90625,11.90625 v 55.56251 c 0,6.59606 -5.31019,11.90625 -11.90625,11.90625 h -55.5625 c -6.596063,0 -11.90625,-5.31019 -11.90625,-11.90625 v -55.56251 c 0,-6.59606 5.310187,-11.90625 11.90625,-11.90625 z" />
    <path
       id="path10678"
       style="opacity:1;stroke-width:3.175;stroke-linecap:square;fill:#2a93ff;fill-opacity:1"
       d="m 72.23125,114.56458 h 55.5625 c 6.59606,0 11.90625,5.31019 11.90625,11.90625 v 55.56251 c 0,6.59606 -5.31019,11.90625 -11.90625,11.90625 h -55.5625 c -6.596063,0 -11.90625,-5.31019 -11.90625,-11.90625 v -55.56251 c 0,-6.59606 5.310187,-11.90625 11.90625,-11.90625 z" />
    <path
       id="path12239"
       style="opacity:1;stroke-width:3.175;stroke-linecap:square;fill:#cccccc;fill-opacity:1"
       d="M 72.23125 114.56458 C 65.635194 114.56458 60.325 119.87478 60.325 126.47083 L 60.325 145.25625 L 139.7 145.25625 L 139.7 126.47083 C 139.7 119.87478 134.3898 114.56458 127.79375 114.56458 L 72.23125 114.56458 z " />
    <path
       id="path15148"
       style="fill:#0164cb;fill-opacity:1;stroke:none;stroke-width:0.264583px;stroke-linecap:butt;stroke-linejoin:miter;stroke-opacity:1"
       d="m 100.0126,145.25625 -39.687496,8.99583 68.640766,39.62963 c 6.04166,-0.58534 10.73423,-5.64806 10.73423,-11.84838 v -27.78125 z" />
    <path
       id="path18625"
       style="opacity:1;fill:#999999;fill-opacity:1;stroke-width:3.175;stroke-linecap:square"
       d="M 62.044792 129.80138 C 61.452272 129.80138 60.879491 129.81897 60.325 129.85047 L 60.325 145.25625 L 139.7 145.25625 L 139.7 129.85047 C 139.14548 129.81897 138.57275 129.80138 137.98021 129.80138 L 62.044792 129.80138 z " />
    <path
       id="path3856"
       style="opacity:1;fill:#0050c5;fill-opacity:1;stroke-width:3.175;stroke-linecap:square"
       d="m 62.044797,132.712 c -9.0146,0 -13.7353,3.755 -10.8968,7.956 l 9.177,13.584 H 139.7 l 9.177,-13.584 c 2.839,-4.201 -1.882,-7.956 -10.897,-7.956 z" />
    <path
       id="path20134"
       style="opacity:1;fill:#808080;fill-opacity:1;stroke:none;stroke-width:3.175;stroke-linecap:square"
       d="m 93.53021,118.53333 a 2.6458333,2.6458333 0 0 0 -2.645833,2.64584 2.6458333,2.6458333 0 0 0 2.645833,2.64583 2.6458333,2.6458333 0 0 0 2.645833,-2.64583 2.6458333,2.6458333 0 0 0 -2.645833,-2.64584 z m 12.96458,0 a 2.6458333,2.6458333 0 0 0 -2.64583,2.64584 2.6458333,2.6458333 0 0 0 2.64583,2.64583 2.6458333,2.6458333 0 0 0 2.64583,-2.64583 2.6458333,2.6458333 0 0 0 -2.64583,-2.64584 z" />
    <path
       id="text21645"
       style="font-style:normal;font-variant:normal;font-weight:bold;font-stretch:normal;font-size:52.7921px;line-height:1.25;font-family:Sans;-inkscape-font-specification:'Sans, Bold';font-variant-ligatures:normal;font-variant-caps:normal;font-variant-numeric:normal;font-variant-east-asian:normal;fill:#ffffff;fill-opacity:1;stroke:none;stroke-width:0.264583"
       d="M 103.1074 154.25208 C 103.14892 154.5579 103.17045 154.87789 103.17045 155.21327 C 103.17045 156.67398 102.73223 158.15202 101.8558 159.6471 C 100.97937 161.14219 99.501335 162.89506 97.421961 164.9057 C 96.029983 166.26331 94.173788 167.87876 91.853825 169.75191 C 89.551047 171.62507 87.248498 173.39525 84.94572 175.06218 L 84.94572 181.4034 L 115.07928 181.4034 L 115.07928 174.05656 L 97.834339 174.05656 C 98.50455 173.57538 99.630382 172.73356 101.21139 171.53062 C 102.79241 170.31049 104.36459 168.97853 105.92842 167.53499 C 108.42023 165.21503 110.26777 162.96388 111.47072 160.7814 C 112.62703 158.71306 113.23442 156.53651 113.29489 154.25208 L 103.1074 154.25208 z " />
    <path
       id="text21649"
       style="font-style:normal;font-variant:normal;font-weight:bold;font-stretch:normal;font-size:52.7921px;line-height:1.25;font-family:Sans;-inkscape-font-specification:'Sans, Bold';font-variant-ligatures:normal;font-variant-caps:normal;font-variant-numeric:normal;font-variant-east-asian:normal;fill:#a8a8a8;fill-opacity:1;stroke:none;stroke-width:0.264583"
       d="M 98.1574 146.639 C 95.0293 146.639 91.9541 146.859 88.9927 147.291 C 86.1319 147.711 84.0651 148.12 82.7623 148.518 L 85.6617 153.732 L 86.5045 153.732 C 87.7893 153.208 89.2962 152.761 91.0194 152.4 C 92.8099 152.028 94.5921 151.838 96.3283 151.838 C 98.6495 151.838 100.415 152.117 101.589 152.658 C 102.519 153.071 103.018 153.608 103.107 154.252 L 113.295 154.252 C 113.332 154.191 113.369 154.129 113.404 154.067 C 114.496 152.102 114.003 150.358 111.628 148.986 C 109.018 147.461 104.459 146.639 98.1574 146.639 Z" />
  </g>
</svg>
