<?xml version="1.0" encoding="UTF-8" standalone="no"?>
<!-- Created with Inkscape (http://www.inkscape.org/) -->

<svg
   width="210mm"
   height="297mm"
   viewBox="0 0 210 297"
   version="1.1"
   id="svg5"
   xml:space="preserve"
   sodipodi:docname="Heartbeat design.svg"
   inkscape:version="1.2 (dc2aedaf03, 2022-05-15)"
   xmlns:inkscape="http://www.inkscape.org/namespaces/inkscape"
   xmlns:sodipodi="http://sodipodi.sourceforge.net/DTD/sodipodi-0.dtd"
   xmlns="http://www.w3.org/2000/svg"
   xmlns:svg="http://www.w3.org/2000/svg"><sodipodi:namedview
     id="namedview7"
     pagecolor="#ffffff"
     bordercolor="#999999"
     borderopacity="1"
     inkscape:showpageshadow="0"
     inkscape:pageopacity="0"
     inkscape:pagecheckerboard="0"
     inkscape:deskcolor="#ffffff"
     inkscape:document-units="px"
     showgrid="false"
     showborder="false"
     inkscape:zoom="0.35355339"
     inkscape:cx="-2732.2606"
     inkscape:cy="-524.67323"
     inkscape:window-width="1116"
     inkscape:window-height="991"
     inkscape:window-x="794"
     inkscape:window-y="0"
     inkscape:window-maximized="0"
     inkscape:current-layer="layer1" /><defs
     id="defs2" /><g
     inkscape:label="Layer 1"
     inkscape:groupmode="layer"
     id="layer1"><path
       id="path7790"
       style="fill:none;stroke:#000000;stroke-width:2.99999;stroke-linecap:round;stroke-linejoin:round;stroke-dasharray:none"
       d="M -821.00209 -217.25703 L -822.03718 -217.22411 L -827.82531 -223.04267 L -831.39267 -206.28607 L -836.09586 -231.30116 L -842.71534 -199.1219 L -849.89608 -239.53306 L -853.89632 -218.01786 L -862.0125 -218.01786 " /><path
       id="path19361"
       style="fill:none;stroke:#000000;stroke-width:2.99999;stroke-linecap:round;stroke-linejoin:round;stroke-dasharray:none"
       d="M -820.20833 -217.28228 L -821.00209 -217.25703 " /><path
       id="path19359"
       style="fill:none;stroke:#000000;stroke-width:2.99999;stroke-linecap:round;stroke-linejoin:round;stroke-dasharray:none"
       d="M -740.04614 -218.01684 L -740.04114 -218.03954 C -738.37633 -225.27446 -737.7014 -227.52137 -737.11646 -227.61124 C -736.71151 -227.70124 -734.0568 -227.16187 -731.22213 -226.39794 C -725.23781 -224.78018 -724.2479 -224.73525 -722.04313 -225.76881 C -720.24334 -226.57768 -714.304 -232.19489 -714.304 -233.04869 C -714.304 -233.36326 -716.91371 -236.23928 -720.10834 -239.5197 L -725.91271 -245.45148 L -725.68776 -247.51861 C -725.37279 -250.125 -726.67765 -252.73136 -730.32225 -256.91057 C -733.20194 -260.14609 -733.20194 -260.10118 -730.6822 -266.34748 C -729.82729 -268.4146 -729.33235 -270.30199 -729.51235 -270.48175 C -729.69226 -270.66144 -731.44711 -269.22349 -733.42689 -267.24624 C -735.40668 -265.26898 -737.16148 -263.65122 -737.34147 -263.65122 C -737.56643 -263.65122 -737.70143 -266.8418 -737.70143 -270.75136 C -737.70143 -277.08755 -737.79153 -277.98633 -738.51133 -278.61546 C -738.96127 -279.06483 -739.54621 -279.37939 -739.81618 -279.37939 C -740.04114 -279.37939 -741.39102 -278.16607 -742.83085 -276.72807 L -742.83082 -276.72814 L -742.83082 -276.72814 C -745.21556 -274.21162 -748.5002 -268.45963 -748.5002 -266.79692 C -748.5002 -266.39248 -751.0199 -264.32535 -754.07958 -262.12342 C -759.52395 -258.30371 -759.79395 -258.03408 -762.13366 -254.03465 C -765.05835 -249.18137 -769.46785 -243.20469 -773.42742 -238.75584 C -775.00225 -237.00328 -776.93702 -234.26209 -777.74694 -232.68927 C -779.45675 -229.49868 -781.70648 -227.43155 -786.026 -225.04986 C -787.64583 -224.15113 -791.24543 -221.8593 -794.03512 -219.97191 C -794.15357 -219.89201 -794.27321 -219.81179 -794.394 -219.73138 C -794.51479 -219.65098 -794.63672 -219.57032 -794.75975 -219.48948 C -794.88277 -219.40868 -795.0069 -219.32758 -795.13208 -219.24636 C -795.25726 -219.16516 -795.38349 -219.08374 -795.51073 -219.00218 C -795.63797 -218.92058 -795.76622 -218.83892 -795.89543 -218.75709 C -796.02463 -218.67529 -796.1548 -218.5933 -796.28589 -218.51124 C -796.41697 -218.42914 -796.54897 -218.34702 -796.68184 -218.26478 C -796.81471 -218.18258 -796.94846 -218.10023 -797.08302 -218.01786 L -820.20833 -217.28228 " /><path
       id="path19364"
       style="fill:none;stroke:#000000;stroke-width:2.99999;stroke-linecap:round;stroke-linejoin:round;stroke-dasharray:none"
       d="m -862.23436,-218.00539 -19.68822,0.0329 -5.78813,-5.81856 -3.56736,16.7566 -4.70319,-25.01509 -6.61948,32.17926 -7.18074,-40.41116 -4.00024,21.5152 h -17.28352"
       sodipodi:nodetypes="ccccccccc" /><path
       id="path20092"
       style="fill:none;stroke:#000000;stroke-width:2.99999;stroke-linecap:round;stroke-linejoin:round;stroke-dasharray:none"
       d="m -660.39691,-218.00539 -12.0153,0.0329 -5.78813,-5.81856 -3.56736,16.7566 -4.70319,-25.01509 -6.61948,32.17926 -7.18074,-40.41116 -4.00024,21.5152 -35.0106,0"
       sodipodi:nodetypes="ccccccccc" /><path
       style="color:#000000;fill:#803300;stroke-linecap:round;stroke-linejoin:round"
       d="m -849.89062,-77.142578 a 1.500145,1.500145 0 0 0 -1.48047,1.224609 l -3.77149,20.289063 h -6.86914 a 1.499995,1.499995 0 0 0 -1.5,1.5 1.499995,1.499995 0 0 0 1.5,1.5 h 8.11524 a 1.500145,1.500145 0 0 0 1.47461,-1.22461 l 2.49218,-13.40625 5.73828,32.289063 a 1.500145,1.500145 0 0 0 2.94532,0.04102 l 5.08398,-24.714844 3.29492,17.52539 a 1.500145,1.500145 0 0 0 2.94141,0.03516 l 2.99219,-14.046875 3.83203,3.853515 a 1.500145,1.500145 0 0 0 1.11133,0.441407 l 1.03515,-0.03125 a 1.499995,1.499995 0 0 0 1.45313,-1.546875 1.499995,1.499995 0 0 0 -1.54688,-1.453125 l -0.38476,0.01367 -5.32813,-5.357421 a 1.500145,1.500145 0 0 0 -2.53125,0.746093 l -2.00781,9.433594 -3.32031,-17.658203 a 1.500145,1.500145 0 0 0 -2.94336,-0.02344 l -5.04297,24.511719 -5.8125,-32.705078 a 1.500145,1.500145 0 0 0 -1.4707,-1.236328 z"
       id="path20820" /><path
       style="color:#000000;fill:#803300;stroke-linecap:round;stroke-linejoin:round"
       d="m -820.25586,-54.892578 -0.79297,0.02539 a 1.499995,1.499995 0 0 0 -1.45312,1.546875 1.499995,1.499995 0 0 0 1.54687,1.453125 l 0.79492,-0.02539 a 1.499995,1.499995 0 0 0 1.45118,-1.546875 1.499995,1.499995 0 0 0 -1.54688,-1.453125 z"
       id="path20822" /><path
       style="color:#000000;fill:#803300;stroke-linecap:round;stroke-linejoin:round"
       d="m -739.81641,-116.99023 c -0.7023,0 -0.75073,0.17723 -0.89453,0.26171 -0.1438,0.0845 -0.25318,0.16501 -0.37109,0.25391 -0.23583,0.17779 -0.49105,0.39148 -0.78125,0.64844 -0.5804,0.51392 -1.29084,1.19021 -2.02734,1.92578 l 0.0176,0.0117 a 1.500145,1.500145 0 0 0 -0.0469,0.0176 c -1.34834,1.42285 -2.77887,3.53458 -3.94336,5.57421 -0.58224,1.01982 -1.08901,2.0152 -1.4668,2.9043 -0.27678,0.65139 -0.38659,1.21881 -0.49023,1.82031 -0.0102,0.0127 -0.0756,0.0889 -0.1836,0.19727 -0.22588,0.22672 -0.61246,0.57275 -1.09765,0.97656 -0.97039,0.80763 -2.34586,1.86226 -3.85352,2.947268 -5.4341,3.813089 -6.12527,4.536274 -8.47265,8.548828 l 0.01,-0.01758 c -2.86042,4.746629 -7.24256,10.687706 -11.125,15.050781 -1.68633,1.876641 -3.60682,4.576238 -4.53711,6.382813 l 0.0117,-0.02148 c -1.57847,2.945497 -3.49065,4.722379 -7.68164,7.033203 a 1.500145,1.500145 0 0 0 -0.004,0.002 c -1.74145,0.966211 -5.30217,3.241274 -8.12109,5.148437 -0.1154,0.07784 -0.23232,0.156298 -0.34961,0.234375 -0.11841,0.07881 -0.23892,0.157181 -0.35937,0.236328 -0.12099,0.07946 -0.24271,0.158779 -0.36524,0.238282 -0.123,0.07979 -0.24623,0.160199 -0.37109,0.240234 -0.12449,0.07983 -0.24979,0.159699 -0.37696,0.240234 -0.12722,0.08055 -0.25602,0.161599 -0.38476,0.242188 -0.1285,0.08048 -0.25774,0.161146 -0.38867,0.242187 -0.0193,0.01197 -0.0392,0.02319 -0.0586,0.03516 l -22.72656,0.722656 a 1.499995,1.499995 0 0 0 -1.45117,1.546875 1.499995,1.499995 0 0 0 1.54687,1.453125 l 23.125,-0.736328 a 1.500145,1.500145 0 0 0 0.73438,-0.220703 c 0.13675,-0.08371 0.27351,-0.166671 0.4082,-0.25 0.13481,-0.08344 0.26868,-0.166283 0.40235,-0.25 0.13344,-0.08353 0.2653,-0.166947 0.39648,-0.25 0.13125,-0.08313 0.26258,-0.166634 0.39258,-0.25 0.12962,-0.08309 0.25741,-0.165436 0.38476,-0.248047 0.12783,-0.08294 0.25581,-0.16591 0.38086,-0.248047 0.12561,-0.08253 0.24988,-0.166061 0.37305,-0.248047 0.12354,-0.08224 0.24446,-0.162674 0.36523,-0.244141 a 1.500145,1.500145 0 0 0 0.002,-0.002 c 2.75966,-1.867074 6.39553,-4.173999 7.89453,-5.005859 l 0.002,-0.002 c 4.44635,-2.452006 7.03228,-4.809173 8.87305,-8.244141 a 1.500145,1.500145 0 0 0 0.0117,-0.02148 c 0.68954,-1.339062 2.63823,-4.121524 4.10156,-5.75 a 1.500145,1.500145 0 0 0 0.006,-0.0059 c 4.03544,-4.534091 8.46932,-10.544094 11.45703,-15.501953 a 1.500145,1.500145 0 0 0 0.01,-0.01563 c 2.32914,-3.981375 2.18481,-3.805104 7.62109,-7.61914 a 1.500145,1.500145 0 0 0 0.0156,-0.0098 c 1.55201,-1.116927 2.96515,-2.198644 4.01953,-3.076175 0.52718,-0.43876 0.96251,-0.82258 1.30468,-1.16601 0.17109,-0.17172 0.3178,-0.32862 0.46289,-0.52149 0.1451,-0.19287 0.41602,-0.29959 0.41602,-1.1289 0,0.0782 0.11904,-0.57683 0.43164,-1.3125 0.3126,-0.73568 0.77354,-1.64731 1.31055,-2.58789 1.07306,-1.8795 2.47559,-3.8998 3.51172,-4.99414 9.2e-4,-9.8e-4 0.003,-0.003 0.004,-0.004 0.69154,-0.68961 1.36649,-1.32836 1.86914,-1.77344 0.0838,-0.0742 0.12184,-0.10137 0.19532,-0.16406 0.036,0.0306 0.0744,0.0491 0.10546,0.0801 a 1.500145,1.500145 0 0 0 0.0742,0.0684 c 0.0584,0.051 -10e-4,-0.0302 0.0254,0.0351 0.0264,0.0654 0.0958,0.30497 0.14454,0.7793 0.0974,0.94865 0.12695,2.75894 0.12695,5.91992 0,1.97205 0.0339,3.76156 0.0977,5.08789 0.0319,0.66317 0.0701,1.20373 0.12305,1.63477 0.0265,0.21552 0.0501,0.394229 0.10938,0.617186 0.0296,0.111478 0.0561,0.230672 0.17382,0.445312 0.0589,0.10732 0.13772,0.247316 0.33204,0.421875 0.19431,0.17456 0.57319,0.392578 1.02343,0.392578 0.57301,0 0.64599,-0.135019 0.75586,-0.193359 0.10987,-0.05834 0.17561,-0.103435 0.24024,-0.148438 0.12926,-0.09001 0.24062,-0.178878 0.36914,-0.285156 0.25703,-0.212555 0.56791,-0.487991 0.93359,-0.824219 0.73136,-0.672459 1.67383,-1.581359 2.67578,-2.582029 0.005,-0.005 0.007,-0.007 0.0117,-0.0117 -1.0508,2.573699 -1.73094,4.161629 -1.66992,5.753906 0.0337,0.879944 0.36829,1.709656 0.83008,2.402343 0.46178,0.692687 1.03317,1.319362 1.75195,2.126954 1.77158,2.032853 2.93179,3.647427 3.57813,4.953125 0.64795,1.308949 0.80824,2.26258 0.6875,3.261718 a 1.500145,1.500145 0 0 0 -0.002,0.01758 l -0.22461,2.066407 a 1.500145,1.500145 0 0 0 0.41993,1.210937 l 5.80468,5.933594 c 1.58514,1.627792 3.0266,3.156524 4.05664,4.300781 0.43837,0.486978 0.75385,0.856122 1.01563,1.171875 -0.0958,0.117094 -0.15016,0.194775 -0.27539,0.335938 -0.53859,0.607076 -1.31415,1.39479 -2.14453,2.177734 -0.83038,0.782944 -1.72062,1.56827 -2.49024,2.189453 -0.76962,0.621183 -1.50141,1.093683 -1.64062,1.15625 a 1.500145,1.500145 0 0 0 -0.0215,0.01172 c -1.0167,0.476612 -1.39897,0.609726 -2.43554,0.541016 -1.03657,-0.06871 -2.73943,-0.457365 -5.71485,-1.261719 a 1.500145,1.500145 0 0 0 -0.002,0 c -1.44529,-0.389499 -2.83951,-0.720161 -3.94727,-0.947266 -0.55387,-0.113552 -1.03275,-0.201023 -1.43164,-0.257812 -0.19944,-0.0284 -0.37818,-0.04903 -0.55468,-0.06055 -0.15916,-0.01039 -0.31299,-0.02232 -0.60938,0.0332 -0.9951,0.170564 -1.30212,0.822873 -1.54687,1.302734 -0.24835,0.486903 -0.45016,1.05472 -0.6875,1.833985 -0.47469,1.558528 -1.05981,3.93885 -1.89454,7.566406 a 1.500145,1.500145 0 0 0 -0.002,0.01367 l -0.006,0.02344 a 1.499995,1.499995 0 0 0 1.14258,1.78711 1.499995,1.499995 0 0 0 1.78711,-1.142578 l 0.002,-0.0098 0.004,-0.01367 c 0.82761,-3.595946 1.41347,-5.956102 1.83789,-7.349609 0.15306,-0.502532 0.25145,-0.725872 0.35156,-0.96875 0.28294,0.04537 0.59294,0.09699 1.00586,0.18164 1.0295,0.211062 2.3782,0.529866 3.76758,0.904297 3.00889,0.813404 4.79317,1.257618 6.29883,1.357422 1.49921,0.09938 2.70936,-0.25961 3.89258,-0.8125 0.75836,-0.34196 1.44102,-0.870211 2.28906,-1.554687 0.85019,-0.686219 1.78463,-1.510653 2.66406,-2.339844 0.87943,-0.829191 1.6988,-1.657583 2.33008,-2.369141 0.31564,-0.355779 0.5834,-0.678199 0.80469,-0.99414 0.22129,-0.315942 0.52929,-0.4085 0.52929,-1.384766 0,-0.538166 -0.1266,-0.642018 -0.1914,-0.769531 -0.0648,-0.127514 -0.12167,-0.213732 -0.18164,-0.302735 -0.11996,-0.178005 -0.25337,-0.351129 -0.41602,-0.552734 -0.32531,-0.40321 -0.76258,-0.906239 -1.29883,-1.501953 -1.0725,-1.191429 -2.53288,-2.739707 -4.14062,-4.390625 a 1.500145,1.500145 0 0 0 -0.004,-0.0039 l -5.30859,-5.423829 0.14648,-1.345703 c 0.19423,-1.607249 -0.13968,-3.260544 -0.97656,-4.951172 -0.83689,-1.690627 -2.15009,-3.466283 -4.01563,-5.605468 a 1.500145,1.500145 0 0 0 -0.01,-0.01172 c -0.72107,-0.810167 -1.22867,-1.392797 -1.49805,-1.796875 -0.26938,-0.404078 -0.31685,-0.55946 -0.32812,-0.853516 -0.0225,-0.588111 0.47599,-2.104209 1.73632,-5.228511 l -0.006,0.0117 c 0.45,-1.08807 0.80401,-2.11826 1.0332,-2.94726 0.11459,-0.4145 0.19838,-0.77318 0.24805,-1.11133 0.0248,-0.16907 0.0451,-0.32689 0.0391,-0.54492 -0.006,-0.21804 0.13186,-0.5584 -0.47656,-1.16602 -0.40385,-0.40335 -0.91478,-0.46451 -1.18555,-0.45117 -0.27077,0.0133 -0.41802,0.069 -0.54102,0.11524 -0.24599,0.0925 -0.38881,0.1846 -0.54687,0.28515 -0.31613,0.20111 -0.63987,0.4491 -1.02149,0.76367 -0.76323,0.62916 -1.72024,1.5067 -2.73828,2.52344 -0.61908,0.61829 -1.10958,1.07537 -1.63867,1.58008 -0.0407,-1.16059 -0.0762,-2.44648 -0.0762,-4.02344 0,-3.1752 -0.015,-4.9845 -0.14258,-6.22656 -0.0638,-0.62103 -0.15276,-1.11762 -0.3457,-1.5957 -0.18808,-0.46601 -0.51684,-0.8776 -0.8125,-1.14258 -0.31649,-0.30769 -0.64743,-0.55855 -0.98633,-0.75196 -0.3564,-0.20339 -0.61056,-0.4121 -1.32813,-0.4121 z"
       id="path20824" /><path
       style="color:#000000;fill:#803300;stroke-linecap:round;stroke-linejoin:round"
       d="m -893.90039,-77.890625 c -0.72445,-0.0028 -1.34741,0.512479 -1.48047,1.224609 l -3.77344,20.289063 h -16.03515 c -0.82843,-3e-6 -1.5,1.5 -1.5,1.5 0,0.828428 0.67157,1.500003 1.5,1.5 h 17.2832 c 0.72224,-7e-6 1.34195,-0.514655 1.47461,-1.224609 l 2.49219,-13.404297 5.73633,32.287109 c 0.28646,1.630935 2.61552,1.663351 2.94726,0.04102 l 5.08399,-24.714844 3.29492,17.525391 c 0.30326,1.610278 2.59973,1.637729 2.9414,0.03516 l 2.99024,-14.048828 3.83398,3.855468 c 0.28444,0.286597 0.6724,0.446429 1.07617,0.44336 l 3.81446,-0.0332 c 0.82844,-0.0075 1.49392,-0.685229 1.48633,-1.513672 -0.008,-0.828446 -0.68523,-1.493921 -1.51368,-1.486328 l -3.18164,0.02734 -5.34179,-5.371093 c -0.84049,-0.845363 -2.28364,-0.419992 -2.53125,0.746093 l -2.00977,9.4375 -3.32031,-17.662109 c -0.30449,-1.615451 -2.61104,-1.635348 -2.94336,-0.02539 l -5.04102,24.511719 -5.8125,-32.703125 c -0.1274,-0.713165 -0.74625,-1.233398 -1.4707,-1.236328 z"
       id="path20826"
       sodipodi:nodetypes="sccsssscccccccccccscccccccccss" /><path
       style="color:#000000;fill:#803300;stroke-linecap:round;stroke-linejoin:round;-inkscape-stroke:none"
       d="m -693.38672,-77.890625 a 1.500145,1.500145 0 0 0 -1.48047,1.224609 l -3.77148,20.289063 h -40.64258 a 1.499995,1.499995 0 0 0 -1.5,1.5 1.499995,1.499995 0 0 0 1.5,1.5 h 41.88867 a 1.500145,1.500145 0 0 0 1.47461,-1.224609 l 2.49219,-13.40625 5.73828,32.289062 a 1.500145,1.500145 0 0 0 2.94531,0.04102 l 5.08399,-24.714844 3.29492,17.525391 a 1.500145,1.500145 0 0 0 2.94141,0.03516 l 2.99218,-14.046875 3.83399,3.853515 a 1.500145,1.500145 0 0 0 1.0664,0.44336 l 12.01563,-0.0332 a 1.499995,1.499995 0 0 0 1.49609,-1.503907 1.499995,1.499995 0 0 0 -1.5039,-1.496093 l -11.38868,0.03125 -5.34765,-5.375 a 1.500145,1.500145 0 0 0 -2.53125,0.746093 l -2.00781,9.433594 -3.32032,-17.658203 a 1.500145,1.500145 0 0 0 -2.94336,-0.02539 l -5.04297,24.517579 -5.8125,-32.708985 a 1.500145,1.500145 0 0 0 -1.4707,-1.236328 z"
       id="path20828" /></g></svg>
