<?xml version="1.0" encoding="UTF-8" standalone="no"?>
<!-- Created with Inkscape (http://www.inkscape.org/) -->

<svg
   width="210mm"
   height="297mm"
   viewBox="0 0 210 297"
   version="1.1"
   id="svg5"
   inkscape:version="1.2 (dc2aedaf03, 2022-05-15)"
   sodipodi:docname="Infinite Loop Icon.svg"
   xmlns:inkscape="http://www.inkscape.org/namespaces/inkscape"
   xmlns:sodipodi="http://sodipodi.sourceforge.net/DTD/sodipodi-0.dtd"
   xmlns="http://www.w3.org/2000/svg"
   xmlns:svg="http://www.w3.org/2000/svg">
  <sodipodi:namedview
     id="namedview7"
     pagecolor="#ffffff"
     bordercolor="#999999"
     borderopacity="1"
     inkscape:showpageshadow="0"
     inkscape:pageopacity="0"
     inkscape:pagecheckerboard="0"
     inkscape:deskcolor="#ffffff"
     inkscape:document-units="px"
     showgrid="false"
     showborder="false"
     inkscape:zoom="1"
     inkscape:cx="610"
     inkscape:cy="-702.5"
     inkscape:window-width="1920"
     inkscape:window-height="1001"
     inkscape:window-x="-9"
     inkscape:window-y="-9"
     inkscape:window-maximized="1"
     inkscape:current-layer="layer1" />
  <defs
     id="defs2" />
  <g
     inkscape:label="Layer 1"
     inkscape:groupmode="layer"
     id="layer1">
    <g
       id="path8373"
       style="opacity:1;stroke-width:1.00013;stroke-dasharray:none"
       transform="translate(103.79272,-245.52064)">
      <path
         style="color:#000000;fill:#ff0000;stroke-width:1.00013;stroke-linecap:round;stroke-linejoin:round;stroke-dasharray:none;paint-order:stroke markers fill"
         d="m 11.212891,21.988281 c -9.8897322,0.576101 -19.6288441,4.94783 -26.748047,12.871094 -14.238843,15.847008 -13.088924,40.528955 2.738281,54.75 C 3.0305957,103.83065 27.694828,102.34303 41.933594,86.496094 46.0862,81.874481 54.46773,74.179268 59.523437,68.988281 64.167075,64.221351 63.895918,56.253271 58.939453,51.8125 58.019337,50.988193 54.083781,46.925545 50.320312,42.960937 46.550769,38.98993 42.609738,34.815773 39.193359,31.746094 31.280049,24.635834 21.101684,21.412234 11.212891,21.988281 Z m 1.371093,23.730469 c 3.817688,-0.223625 7.611622,0.971234 10.69336,3.740234 2.023429,1.81809 6.040392,5.96403 9.771484,9.894532 0.428977,0.451903 0.686586,0.692653 1.089844,1.113281 C 30.74695,63.757577 27.23653,67.221463 24.21875,70.580078 18.491997,76.953627 9.2835199,77.43334 3.1191406,71.894531 -3.0448103,66.356104 -3.5495769,57.149557 2.1777344,50.775391 5.0412801,47.588428 8.7667718,45.942346 12.583984,45.71875 Z"
         id="path8385" />
      <path
         style="color:#000000;fill:#ff0000;stroke-width:1.00013;stroke-linecap:round;stroke-linejoin:round;stroke-dasharray:none;paint-order:stroke markers fill"
         d="M 11.712891,30.572266 C 3.9997177,31.021577 -3.566376,34.405777 -9.1386719,40.607422 -20.283264,53.010708 -19.369626,72.14242 -7.0488281,83.212891 5.2719635,94.283351 24.39252,93.151338 35.537109,80.748047 40.293633,75.454309 48.706141,67.770036 53.363281,62.988281 A 3.3076208,3.3076208 0 0 0 53.201172,58.216797 C 51.486462,56.680635 47.846625,52.844595 44.083984,48.880859 40.321343,44.917123 36.382736,40.781908 33.445312,38.142578 27.284915,32.607344 19.426064,30.122954 11.712891,30.572266 Z m 0.36914,6.5625 c 6.009302,-0.352001 12.125662,1.598941 16.94336,5.927734 2.551624,2.292683 6.50788,6.418688 10.259765,10.371094 2.777775,2.926233 4.937745,5.108563 7.035156,7.189453 C 41.722309,65.154162 35.129223,71.304315 30.615234,76.328125 21.836448,86.098412 7.0064862,86.948595 -2.6289063,78.291016 -12.264306,69.633426 -12.997537,54.797626 -4.21875,45.027344 0.17064418,40.1422 6.0727292,37.486766 12.082031,37.134766 Z"
         id="path8387" />
    </g>
    <g
       id="path8375"
       style="opacity:1;stroke-width:1.00013;stroke-dasharray:none"
       transform="translate(103.79272,-245.52064)">
      <path
         style="color:#000000;fill:#ff0000;stroke-width:1.00013;stroke-linecap:round;stroke-linejoin:round;stroke-dasharray:none;paint-order:stroke markers fill"
         d="m 89.638672,21.988281 c -9.888794,-0.576047 -20.067159,2.647553 -27.980469,9.757813 -3.416375,3.069678 -7.357409,7.243835 -11.126953,11.214843 -3.763469,3.964608 -7.699026,8.027258 -8.619141,8.851563 -4.956465,4.44077 -5.22762,12.40885 -0.583984,17.175781 5.056545,5.191847 13.439972,12.88707 17.591797,17.507813 14.238433,15.846556 38.901381,17.334256 54.728518,3.113281 15.8272,-14.221044 16.97713,-38.902993 2.73828,-54.75 C 109.26752,26.936107 99.528403,22.564382 89.638672,21.988281 Z M 88.267578,45.71875 c 3.817213,0.223597 7.542711,1.869683 10.40625,5.056641 5.727312,6.374166 5.222542,15.580713 -0.941406,21.11914 -6.164381,5.53881 -15.372857,5.059096 -21.09961,-1.314453 -3.017779,-3.358615 -6.5282,-6.822501 -9.919921,-10.113281 0.403258,-0.420628 0.660866,-0.661378 1.089843,-1.113281 3.731092,-3.930502 7.748056,-8.076443 9.771485,-9.894532 3.081738,-2.769 6.875671,-3.963859 10.693359,-3.740234 z"
         id="path8379" />
      <path
         style="color:#000000;fill:#ff0000;stroke-width:1.00013;stroke-linecap:round;stroke-linejoin:round;stroke-dasharray:none;paint-order:stroke markers fill"
         d="m 89.138672,30.572266 c -7.713173,-0.449312 -15.572025,2.035078 -21.732422,7.570312 -2.937423,2.63933 -6.876031,6.774545 -10.638672,10.738281 -3.762641,3.963736 -7.402477,7.799776 -9.117187,9.335938 a 3.3076208,3.3076208 0 0 0 -0.16211,4.771484 c 4.657141,4.781755 13.071601,12.466028 17.828125,17.759766 11.14459,12.403291 30.263193,13.535304 42.583984,2.464844 12.3208,-11.070471 13.23444,-30.202183 2.08984,-42.605469 -5.57229,-6.201645 -13.138385,-9.585845 -20.851558,-10.035156 z m -0.369141,6.5625 c 6.009302,0.352 11.911389,3.007434 16.300779,7.892578 8.77879,9.770282 8.04556,24.606082 -1.58984,33.263672 -9.635394,8.657579 -24.465356,7.807396 -33.244142,-1.962891 -4.513989,-5.02381 -11.107075,-11.173963 -15.705078,-15.705078 2.097411,-2.08089 4.257382,-4.26322 7.035156,-7.189453 3.751885,-3.952406 7.708141,-8.078411 10.259766,-10.371094 4.817698,-4.328793 10.934057,-6.279735 16.943359,-5.927734 z"
         id="path8381" />
    </g>
    <path
       id="path6760"
       style="color:#000000;opacity:1;fill:#ffffff;stroke-linecap:round;stroke-linejoin:round;paint-order:stroke markers fill"
       d="m 212.71497,-206.04306 c -5.45089,-5.48342 -12.55244,-8.48412 -19.78352,-8.90534 -7.71316,-0.44931 -15.57223,2.03492 -21.73262,7.57014 -2.93742,2.63933 -6.87584,6.77488 -10.63847,10.7386 -0.22833,0.24053 -0.44032,0.4626 -0.66724,0.70158 l 4.58039,4.77625 c 0.29645,-0.31005 0.5742,-0.59777 0.88538,-0.92558 3.75188,-3.9524 7.70829,-8.07832 10.25991,-10.371 4.51659,-4.05823 10.17447,-6.02622 15.81557,-5.96637 0.37608,0.004 0.7528,0.0167 1.12838,0.0387 6.00929,0.352 11.91072,3.00767 16.3001,7.8928 8.77877,9.77026 8.04549,24.60584 -1.58989,33.26342 -9.63538,8.65756 -24.46491,7.80766 -33.24368,-1.96261 -4.51398,-5.02379 -11.10759,-11.17374 -15.70558,-15.70485 0.12971,-0.12869 0.27309,-0.27598 0.40341,-0.4056 l -5.2436,-4.8855 0.0172,-0.57551 c -1.67026,-1.71797 -3.60211,-3.74617 -5.62399,-5.87612 -3.76264,-3.96373 -7.70106,-8.09928 -10.63848,-10.7386 -5.77536,-5.18927 -13.04383,-7.69649 -20.28524,-7.61948 -0.48276,0.005 -0.96494,0.0216 -1.44701,0.0497 -7.71316,0.44931 -15.2797,3.83355 -20.851983,10.03518 -11.144571,12.40327 -10.230637,31.53534 2.090135,42.60579 12.320768,11.07044 31.441488,9.93823 42.586058,-2.46504 2.38122,-2.65016 5.66537,-5.88252 8.94116,-9.06028 l -4.538,-4.85882 c -3.28,3.18998 -6.65666,6.5292 -9.3252,9.49913 -8.77877,9.77027 -23.60904,10.62017 -33.24442,1.96261 -9.63537,-8.65758 -10.368657,-23.49315 -1.589885,-33.26342 4.389385,-4.88513 10.291545,-7.5408 16.300835,-7.8928 0.37558,-0.022 0.75157,-0.0347 1.12764,-0.0387 5.64111,-0.0599 11.29936,1.9085 15.81594,5.96674 2.55162,2.29268 6.50767,6.41823 10.25955,10.37063 2.77777,2.92623 4.93778,5.10924 7.03519,7.19013 -0.0114,0.0113 -0.0258,0.0252 -0.0373,0.0365 l 4.46345,5.37258 -0.005,0.18965 c 4.68681,4.58037 10.77548,10.29743 14.57465,14.52568 11.14457,12.40327 30.26311,13.53549 42.58386,2.46504 12.32078,-11.07044 13.23433,-30.20216 2.08976,-42.60542 -0.34826,-0.38761 -0.70432,-0.76428 -1.06772,-1.12984 z" />
    <path
       style="opacity:0.506329;fill:#000000;stroke:none;stroke-width:0.264583px;stroke-linecap:butt;stroke-linejoin:miter;stroke-opacity:1"
       d="m 147.21764,-160.48322 -15.6049,-18.17355 6.63167,-7.18173 15.409,18.35138 z"
       id="path9907"
       sodipodi:nodetypes="ccccc" />
    <path
       style="opacity:0.506329;fill:#000000;stroke:none;stroke-width:0.264583px;stroke-linecap:butt;stroke-linejoin:miter;stroke-opacity:1"
       d="m 170.71082,-184.39925 -16.4638,-17.39924 6.27735,-7.49342 16.27671,17.58633 z"
       id="path12813"
       sodipodi:nodetypes="ccccc" />
  </g>
</svg>
