<?xml version="1.0" encoding="UTF-8" standalone="no"?>
<!-- Created with Inkscape (http://www.inkscape.org/) -->

<svg
   width="210mm"
   height="297mm"
   viewBox="0 0 210 297"
   version="1.1"
   id="svg5"
   inkscape:version="1.2 (dc2aedaf03, 2022-05-15)"
   sodipodi:docname="Inner Shadow Effect.svg"
   xmlns:inkscape="http://www.inkscape.org/namespaces/inkscape"
   xmlns:sodipodi="http://sodipodi.sourceforge.net/DTD/sodipodi-0.dtd"
   xmlns="http://www.w3.org/2000/svg"
   xmlns:svg="http://www.w3.org/2000/svg">
  <sodipodi:namedview
     id="namedview7"
     pagecolor="#ffffff"
     bordercolor="#999999"
     borderopacity="1"
     inkscape:showpageshadow="0"
     inkscape:pageopacity="0"
     inkscape:pagecheckerboard="0"
     inkscape:deskcolor="#ffffff"
     inkscape:document-units="px"
     showgrid="false"
     showborder="false"
     inkscape:zoom="1"
     inkscape:cx="272"
     inkscape:cy="543.5"
     inkscape:window-width="1920"
     inkscape:window-height="1001"
     inkscape:window-x="-9"
     inkscape:window-y="-9"
     inkscape:window-maximized="1"
     inkscape:current-layer="layer1" />
  <defs
     id="defs2">
    <clipPath
       clipPathUnits="userSpaceOnUse"
       id="clipPath20827">
      <path
         d="m 95.666579,143.92043 8.358701,17.91151 q 1.19411,2.47666 1.99017,3.27272 0.79607,0.75185 2.43243,1.0172 3.18427,0.48649 3.18427,3.2285 0,3.22849 -3.89189,4.64372 -3.89188,1.41523 -12.737071,1.41523 -9.995069,0 -14.815698,-0.84029 -2.211298,-0.39803 -3.538077,-1.59214 -1.282552,-1.23832 -1.282552,-2.96314 0,-1.32678 0.663387,-2.03439 0.707615,-0.75184 2.565106,-1.371 2.07862,-0.70762 2.07862,-2.38821 0,-2.96314 -3.582303,-3.49385 -3.847658,-0.53071 -10.835359,-0.53071 -5.882053,0 -7.031929,0.70761 -0.707615,0.44227 -1.238327,1.59214 -0.530712,1.14987 -0.530712,2.2113 0,0.97297 0.353809,1.28255 0.398034,0.26536 2.476653,0.92874 2.697785,0.79607 2.697785,3.18428 0,5.26289 -12.604401,5.26289 -7.164605,0 -10.525776,-0.97297 -3.095818,-0.92875 -3.095818,-4.06879 0,-1.37101 0.663387,-2.12285 0.707618,-0.75184 2.476656,-1.371 2.874687,-1.0172 4.334142,-2.83047 1.503683,-1.85748 4.245695,-7.87221 l 6.235859,-13.66583 q 3.449624,-7.51842 4.599501,-11.2334 1.194101,-3.7592 1.238326,-7.34151 0.04422,-3.80343 0.442259,-5.26289 0.442262,-1.50367 1.901717,-2.91891 3.051593,-3.09582 7.783769,-3.09582 4.466823,0 8.535612,3.49385 5.660924,4.77641 16.452059,27.81814 z m -30.781271,5.57246 h 8.668287 q 2.388204,0 2.388204,-1.06142 0,-1.45946 -3.316947,-7.1646 -1.503685,-2.60933 -2.29975,-3.49385 -0.796068,-0.88452 -1.680588,-0.88452 -1.592133,0 -2.653557,2.96314 -0.176903,0.39803 -1.282554,3.14004 -1.857489,4.51105 -1.857489,5.39557 0,1.10564 2.034394,1.10564 z"
         id="path20829"
         style="font-size:99.3765px;line-height:1.25;font-family:'Cooper Black';-inkscape-font-specification:'Cooper Black, Normal';opacity:0.400844;fill:#ff0000;fill-opacity:1;stroke-width:2.26437" />
    </clipPath>
    <filter
       inkscape:collect="always"
       style="color-interpolation-filters:sRGB"
       id="filter20831"
       x="-0.043987858"
       y="-0.053851321"
       width="1.0879757"
       height="1.1077026">
      <feGaussianBlur
         inkscape:collect="always"
         stdDeviation="1.5998403"
         id="feGaussianBlur20833" />
    </filter>
  </defs>
  <g
     inkscape:label="Layer 1"
     inkscape:groupmode="layer"
     id="layer1">
    <g
       id="g295"
       transform="translate(5.2430454,-3.9531727)">
      <path
         d="m 96.414933,142.98499 8.358697,17.91151 q 1.19411,2.47666 1.99017,3.27272 0.79607,0.75185 2.43243,1.0172 3.18427,0.48649 3.18427,3.2285 0,3.22849 -3.89189,4.64372 -3.89188,1.41523 -12.737067,1.41523 -9.995068,0 -14.815697,-0.84029 -2.211299,-0.39803 -3.538077,-1.59214 -1.282553,-1.23832 -1.282553,-2.96314 0,-1.32678 0.663389,-2.03439 0.707615,-0.75184 2.565106,-1.371 2.07862,-0.70762 2.07862,-2.38821 0,-2.96314 -3.582303,-3.49385 -3.847659,-0.53071 -10.835361,-0.53071 -5.882052,0 -7.031927,0.70761 -0.707616,0.44227 -1.238327,1.59214 -0.530712,1.14987 -0.530712,2.2113 0,0.97297 0.353808,1.28255 0.398033,0.26536 2.476653,0.92874 2.697784,0.79607 2.697784,3.18428 0,5.26289 -12.604399,5.26289 -7.164606,0 -10.525778,-0.97297 -3.095818,-0.92875 -3.095818,-4.06879 0,-1.37101 0.663389,-2.12285 0.707616,-0.75184 2.476654,-1.371 2.874688,-1.0172 4.334144,-2.83047 1.503683,-1.85748 4.245693,-7.87221 l 6.23586,-13.66583 q 3.449625,-7.51842 4.5995,-11.2334 1.194102,-3.7592 1.238327,-7.34151 0.04422,-3.80343 0.44226,-5.26289 0.44226,-1.50367 1.901716,-2.91891 3.051592,-3.09582 7.78377,-3.09582 4.466822,0 8.535611,3.49385 5.660923,4.77641 16.452058,27.81814 z m -30.78127,5.57246 h 8.668288 q 2.388202,0 2.388202,-1.06142 0,-1.45946 -3.316947,-7.1646 -1.503683,-2.60933 -2.29975,-3.49385 -0.796067,-0.88452 -1.680587,-0.88452 -1.592134,0 -2.653557,2.96314 -0.176904,0.39803 -1.282554,3.14004 -1.857489,4.51105 -1.857489,5.39557 0,1.10564 2.034394,1.10564 z"
         id="path3281"
         style="font-size:99.3765px;line-height:1.25;font-family:'Cooper Black';-inkscape-font-specification:'Cooper Black, Normal';opacity:1;fill:#bdbdbd;fill-opacity:1;stroke-width:2.26437" />
      <path
         id="rect6345"
         style="opacity:0.320675;fill:#000000;fill-opacity:1;stroke:#000000;stroke-width:0.2;stroke-linecap:square;paint-order:stroke markers fill;filter:url(#filter20831)"
         d="m 29.414143,107.43023 v 73.15729 H 118.9756 v -73.15729 z m 41.264665,5.17798 c 2.977878,0 5.82339,1.16461 8.535913,3.49384 3.773945,3.18427 9.257626,12.45732 16.451709,27.81846 l 8.35866,17.91157 c 0.79607,1.6511 1.45987,2.74196 1.99058,3.27267 0.53071,0.50123 1.3415,0.84009 2.43241,1.01699 2.12284,0.32433 3.1843,1.40074 3.1843,3.22874 0,2.15233 -1.29768,3.70016 -3.89227,4.64365 -2.59459,0.94348 -6.83991,1.41542 -12.736689,1.41542 -6.663372,0 -11.6024,-0.28059 -14.81615,-0.84078 -1.474197,-0.26535 -2.65325,-0.79556 -3.537768,-1.59163 -0.855035,-0.82555 -1.282609,-1.81377 -1.282609,-2.96365 0,-0.88452 0.221266,-1.56224 0.663525,-2.03398 0.471743,-0.50123 1.326375,-0.95821 2.564702,-1.37098 1.385745,-0.47174 2.078942,-1.26809 2.078942,-2.38848 0,-1.97543 -1.19401,-3.14004 -3.58221,-3.49385 -2.565103,-0.3538 -6.177051,-0.53071 -10.835514,-0.53071 -3.921364,0 -6.265547,0.23571 -7.032129,0.70745 -0.471744,0.29484 -0.88436,0.82557 -1.238167,1.59215 -0.353808,0.76658 -0.530717,1.50413 -0.530717,2.21175 0,0.64865 0.118111,1.07571 0.353983,1.28209 0.265355,0.17691 1.09059,0.48689 2.476335,0.92914 1.798521,0.53072 2.698026,1.59217 2.698026,3.18431 0,3.50859 -4.201474,5.26272 -12.604398,5.26272 -4.7764,0 -8.285194,-0.32442 -10.525973,-0.97306 -2.063876,-0.61917 -3.095935,-1.97513 -3.095935,-4.06849 0,-0.914 0.221267,-1.62164 0.663526,-2.12287 0.471743,-0.50122 1.297493,-0.9582 2.476851,-1.37097 1.916457,-0.67814 3.361133,-1.62199 4.334102,-2.83084 1.002455,-1.23832 2.417731,-3.86205 4.245736,-7.87187 l 6.235795,-13.66583 c 2.299748,-5.01228 3.83262,-8.75677 4.599203,-11.23342 0.796067,-2.50613 1.2092,-4.95347 1.238684,-7.34167 0.02948,-2.53562 0.17699,-4.28976 0.44235,-5.26273 0.29484,-1.00245 0.928723,-1.97571 1.901693,-2.9192 2.034392,-2.06388 4.628722,-3.09594 7.783504,-3.09594 z m -2.034501,24.28017 c -1.061422,0 -1.94597,0.9877 -2.653585,2.96313 -0.117936,0.26535 -0.544993,1.31237 -1.282092,3.14038 -1.238325,3.00736 -1.857768,4.80585 -1.857768,5.39553 0,0.73709 0.67824,1.10536 2.034501,1.10536 h 8.668205 c 1.592133,0 2.388485,-0.35382 2.388485,-1.06143 0,-0.97298 -1.105815,-3.361 -3.317111,-7.16442 -1.002454,-1.73956 -1.76889,-2.90417 -2.299601,-3.49385 -0.530711,-0.58968 -1.091355,-0.8847 -1.681034,-0.8847 z"
         clip-path="url(#clipPath20827)" />
    </g>
  </g>
</svg>
