<?xml version="1.0" encoding="UTF-8" standalone="no"?>
<!-- Created with Inkscape (http://www.inkscape.org/) -->

<svg
   width="210mm"
   height="297mm"
   viewBox="0 0 210 297"
   version="1.1"
   id="svg5"
   inkscape:version="1.2 (dc2aedaf03, 2022-05-15)"
   sodipodi:docname="Logo Design.svg"
   xmlns:inkscape="http://www.inkscape.org/namespaces/inkscape"
   xmlns:sodipodi="http://sodipodi.sourceforge.net/DTD/sodipodi-0.dtd"
   xmlns="http://www.w3.org/2000/svg"
   xmlns:svg="http://www.w3.org/2000/svg">
  <sodipodi:namedview
     id="namedview7"
     pagecolor="#ffffff"
     bordercolor="#999999"
     borderopacity="1"
     inkscape:showpageshadow="0"
     inkscape:pageopacity="0"
     inkscape:pagecheckerboard="0"
     inkscape:deskcolor="#ffffff"
     inkscape:document-units="px"
     showgrid="false"
     showborder="false"
     showguides="true"
     inkscape:zoom="0.70710678"
     inkscape:cx="322.44069"
     inkscape:cy="511.2382"
     inkscape:window-width="1920"
     inkscape:window-height="1001"
     inkscape:window-x="-9"
     inkscape:window-y="-9"
     inkscape:window-maximized="1"
     inkscape:current-layer="layer1" />
  <defs
     id="defs2" />
  <g
     inkscape:label="Layer 1"
     inkscape:groupmode="layer"
     id="layer1">
    <path
       style="color:#000000;fill:#000000;stroke-linecap:round;stroke-linejoin:round;-inkscape-stroke:none;paint-order:stroke markers fill"
       d="m 32.455078,61.402344 a 0.79387999,0.79387999 0 0 0 -0.519531,0.316406 0.79387999,0.79387999 0 0 0 0.169922,1.109375 c 20.229848,14.859864 34.680241,36.27602 40.886718,60.597655 a 0.79387999,0.79387999 0 0 0 0.964844,0.57227 0.79387999,0.79387999 0 0 0 0.574219,-0.96485 C 68.233998,98.355846 53.570647,76.626028 33.044922,61.548828 a 0.79387999,0.79387999 0 0 0 -0.589844,-0.146484 z"
       id="path33050"
       transform="matrix(-0.86497236,0.5018195,0.5018195,0.86497236,0,0)" />
    <path
       style="color:#000000;fill:#000000;stroke-linecap:round;stroke-linejoin:round;-inkscape-stroke:none;paint-order:stroke markers fill"
       d="m -140.73047,162.03906 a 0.79387999,0.79387999 0 0 0 -0.69726,0.87891 c 2.92215,25.20575 14.46513,48.62842 32.67382,66.30078 a 0.79387999,0.79387999 0 0 0 1.12305,-0.0176 0.79387999,0.79387999 0 0 0 -0.0176,-1.12109 c -17.94621,-17.41762 -29.32114,-40.50134 -32.20117,-65.34375 a 0.79387999,0.79387999 0 0 0 -0.88086,-0.69727 z"
       id="path33046"
       transform="matrix(-0.86497236,0.5018195,0.5018195,0.86497236,0,0)" />
    <g
       id="g29911"
       transform="matrix(0.79770199,0,0,0.79770199,28.033945,-10.087812)"
       style="stroke-width:1.25361">
      <path
         id="rect6599"
         style="color:#000000;fill:#000000;stroke-width:1.25361;stroke-linecap:round;stroke-linejoin:round;paint-order:stroke markers fill"
         d="m 47.788814,95.210726 a 1.9845734,1.9845734 0 0 0 -1.984375,1.984375 V 108.35566 H -7.4083334 a 1.9845684,1.9845684 0 0 0 -1.9001424,2.5585 l 9.88053391,32.67966 -9.88053391,32.67966 a 1.9845684,1.9845684 0 0 0 1.9001424,2.5585 H 45.804439 v 11.16004 a 1.9845734,1.9845734 0 0 0 0.793234,1.58802 l 46.398201,34.79684 a 1.9845734,1.9845734 0 0 0 2.38125,0 l 46.398206,-34.79684 a 1.9845734,1.9845734 0 0 0 0.79478,-1.58802 v -11.16056 h 53.21226 a 1.9845684,1.9845684 0 0 0 1.89859,-2.5585 l -9.87899,-32.67966 9.87899,-32.67966 a 1.9845684,1.9845684 0 0 0 -1.89859,-2.5585 H 142.57011 V 97.195101 a 1.9845734,1.9845734 0 0 0 -1.98438,-1.984375 z m 1.984375,3.96875 h 88.828171 v 11.155904 a 1.9845684,1.9845684 0 0 0 -5.2e-4,0.004 v 66.50757 a 1.9845684,1.9845684 0 0 0 5.2e-4,0.004 v 12.14861 L 119.67435,203.19535 94.187016,184.07972 68.7002,203.19483 49.773189,188.99983 V 176.8476 110.34004 Z m 6.078699,3.935164 a 1.9845734,1.9845734 0 0 0 -0.344682,0.001 1.9845734,1.9845734 0 0 0 -1.226281,0.57309 1.9845734,1.9845734 0 0 0 -0.514698,1.90996 l 6.357235,24.05383 a 1.984375,1.984375 0 0 0 0.942061,1.22008 1.9845734,1.9845734 0 0 0 0.321428,0.42478 l 12.296407,12.29693 -19.4014,19.4014 a 1.9845734,1.9845734 0 0 0 -0.355017,2.3244 l 4.057634,7.73958 a 1.9845734,1.9845734 0 0 0 0.03256,0.0532 1.9845734,1.9845734 0 0 0 0.02377,0.0393 1.9845734,1.9845734 0 0 0 0.283187,0.37001 1.9845734,1.9845734 0 0 0 0.0155,0.0191 l 5.898348,5.89834 a 1.9845734,1.9845734 0 0 0 0.02791,0.0212 1.9845734,1.9845734 0 0 0 0.197921,0.15193 1.9845734,1.9845734 0 0 0 0.221692,0.15761 1.9845734,1.9845734 0 0 0 0.03462,0.0248 l 7.739062,4.05711 a 1.9845734,1.9845734 0 0 0 2.325956,-0.35295 l 19.401917,-19.40191 19.401402,19.40191 a 1.9845734,1.9845734 0 0 0 2.32595,0.35295 l 7.73958,-4.05711 a 1.9845734,1.9845734 0 0 0 0.0341,-0.0248 1.9845734,1.9845734 0 0 0 0.22221,-0.15761 1.9845734,1.9845734 0 0 0 0.1974,-0.15193 1.9845734,1.9845734 0 0 0 0.0279,-0.0212 l 5.89834,-5.89834 a 1.9845734,1.9845734 0 0 0 0.0155,-0.0191 1.9845734,1.9845734 0 0 0 0.2837,-0.37001 1.9845734,1.9845734 0 0 0 0.0238,-0.0393 1.9845734,1.9845734 0 0 0 0.0326,-0.0532 l 4.05711,-7.73958 a 1.9845734,1.9845734 0 0 0 -0.3545,-2.3244 l -19.40191,-19.4014 12.29692,-12.29693 a 1.9845734,1.9845734 0 0 0 0.32091,-0.42478 1.984375,1.984375 0 0 0 0.94258,-1.22008 l 6.35672,-24.05383 a 1.9845734,1.9845734 0 0 0 -0.5147,-1.90996 1.9845734,1.9845734 0 0 0 -1.22576,-0.57309 1.9845734,1.9845734 0 0 0 -0.68472,0.0579 l -24.05331,6.35723 a 1.984375,1.984375 0 0 0 -1.2175,0.94 1.9845734,1.9845734 0 0 0 -0.42788,0.32349 L 94.187016,123.09068 81.890092,110.79427 a 1.9845734,1.9845734 0 0 0 -0.427881,-0.32349 1.984375,1.984375 0 0 0 -1.21698,-0.94 l -24.053829,-6.35723 a 1.9845734,1.9845734 0 0 0 -0.339514,-0.0589 z m 2.622062,4.76715 19.353858,5.11493 -3.01532,5.75365 -5.469434,5.46944 -5.754687,3.01532 z m 71.42561,0 -5.11441,19.35334 -5.75417,-3.01532 -5.46995,-5.46944 -3.01532,-5.75365 z m 12.67055,4.4421 h 50.53852 l -2.05569,6.79907 h -48.48283 z m -147.306255,5.2e-4 h 50.540584 v 6.79855 H -2.6804566 Z m 85.728618,3.18482 49.261077,49.26107 -2.127,4.05764 -49.261079,-49.26108 z m 26.389087,0 2.127,4.05763 -9.42268,9.42268 -3.092317,-3.09231 z m -30.951083,7.23573 49.394403,49.39389 -3.09232,3.0918 -49.393884,-49.39389 z m 35.512563,0 3.09232,3.0918 -9.05113,9.05113 -3.09232,-3.0918 z M -1.4805298,123.09171 H 45.804439 v 41.0037 H -1.4805298 l 6.025472,-19.92747 a 1.9845684,1.9845684 0 0 0 0,-1.14825 z m 144.0506398,0 h 47.28342 l -6.02444,19.92747 a 1.9845684,1.9845684 0 0 0 0,1.14825 l 6.02444,19.92798 h -47.28342 z m -72.409534,5.18005 49.261594,49.26107 -4.05919,2.12804 -49.261071,-49.26108 z m 48.052364,0 4.05918,2.12803 -10.38799,10.388 -3.09387,-3.09335 z m -41.723035,18.12861 3.092318,3.09231 -19.335254,19.33526 -2.127002,-4.05764 z m 5.898865,5.89886 3.091801,3.09232 -19.839099,19.8391 -3.092318,-3.0918 z m 5.898348,5.89835 3.093351,3.09335 -18.369938,18.36994 -4.058667,-2.12804 z m -90.9675746,9.86658 H 45.804439 v 6.79907 H -4.736145 Z m 145.2505666,0 h 48.48335 l 2.05517,6.79855 h -50.53852 z m -48.317465,27.00145 2.136304,7.21248 7.300331,0.38551 -5.979482,3.95738 2.243791,7.18354 -5.831685,-4.76663 -5.913851,4.05401 2.375049,-6.90293 -5.898348,-4.67827 7.299296,0.50023 z" />
      <g
         id="g29765"
         transform="matrix(-1,0,0,1,190.35864,-12.680009)"
         style="stroke-width:1.25361">
        <text
           xml:space="preserve"
           style="font-style:normal;font-variant:normal;font-weight:bold;font-stretch:normal;font-size:32.4294px;line-height:1.25;font-family:'Malgun Gothic';-inkscape-font-specification:'Malgun Gothic, Bold';font-variant-ligatures:normal;font-variant-caps:normal;font-variant-numeric:normal;font-variant-east-asian:normal;fill:#000000;fill-opacity:1;stroke:none;stroke-width:0.331679"
           x="-183.93219"
           y="167.92007"
           id="text29825"
           transform="scale(-1,1)"><tspan
             sodipodi:role="line"
             id="tspan29823"
             style="font-style:normal;font-variant:normal;font-weight:bold;font-stretch:normal;font-size:32.4294px;font-family:'Malgun Gothic';-inkscape-font-specification:'Malgun Gothic, Bold';font-variant-ligatures:normal;font-variant-caps:normal;font-variant-numeric:normal;font-variant-east-asian:normal;stroke-width:0.331679"
             x="-183.93219"
             y="167.92007">20</tspan></text>
        <text
           xml:space="preserve"
           style="font-style:normal;font-variant:normal;font-weight:normal;font-stretch:normal;font-size:32.4294px;line-height:1.25;font-family:'Malgun Gothic';-inkscape-font-specification:'Malgun Gothic, Normal';font-variant-ligatures:normal;font-variant-caps:normal;font-variant-numeric:normal;font-variant-east-asian:normal;fill:#000000;fill-opacity:1;stroke:none;stroke-width:0.331679"
           x="-44.761356"
           y="167.92007"
           id="text29829"
           transform="scale(-1,1)"><tspan
             sodipodi:role="line"
             id="tspan29827"
             style="font-style:normal;font-variant:normal;font-weight:bold;font-stretch:normal;font-size:32.4294px;font-family:'Malgun Gothic';-inkscape-font-specification:'Malgun Gothic, Bold';font-variant-ligatures:normal;font-variant-caps:normal;font-variant-numeric:normal;font-variant-east-asian:normal;stroke-width:0.331679"
             x="-44.761356"
             y="167.92007">22</tspan></text>
      </g>
    </g>
    <g
       aria-label="LOGO DESIGN"
       id="text30021"
       style="font-weight:bold;font-size:19.5253px;line-height:1.25;-inkscape-font-specification:'sans-serif, Bold';letter-spacing:4.37621px;stroke-width:0.264583">
      <path
         d="m 29.235575,43.198917 -6.408184,7.986194 -11.072107,-8.884344 2.291194,-2.855399 8.930558,7.165948 4.11699,-5.130795 z"
         id="path30034" />
      <path
         d="m 39.713625,24.068433 q 2.198408,2.585836 2.01345,5.370951 -0.191133,2.777852 -2.806024,5.000961 -2.607627,2.216934 -5.380037,1.958607 -2.778585,-0.265591 -4.976993,-2.851428 -2.216934,-2.607627 -2.019626,-5.378215 0.191133,-2.777851 2.79876,-4.994785 2.600364,-2.210759 5.380038,-1.958607 2.773498,0.244889 4.990432,2.852516 z m -1.369076,5.881601 q -0.01316,-0.83974 -0.385171,-1.674724 -0.378186,-0.842246 -1.150099,-1.750194 -0.827491,-0.973321 -1.633141,-1.464664 -0.805649,-0.491342 -1.526996,-0.603865 -0.740961,-0.120875 -1.394355,0.09675 -0.64613,0.211453 -1.169108,0.656075 -0.530242,0.450797 -0.841817,1.041045 -0.304311,0.584073 -0.326027,1.353354 -0.01736,0.715526 0.361558,1.632231 0.380009,0.903266 1.182798,1.847532 0.821316,0.966057 1.619702,1.463575 0.799474,0.484079 1.526997,0.603865 0.727522,0.119787 1.387091,-0.09058 0.659568,-0.210365 1.197074,-0.667338 0.537505,-0.456972 0.851257,-1.074098 0.307576,-0.624389 0.300237,-1.36897 z"
         id="path30036" />
      <path
         d="m 60.979768,18.814343 q -0.661267,0.780971 -1.867451,1.857057 -1.210725,1.067702 -2.585594,1.812297 -3.185672,1.72528 -5.923376,0.974456 -2.742244,-0.759208 -4.394881,-3.810747 -1.575453,-2.909022 -0.718791,-5.671518 0.852121,-2.770879 4.104861,-4.5324808 1.232352,-0.6674111 2.469923,-1.0449089 1.233031,-0.385881 2.958193,-0.463651 l 1.584534,2.9257887 -0.360484,0.195229 q -0.330078,-0.04892 -0.955307,-0.12232 -0.629769,-0.08178 -1.171522,-0.08112 -0.631521,-0.0049 -1.389847,0.156384 -0.749943,0.15678 -1.479294,0.551778 -0.855102,0.463102 -1.414713,1.09144 -0.559612,0.628338 -0.83142,1.447759 -0.255738,0.789035 -0.143682,1.736674 0.115899,0.934716 0.665264,1.949101 1.121433,2.070687 2.814419,2.574138 1.692986,0.503451 3.839124,-0.658843 0.184433,-0.09989 0.39786,-0.226314 0.22181,-0.130969 0.397164,-0.24762 l -1.325742,-2.447938 -2.489855,1.348443 -1.275799,-2.355721 5.75936,-3.119126 z"
         id="path30038" />
      <path
         d="m 79.673081,5.8432967 q 0.969078,3.2527583 -0.323215,5.7268343 -1.295015,2.46494 -4.584321,3.444906 -3.280169,0.977245 -5.713035,-0.377066 -2.435587,-1.363447 -3.404665,-4.616206 -0.977245,-3.2801687 0.320493,-5.7359712 1.295015,-2.4649394 4.575184,-3.44218385 3.271032,-0.97452237 5.713034,0.37706605 2.43928,1.3424515 3.416525,4.6226207 z M 76.04861,10.673495 Q 76.375175,9.8997425 76.371437,8.9856445 76.364977,8.0624096 76.024711,6.9202894 75.659946,5.6959365 75.12082,4.9214482 74.581694,4.1469598 73.966962,3.7531225 73.337649,3.3437334 72.651976,3.2794181 71.975439,3.2123807 71.317577,3.408374 q -0.666998,0.1987155 -1.190125,0.6132149 -0.51399,0.4117773 -0.844058,1.10699 -0.304409,0.6477763 -0.327301,1.6394436 -0.01648,0.9798083 0.3374,2.1676133 0.362043,1.2152162 0.892032,1.9924262 0.536404,0.765352 1.153857,1.168326 0.617454,0.402974 1.30585,0.476426 0.688396,0.07345 1.364531,-0.127985 0.676136,-0.201438 1.212092,-0.639655 0.533235,-0.447355 0.826755,-1.131679 z"
         id="path30040" />
      <path
         d="m 113.43358,3.7294077 q -0.0569,1.982221 -1.00742,3.5286562 -0.95023,1.5369053 -2.35615,2.3358535 -1.05682,0.5991426 -2.30283,0.8113416 -1.246,0.212199 -2.94232,0.163484 l -5.003206,-0.143682 0.407506,-14.1900341 5.14616,0.1477877 q 1.73444,0.04981 2.9839,0.381363 1.24974,0.3220232 2.09211,0.8803293 1.44188,0.9379583 2.23672,2.48682756 0.80464,1.53961304 0.74553,3.59807324 z m -3.78255,-0.137241 q 0.0402,-1.4008966 -0.44592,-2.4067858 -0.47635,-1.01514551 -1.56567,-1.6091571 -0.55433,-0.29251453 -1.14245,-0.40478183 -0.57831,-0.12152353 -1.76002,-0.15545998 l -0.9244,-0.0265471 -0.25507,8.8818747 0.9244,0.026547 q 1.30559,0.037494 1.91879,-0.059349 0.61347,-0.1063732 1.20383,-0.4041656 1.01706,-0.543058 1.5114,-1.4826385 0.4946,-0.9491104 0.53511,-2.3595368 z"
         id="path30042" />
      <path
         d="m 130.3597,14.177871 -10.01692,-2.256508 3.11972,-13.8488428 10.01692,2.25650821 -0.60341,2.67862109 -6.46403,-1.4561497 -0.53846,2.3902973 5.99899,1.3513907 -0.60341,2.6786211 -5.99899,-1.3513907 -0.77103,3.4226828 6.46403,1.456149 z"
         id="path30044" />
      <path
         d="m 149.65851,16.856638 q -0.82354,1.929003 -2.97978,2.439003 -2.14372,0.504976 -4.94954,-0.692903 -1.62212,-0.692523 -2.71234,-1.489691 -1.07771,-0.802192 -1.94273,-1.689806 l 1.33638,-3.130245 0.36827,0.157221 q 0.68779,1.27844 1.78581,2.275893 1.10678,1.001197 2.29925,1.510295 0.30689,0.131018 0.82914,0.291781 0.52224,0.160763 0.8903,0.17277 0.45319,0.0069 0.79977,-0.125046 0.35535,-0.128184 0.55374,-0.592898 0.18343,-0.429641 -0.0538,-0.89375 -0.22473,-0.469133 -0.85506,-0.935198 -0.66166,-0.489807 -1.42224,-0.990744 -0.74806,-0.505961 -1.36598,-1.049658 -1.42007,-1.238614 -1.75852,-2.4612057 -0.32594,-1.2276168 0.25428,-2.5866869 0.77862,-1.8237845 2.89989,-2.2761509 2.13377,-0.4573914 4.70286,0.6394163 1.28892,0.5502755 2.43421,1.3398551 1.15781,0.7845548 1.91751,1.5546411 l -1.28398,3.007491 -0.3595,-0.153479 q -0.51961,-0.968213 -1.48856,-1.8794678 -0.95644,-0.9162797 -2.14892,-1.4253781 -0.42087,-0.1796818 -0.86795,-0.2979863 -0.43456,-0.1233292 -0.88774,-0.13021 -0.39812,-0.014469 -0.75967,0.1525311 -0.35781,0.1582314 -0.5038,0.500191 -0.22086,0.5173235 0.0539,0.9663574 0.27853,0.4402657 1.27722,1.1361597 0.65536,0.456016 1.25308,0.87706 0.60649,0.424787 1.2645,0.99597 1.28974,1.131135 1.63685,2.284863 0.35963,1.148703 -0.21685,2.499005 z"
         id="path30046" />
      <path
         d="m 160.35397,28.537368 -6.99732,-4.489086 1.35908,-2.118455 1.95797,1.256121 4.94726,-7.711496 -1.95797,-1.256121 1.35909,-2.118455 6.99732,4.489087 -1.35909,2.118455 -1.95796,-1.256121 -4.94726,7.711496 1.95796,1.256121 z"
         id="path30048" />
      <path
         d="m 176.07318,40.833609 q -0.95266,-0.373668 -2.36058,-1.167771 -1.40146,-0.801107 -2.55011,-1.861898 -2.66152,-2.45793 -2.83492,-5.291424 -0.16694,-2.840498 2.1875,-5.389953 2.24448,-2.430387 5.13561,-2.511627 2.8976,-0.08824 5.61515,2.421432 1.02959,0.950831 1.78648,2.000214 0.76336,1.042379 1.39402,2.650018 l -2.25742,2.444395 -0.30117,-0.278134 q -0.0603,-0.328195 -0.1927,-0.943632 -0.12595,-0.62244 -0.30151,-1.13496 -0.19925,-0.599286 -0.59679,-1.2649 -0.39054,-0.659146 -0.99989,-1.221883 -0.71441,-0.65976 -1.48978,-0.986504 -0.77538,-0.326743 -1.63868,-0.319399 -0.82934,0.01274 -1.69004,0.424788 -0.84722,0.411511 -1.62988,1.258994 -1.59765,1.729988 -1.52747,3.49485 0.0702,1.764863 1.86321,3.420731 0.15409,0.142302 0.34266,0.303472 0.19558,0.167638 0.3626,0.295931 l 1.88873,-2.045167 -2.08019,-1.921066 1.81757,-1.968123 4.81175,4.443678 z"
         id="path30050" />
      <path
         d="m 188.07771,57.724481 -2.04241,-2.8761 4.45559,-10.554163 -7.94425,5.641474 -1.94305,-2.736181 11.57435,-8.219329 2.5337,3.567918 -3.6332,8.929458 6.63058,-4.708588 1.94305,2.736181 z"
         id="path30052" />
    </g>
    <g
       aria-label="WITH INKSCAPE"
       id="text30025"
       style="font-weight:bold;font-size:19.5253px;line-height:1.25;-inkscape-font-specification:'sans-serif, Bold';letter-spacing:5.21494px;stroke-width:0.264583">
      <path
         d="m 25.088332,178.55636 -13.782783,5.11604 -2.3493157,-3.30128 6.0587647,-7.43595 -8.9719162,3.34236 -2.3493158,-3.30128 9.349485,-11.34575 2.216649,3.11485 -6.6960456,7.44481 9.4765296,-3.53764 2.117148,2.97503 -6.519156,7.69337 9.288585,-3.80174 z"
         id="path30060" />
      <path
         d="m 24.525352,197.53819 -5.977845,-5.77752 1.749158,-1.8098 1.6727,1.61664 6.367199,-6.58797 -1.672699,-1.61664 1.749157,-1.80981 5.977846,5.77752 -1.749158,1.80981 -1.6727,-1.61665 -6.3672,6.58797 1.6727,1.61665 z"
         id="path30062" />
      <path
         d="m 46.494761,199.97989 -3.605687,-2.57926 -6.661704,9.31275 -2.9776,-2.12997 6.661705,-9.31275 -3.605688,-2.57926 1.597478,-2.2332 10.188974,7.28849 z"
         id="path30064" />
      <path
         d="m 57.688028,218.63039 -3.29644,-1.5926 2.72068,-5.63142 -4.867401,-2.35156 -2.72068,5.63142 -3.296441,-1.59259 6.175446,-12.7823 3.296441,1.5926 -2.260321,4.67854 4.867401,2.35156 2.260321,-4.67854 3.29644,1.59259 z"
         id="path30066" />
      <path
         d="m 85.009138,226.26214 -8.162582,-1.57691 0.477414,-2.47124 2.284025,0.44125 1.737857,-8.99569 -2.284025,-0.44125 0.477413,-2.47124 8.162582,1.57691 -0.477414,2.47124 -2.284025,-0.44124 -1.737857,8.99569 2.284025,0.44124 z"
         id="path30068" />
      <path
         d="m 106.05353,227.75932 -3.52579,-0.11022 -5.718003,-9.92709 -0.304443,9.73882 -3.354272,-0.10485 0.443557,-14.18896 4.373895,0.13673 4.920246,8.29015 0.2541,-8.12839 3.35427,0.10486 z"
         id="path30070" />
      <path
         d="m 128.00017,225.22243 -4.44124,0.66286 -5.03486,-4.99365 -0.69524,1.15446 0.68537,4.59211 -3.62089,0.54042 -2.09553,-14.04036 3.62089,-0.54042 0.94855,6.35541 4.06788,-7.10412 4.19608,-0.62627 -4.51824,7.31593 z"
         id="path30072" />
      <path
         d="m 144.21083,215.62218 q 0.65349,1.99305 -0.63068,3.7987 -1.27808,1.79361 -4.17706,2.74414 -1.67597,0.54953 -3.0212,0.66954 -1.33915,0.10799 -2.57478,0.0115 l -1.06044,-3.23416 0.38049,-0.12476 q 1.36025,0.50716 2.84345,0.53253 1.49227,0.0224 2.72433,-0.38157 0.31708,-0.10396 0.81564,-0.32763 0.49855,-0.22367 0.7831,-0.45743 0.34514,-0.29377 0.5186,-0.62154 0.18252,-0.33074 0.0251,-0.81089 -0.14555,-0.4439 -0.63,-0.63622 -0.47837,-0.20435 -1.25955,-0.13884 -0.82039,0.0683 -1.72246,0.19353 -0.89598,0.11318 -1.71904,0.11216 -1.88434,0.006 -2.94519,-0.68981 -1.05475,-0.70765 -1.51516,-2.11184 -0.61785,-1.88433 0.67806,-3.6236 1.302,-1.75129 3.95637,-2.62162 1.33171,-0.43664 2.71333,-0.59869 1.38771,-0.17408 2.46667,-0.0964 l 1.01884,3.10734 -0.37143,0.12178 q -1.0292,-0.38493 -2.35855,-0.43065 -1.32326,-0.0578 -2.55532,0.34622 -0.43485,0.14258 -0.8489,0.34857 -0.40796,0.19396 -0.7531,0.48773 -0.30876,0.25173 -0.47034,0.61574 -0.16455,0.35495 -0.0487,0.70827 0.17525,0.53449 0.67797,0.69072 0.49975,0.14717 1.7094,0.0114 0.79335,-0.0896 1.52033,-0.1674 0.73603,-0.0808 1.60736,-0.0856 1.71548,-6.2e-4 2.73741,0.63753 1.02802,0.62612 1.48546,2.02125 z"
         id="path30074" />
      <path
         d="m 158.51907,214.06148 q -1.40372,0.73091 -2.8118,0.9374 -1.39961,0.20208 -2.68078,-0.17346 -1.28118,-0.37554 -2.39317,-1.35511 -1.10354,-0.98397 -1.94013,-2.59065 -0.77934,-1.49674 -0.96521,-2.94779 -0.18587,-1.45105 0.21469,-2.76675 0.38434,-1.26426 1.35581,-2.35054 0.97992,-1.09068 2.41747,-1.8392 0.79488,-0.41389 1.47752,-0.6511 0.6867,-0.25008 1.30275,-0.38812 0.65022,-0.13434 1.21253,-0.16916 0.56636,-0.0477 1.00113,-0.0591 l 1.58951,3.05268 -0.37207,0.19373 q -0.34245,-0.0797 -0.85136,-0.16938 -0.50047,-0.0941 -1.098,-0.12695 -0.60599,-0.0284 -1.24405,0.0673 -0.63806,0.0958 -1.25536,0.41719 -0.68495,0.35665 -1.18777,0.89794 -0.50723,0.53283 -0.77173,1.30473 -0.24793,0.74179 -0.14692,1.69958 0.10947,0.95339 0.69948,2.08652 0.61643,1.18386 1.36011,1.80702 0.75214,0.61876 1.49728,0.81121 0.75799,0.1965 1.49788,0.0692 0.73549,-0.13574 1.35279,-0.45716 0.59193,-0.30822 1.07448,-0.78521 0.49101,-0.48139 0.82296,-1.04119 0.28666,-0.46098 0.49652,-0.92497 0.20986,-0.46398 0.3325,-0.78581 l 0.33825,-0.17612 1.5675,3.01039 q -0.36347,0.45798 -0.69787,0.86857 -0.33439,0.4106 -0.73749,0.79247 -0.52484,0.499 -1.0176,0.87382 -0.49276,0.37482 -1.43985,0.86796 z"
         id="path30076" />
      <path
         d="m 179.99443,199.32658 -3.01942,2.28229 -2.51378,-1.69716 -4.19828,3.17336 0.94702,2.88141 -2.94336,2.2248 -4.37694,-14.48658 3.36167,-2.54098 z m -7.80995,-0.95655 -4.4617,-3.00935 1.67806,5.11342 z"
         id="path30078" />
      <path
         d="m 186.2167,179.14282 q 0.69564,0.65195 1.13526,1.52129 0.43267,0.86283 0.46106,1.73875 0.0319,1.19283 -0.37218,2.2514 -0.39759,1.05162 -1.46027,2.1855 l -1.55815,1.66256 3.37381,3.16195 -2.50348,2.67123 -10.35796,-9.70752 4.12031,-4.39639 q 0.92577,-0.9878 1.73207,-1.49957 0.80586,-0.52526 1.63568,-0.72752 0.99718,-0.24142 1.94357,0.0314 0.95292,0.26589 1.85028,1.1069 z m -2.52562,2.82034 q -0.43825,-0.41073 -0.97295,-0.46759 -0.54165,-0.0634 -0.96024,0.1323 -0.55812,0.26091 -0.94365,0.64438 -0.39248,0.37696 -1.01183,1.03781 l -0.43028,0.45911 3.10252,2.90769 0.71714,-0.76519 q 0.63891,-0.68172 0.96616,-1.1982 0.33377,-0.52344 0.36368,-1.05726 0.0186,-0.46601 -0.18315,-0.86417 -0.2022,-0.41163 -0.6474,-0.82888 z"
         id="path30080" />
      <path
         d="m 203.787,171.04996 -5.71174,8.53268 -11.79681,-7.89675 5.71175,-8.53268 2.28172,1.52738 -3.68585,5.50623 2.03611,1.36297 3.42069,-5.1101 2.28172,1.52738 -3.42069,5.1101 2.91553,1.95164 3.68585,-5.50623 z"
         id="path30082" />
    </g>
  </g>
</svg>
