<?xml version="1.0" encoding="UTF-8" standalone="no"?>
<!-- Created with Inkscape (http://www.inkscape.org/) -->

<svg
   width="210mm"
   height="297mm"
   viewBox="0 0 210 297"
   version="1.1"
   id="svg25053"
   xml:space="preserve"
   inkscape:version="1.2 (dc2aedaf03, 2022-05-15)"
   sodipodi:docname="Simple Vector Award Graphic.svg"
   xmlns:inkscape="http://www.inkscape.org/namespaces/inkscape"
   xmlns:sodipodi="http://sodipodi.sourceforge.net/DTD/sodipodi-0.dtd"
   xmlns="http://www.w3.org/2000/svg"
   xmlns:svg="http://www.w3.org/2000/svg"><sodipodi:namedview
     id="namedview25055"
     pagecolor="#ffffff"
     bordercolor="#999999"
     borderopacity="1"
     inkscape:showpageshadow="0"
     inkscape:pageopacity="0"
     inkscape:pagecheckerboard="0"
     inkscape:deskcolor="#ffffff"
     inkscape:document-units="px"
     showgrid="false"
     showborder="false"
     inkscape:zoom="0.35355339"
     inkscape:cx="-183.84776"
     inkscape:cy="670.33723"
     inkscape:window-width="1057"
     inkscape:window-height="992"
     inkscape:window-x="853"
     inkscape:window-y="0"
     inkscape:window-maximized="0"
     inkscape:current-layer="layer1" /><defs
     id="defs25050"><inkscape:path-effect
       effect="skeletal"
       id="path-effect29396"
       is_visible="true"
       lpeversion="1"
       pattern="m 41.427246,-59.327244 a 19.373,19.373 0 0 1 9.639703,15.526201 19.373,19.373 0 0 1 -18.265935,-0.585126 19.373,19.373 0 0 1 -9.645332,-15.529452 19.373,19.373 0 0 1 18.271564,0.588377 z"
       copytype="repeated"
       prop_scale="1"
       scale_y_rel="false"
       spacing="3.3"
       normal_offset="0"
       tang_offset="0"
       prop_units="false"
       vertical_pattern="false"
       hide_knot="false"
       fuse_tolerance="0" /><inkscape:path-effect
       effect="skeletal"
       id="path-effect29385"
       is_visible="true"
       lpeversion="1"
       pattern="m 65.941926,-59.517948 a 19.86765,19.86765 0 0 0 -9.885832,15.922631 19.86765,19.86765 0 0 0 18.732319,-0.600066 19.86765,19.86765 0 0 0 9.891606,-15.925965 19.86765,19.86765 0 0 0 -18.738093,0.6034 z"
       copytype="repeated"
       prop_scale="1"
       scale_y_rel="false"
       spacing="2.3"
       normal_offset="0"
       tang_offset="0"
       prop_units="false"
       vertical_pattern="false"
       hide_knot="false"
       fuse_tolerance="0" /><inkscape:path-effect
       effect="skeletal"
       id="path-effect29369"
       is_visible="true"
       lpeversion="1"
       pattern="m 65.941926,-59.517948 a 19.86765,19.86765 0 0 0 -9.885832,15.922631 19.86765,19.86765 0 0 0 18.732319,-0.600066 19.86765,19.86765 0 0 0 9.891606,-15.925965 19.86765,19.86765 0 0 0 -18.738093,0.6034 z"
       copytype="repeated"
       prop_scale="1"
       scale_y_rel="false"
       spacing="2.3"
       normal_offset="0"
       tang_offset="0"
       prop_units="false"
       vertical_pattern="false"
       hide_knot="false"
       fuse_tolerance="0" /></defs><g
     inkscape:label="Layer 1"
     inkscape:groupmode="layer"
     id="layer1"><path
       id="path26446"
       style="fill:#000000;stroke:none;stroke-width:0.264583px;stroke-linecap:butt;stroke-linejoin:miter;stroke-opacity:1;opacity:1"
       class="UnoptimicedTransforms"
       d="M -127.40411 37.952206 C -134.24878 38.68515 -140.33762 43.064 -143.17679 49.343758 C -146.02615 55.653477 -145.07218 62.59179 -141.17433 67.99585 C -134.92385 66.669996 -129.78509 62.600286 -127.05684 56.737622 C -124.34831 50.910354 -124.30286 43.811174 -127.40411 37.952206 z M -153.50794 56.735038 C -160.20174 58.492983 -165.59239 63.831583 -167.38978 70.504741 C -169.1955 77.220615 -167.04425 83.846442 -162.27072 88.467468 C -156.42691 86.119468 -152.1174 81.362984 -150.3655 75.218148 C -148.62871 69.115669 -149.59851 62.082681 -153.50794 56.735038 z M -115.4312 58.10188 C -115.80896 58.105371 -116.18924 58.120762 -116.5717 58.148906 C -122.67361 58.60051 -128.21338 62.197992 -130.91552 67.505957 C -126.93553 71.668713 -120.94693 73.687789 -115.25963 73.214136 C -109.52491 72.734004 -104.50806 69.787053 -101.4951 65.098869 C -104.67141 60.735272 -109.76476 58.049522 -115.4312 58.10188 z M -136.57306 75.127714 C -137.6794 75.159284 -138.80056 75.300161 -139.92428 75.558179 C -145.89136 76.930949 -150.78884 81.399048 -152.51472 87.090808 C -147.85954 90.507594 -141.60654 91.492146 -136.1457 90.178475 C -130.63217 88.849556 -126.21059 85.286465 -123.96246 80.277787 C -127.2579 76.909723 -131.77893 74.990911 -136.57306 75.127714 z M -176.34789 79.593075 C -180.97268 81.758814 -184.65713 85.792331 -186.43307 90.699374 C -187.04067 92.37708 -187.40688 94.114382 -187.5224 95.857198 C -187.98582 102.89504 -184.40846 108.92143 -178.72501 112.40658 C -174.78309 109.73642 -172.00061 105.95723 -170.67899 101.46771 C -170.26808 100.07497 -170.00001 98.628123 -169.88059 97.149626 C -169.37744 90.884569 -171.57714 84.13951 -176.34789 79.593075 z M -153.43508 95.219511 C -155.59536 95.240215 -157.7862 95.68804 -159.90755 96.612191 C -161.70151 97.39462 -163.36195 98.489746 -164.80493 99.849203 C -167.82 102.70184 -169.66789 106.52623 -169.95707 110.49817 C -164.68869 112.84923 -158.23993 112.5388 -153.22011 110.25322 C -152.39209 109.87576 -151.60054 109.44614 -150.85074 108.96751 C -147.01748 106.50476 -144.38332 102.81523 -143.35559 98.449288 C -146.31936 96.337146 -149.83461 95.185004 -153.43508 95.219511 z M -194.46513 106.79296 C -200.03638 111.15186 -202.8491 118.4631 -201.62129 125.3939 C -200.38161 132.37399 -195.44445 137.30439 -189.09595 139.26902 C -184.95943 134.6466 -183.19534 128.71975 -184.17274 122.48968 C -185.13891 116.34986 -188.87457 110.14819 -194.46513 106.79296 z M -165.79453 118.28322 C -169.02058 118.37925 -172.21164 119.41724 -174.99087 121.51093 C -179.90157 125.21365 -182.36983 131.45538 -181.24268 137.4004 C -175.48868 138.43594 -169.39699 136.60366 -165.10775 133.26473 C -160.75382 129.87224 -158.35172 125.07029 -158.38103 119.71517 C -160.75497 118.70344 -163.28538 118.20853 -165.79453 118.28322 z M -205.67737 137.73836 C -209.97899 143.37183 -210.84651 151.24619 -207.82504 157.64774 C -207.19257 158.98626 -206.40657 160.22297 -205.48565 161.33486 C -202.05524 165.4559 -197.15412 167.47886 -191.99345 167.57272 C -191.06471 165.65719 -190.4351 163.6599 -190.12121 161.63096 C -189.56859 157.83055 -190.13991 153.94485 -191.79191 150.26576 C -194.31403 144.65599 -199.37634 139.61499 -205.67737 137.73836 z M -170.95494 143.31787 C -175.66003 143.41095 -180.14299 145.37199 -183.2007 149.31233 C -185.84718 152.72582 -187.0098 157.18281 -186.33798 161.56275 C -186.06706 163.24417 -185.53383 164.85591 -184.76495 166.3361 C -180.76693 165.96284 -176.98149 164.23227 -173.97233 161.79116 C -172.62247 160.69318 -171.43733 159.45559 -170.4511 158.12627 C -167.2421 153.79668 -166.24834 148.66365 -167.67659 143.55041 C -168.77121 143.37432 -169.86915 143.29639 -170.95494 143.31787 z M -169.94467 168.60418 C -175.83257 169.27233 -180.94395 172.64064 -183.13042 178.30798 C -185.29662 183.93031 -183.97581 190.48502 -179.78438 194.96743 C -174.28742 192.96499 -170.12457 188.35973 -168.31427 183.36452 C -166.4842 178.30715 -167.08099 173.09452 -169.94467 168.60418 z M -208.3387 170.7193 C -210.89689 177.36114 -209.50048 185.1169 -204.86915 190.38269 C -200.20557 195.68047 -193.40117 197.33873 -186.9457 195.72914 C -185.82353 189.58189 -187.46648 183.62718 -191.50821 178.8666 C -195.48558 174.18622 -201.78293 170.76419 -208.3387 170.7193 z M -164.82612 193.43832 C -170.33612 195.5536 -174.37227 200.10213 -175.03945 206.08148 C -175.69983 212.02455 -172.80094 218.02399 -167.643 221.4299 C -162.76996 218.27267 -159.81304 212.87633 -159.31121 207.54392 C -158.80591 202.14677 -160.78567 197.12986 -164.82612 193.43832 z M -197.1368 202.38713 C -198.76194 202.40449 -200.3835 202.60741 -201.95925 203.01655 C -202.75981 210.04946 -199.54467 217.14646 -193.79282 221.14154 C -188.00999 225.15441 -180.9942 225.23182 -175.072 222.20194 C -175.37867 215.90176 -178.40523 210.38129 -183.549 206.68454 C -187.35307 203.95329 -192.26139 202.33506 -197.1368 202.38713 z M -153.4387 216.6705 C -154.6153 217.45924 -155.6898 218.37587 -156.62868 219.41245 C -159.52345 222.61226 -160.95451 226.76652 -160.46204 231.13111 C -159.79917 236.98176 -155.78201 242.17884 -150.14432 244.5365 C -145.97493 240.56241 -144.15463 234.78573 -144.82889 229.42734 C -145.47504 224.31211 -148.30982 219.90232 -152.73383 217.09424 C -152.96493 216.94836 -153.19988 216.80711 -153.4387 216.6705 z M -177.83927 230.37405 C -179.61827 230.338 -181.41439 230.51314 -183.17538 230.91562 C -184.87102 231.30208 -186.51506 231.89481 -188.05364 232.69898 C -188.00954 233.08269 -187.95328 233.46577 -187.88517 233.84774 C -186.73637 240.3395 -182.29128 245.90197 -176.33187 248.42928 C -169.96113 251.12773 -163.07659 249.93085 -157.82654 245.8713 C -159.35434 239.7079 -163.51519 234.80182 -169.32196 232.24112 C -171.95579 231.0811 -174.87428 230.43413 -177.83927 230.37405 z M -137.1446 237.36277 C -141.28902 241.41013 -143.04733 247.11767 -141.37845 252.7856 C -139.71546 258.42399 -134.94271 262.89619 -129.01073 264.38955 C -125.49481 259.83591 -124.59948 253.8475 -126.2171 248.6055 C -127.84635 243.33474 -131.83193 239.26803 -137.1446 237.36277 z M -155.02568 254.15296 C -159.83952 254.03353 -164.74618 255.48571 -168.6357 258.53461 C -166.66411 265.16652 -161.20693 270.35064 -154.54044 271.96686 C -147.85003 273.58574 -141.1813 271.37304 -136.57358 266.55841 C -139.06 260.61932 -144.06044 256.36369 -150.28385 254.7953 C -151.82668 254.40724 -153.42107 254.19277 -155.02568 254.15296 z M -117.22334 255.40147 C -120.70986 260.00954 -121.56482 265.93567 -119.12244 271.3085 C -116.68634 276.66106 -111.40251 280.4425 -105.36876 281.21023 C -102.45231 276.30198 -102.30184 270.27045 -104.64323 265.22464 C -106.99833 260.1555 -111.60506 256.57396 -117.22334 255.40147 z M -130.13366 274.283 C -135.77427 274.28713 -141.44256 276.53448 -145.42988 280.74514 C -142.53625 287.00291 -136.47502 291.32744 -129.68149 292.04471 C -122.87317 292.76049 -116.51441 289.78017 -112.52026 284.47618 C -115.71525 278.83621 -121.27947 275.16199 -127.72295 274.41943 C -128.52264 274.32764 -129.32786 274.28241 -130.13366 274.283 z " /><path
       id="path29409"
       style="fill:#000000;fill-rule:evenodd;stroke-width:0.264583;fill-opacity:1"
       d="M -66.499817 75.584017 A 89.054207 89.054207 0 0 0 -155.55433 164.63801 A 89.054207 89.054207 0 0 0 -66.499817 253.69201 A 89.054207 89.054207 0 0 0 22.554179 164.63801 A 89.054207 89.054207 0 0 0 -66.499817 75.584017 z M -66.499817 85.109017 A 79.529205 79.529205 0 0 1 13.029179 164.63801 A 79.529205 79.529205 0 0 1 -66.499817 244.16701 A 79.529205 79.529205 0 0 1 -146.02933 164.63801 A 79.529205 79.529205 0 0 1 -66.499817 85.109017 z " /><path
       id="path29411"
       style="opacity:1;fill:#000000;stroke:none;stroke-width:0.264583px;stroke-linecap:butt;stroke-linejoin:miter;stroke-opacity:1"
       class="UnoptimicedTransforms"
       d="m -127.40411,37.952206 c -6.84467,0.732944 -12.93351,5.111794 -15.77268,11.391552 -2.84936,6.309719 -1.89539,13.248032 2.00246,18.652092 6.25048,-1.325854 11.38924,-5.395564 14.11749,-11.258228 2.70853,-5.827268 2.75398,-12.926448 -0.34727,-18.785416 z m -26.10383,18.782832 c -6.6938,1.757945 -12.08445,7.096545 -13.88184,13.769703 -1.80572,6.715874 0.34553,13.341701 5.11906,17.962727 5.84381,-2.348 10.15332,-7.104484 11.90522,-13.24932 1.73679,-6.102479 0.76699,-13.135467 -3.14244,-18.48311 z m 38.07674,1.366842 c -0.37776,0.0035 -0.75804,0.01888 -1.1405,0.04703 -6.10191,0.451604 -11.64168,4.049086 -14.34382,9.357051 3.97999,4.162756 9.96859,6.181832 15.65589,5.708179 5.73472,-0.480132 10.75157,-3.427083 13.76453,-8.115267 -3.17631,-4.363597 -8.26966,-7.049347 -13.9361,-6.996989 z m -21.14186,17.025834 c -1.10634,0.03157 -2.2275,0.172447 -3.35122,0.430465 -5.96708,1.37277 -10.86456,5.840869 -12.59044,11.532629 4.65518,3.416786 10.90818,4.401338 16.36902,3.087667 5.51353,-1.328919 9.93511,-4.89201 12.18324,-9.900688 -3.29544,-3.368064 -7.81647,-5.286876 -12.6106,-5.150073 z m -39.77483,4.465361 c -4.62479,2.165739 -8.30924,6.199256 -10.08518,11.106299 -0.6076,1.677706 -0.97381,3.415008 -1.08933,5.157824 -0.46342,7.037842 3.11394,13.064232 8.79739,16.549382 3.94192,-2.67016 6.7244,-6.44935 8.04602,-10.93887 0.41091,-1.39274 0.67898,-2.839587 0.7984,-4.318084 0.50315,-6.265057 -1.69655,-13.010116 -6.4673,-17.556551 z m 22.91281,15.626436 c -2.16028,0.0207 -4.35112,0.468529 -6.47247,1.39268 -1.79396,0.782429 -3.4544,1.877555 -4.89738,3.237012 -3.01507,2.852637 -4.86296,6.677027 -5.15214,10.648967 5.26838,2.35106 11.71714,2.04063 16.73696,-0.24495 0.82802,-0.37746 1.61957,-0.80708 2.36937,-1.28571 3.83326,-2.46275 6.46742,-6.15228 7.49515,-10.518222 -2.96377,-2.112142 -6.47902,-3.264284 -10.07949,-3.229777 z m -41.03005,11.573449 c -5.57125,4.3589 -8.38397,11.67014 -7.15616,18.60094 1.23968,6.98009 6.17684,11.91049 12.52534,13.87512 4.13652,-4.62242 5.90061,-10.54927 4.92321,-16.77934 -0.96617,-6.13982 -4.70183,-12.34149 -10.29239,-15.69672 z m 28.6706,11.49026 c -3.22605,0.096 -6.41711,1.13402 -9.19634,3.22771 -4.9107,3.70272 -7.37896,9.94445 -6.25181,15.88947 5.754,1.03554 11.84569,-0.79674 16.13493,-4.13567 4.35393,-3.39249 6.75603,-8.19444 6.72672,-13.54956 -2.37394,-1.01173 -4.90435,-1.50664 -7.4135,-1.43195 z m -39.88284,19.45514 c -4.30162,5.63347 -5.16914,13.50783 -2.14767,19.90938 0.63247,1.33852 1.41847,2.57523 2.33939,3.68712 3.43041,4.12104 8.33153,6.144 13.4922,6.23786 0.92874,-1.91553 1.55835,-3.91282 1.87224,-5.94176 0.55262,-3.80041 -0.0187,-7.68611 -1.6707,-11.3652 -2.52212,-5.60977 -7.58443,-10.65077 -13.88546,-12.5274 z m 34.72243,5.57951 c -4.70509,0.0931 -9.18805,2.05412 -12.24576,5.99446 -2.64648,3.41349 -3.8091,7.87048 -3.13728,12.25042 0.27092,1.68142 0.80415,3.29316 1.57303,4.77335 3.99802,-0.37326 7.78346,-2.10383 10.79262,-4.54494 1.34986,-1.09798 2.535,-2.33557 3.52123,-3.66489 3.209,-4.32959 4.20276,-9.46262 2.77451,-14.57586 -1.09462,-0.17609 -2.19256,-0.25402 -3.27835,-0.23254 z m 1.01027,25.28631 c -5.8879,0.66815 -10.99928,4.03646 -13.18575,9.7038 -2.1662,5.62233 -0.84539,12.17704 3.34604,16.65945 5.49696,-2.00244 9.65981,-6.6077 11.47011,-11.60291 1.83007,-5.05737 1.23328,-10.27 -1.6304,-14.76034 z m -38.39403,2.11512 c -2.55819,6.64184 -1.16178,14.3976 3.46955,19.66339 4.66358,5.29778 11.46798,6.95604 17.92345,5.34645 1.12217,-6.14725 -0.52078,-12.10196 -4.56251,-16.86254 -3.97737,-4.68038 -10.27472,-8.10241 -16.83049,-8.1473 z m 43.51258,22.71902 c -5.51,2.11528 -9.54615,6.66381 -10.21333,12.64316 -0.66038,5.94307 2.23851,11.94251 7.39645,15.34842 4.87304,-3.15723 7.82996,-8.55357 8.33179,-13.88598 0.5053,-5.39715 -1.47446,-10.41406 -5.51491,-14.1056 z m -32.31068,8.94881 c -1.62514,0.0174 -3.2467,0.22028 -4.82245,0.62942 -0.80056,7.03291 2.41458,14.12991 8.16643,18.12499 5.78283,4.01287 12.79862,4.09028 18.72082,1.0604 -0.30667,-6.30018 -3.33323,-11.82065 -8.477,-15.5174 -3.80407,-2.73125 -8.71239,-4.34948 -13.5878,-4.29741 z m 43.6981,14.28337 c -1.1766,0.78874 -2.2511,1.70537 -3.18998,2.74195 -2.89477,3.19981 -4.32583,7.35407 -3.83336,11.71866 0.66287,5.85065 4.68003,11.04773 10.31772,13.40539 4.16939,-3.97409 5.98969,-9.75077 5.31543,-15.10916 -0.64615,-5.11523 -3.48093,-9.52502 -7.90494,-12.3331 -0.2311,-0.14588 -0.46605,-0.28713 -0.70487,-0.42374 z m -24.40057,13.70355 c -1.779,-0.0361 -3.57512,0.13909 -5.33611,0.54157 -1.69564,0.38646 -3.33968,0.97919 -4.87826,1.78336 0.0441,0.38371 0.10036,0.76679 0.16847,1.14876 1.1488,6.49176 5.59389,12.05423 11.5533,14.58154 6.37074,2.69845 13.25528,1.50157 18.50533,-2.55798 -1.5278,-6.1634 -5.68865,-11.06948 -11.49542,-13.63018 -2.63383,-1.16002 -5.55232,-1.80699 -8.51731,-1.86707 z m 40.69467,6.98872 c -4.14442,4.04736 -5.90273,9.7549 -4.23385,15.42283 1.66299,5.63839 6.43574,10.11059 12.36772,11.60395 3.51592,-4.55364 4.41125,-10.54205 2.79363,-15.78405 -1.62925,-5.27076 -5.61483,-9.33747 -10.9275,-11.24273 z m -17.88108,16.79019 c -4.81384,-0.11943 -9.7205,1.33275 -13.61002,4.38165 1.97159,6.63191 7.42877,11.81603 14.09526,13.43225 6.69041,1.61888 13.35914,-0.59382 17.96686,-5.40845 -2.48642,-5.93909 -7.48686,-10.19472 -13.71027,-11.76311 -1.54283,-0.38806 -3.13722,-0.60253 -4.74183,-0.64234 z m 37.80234,1.24851 c -3.48652,4.60807 -4.34148,10.5342 -1.8991,15.90703 2.4361,5.35256 7.71993,9.134 13.75368,9.90173 2.91645,-4.90825 3.06692,-10.93978 0.72553,-15.98559 -2.3551,-5.06914 -6.96183,-8.65068 -12.58011,-9.82317 z m -12.91032,18.88153 c -5.64061,0.004 -11.3089,2.25148 -15.29622,6.46214 2.89363,6.25777 8.95486,10.5823 15.74839,11.29957 6.80832,0.71578 13.16708,-2.26454 17.16123,-7.56853 -3.19499,-5.63997 -8.75921,-9.31419 -15.20269,-10.05675 -0.79969,-0.0918 -1.60491,-0.13702 -2.41071,-0.13643 z"
       transform="matrix(-1,0,0,1,-132.99995,0)" /><text
       xml:space="preserve"
       style="font-style:normal;font-variant:normal;font-weight:normal;font-stretch:normal;font-size:53.7802px;line-height:1.25;font-family:'Old English Text MT';-inkscape-font-specification:'Old English Text MT, Normal';font-variant-ligatures:normal;font-variant-caps:normal;font-variant-numeric:normal;font-variant-east-asian:normal;fill:#000000;fill-opacity:1;stroke:none;stroke-width:0.720267"
       x="-121.52758"
       y="182.80983"
       id="text29418"><tspan
         sodipodi:role="line"
         id="tspan29416"
         style="font-style:normal;font-variant:normal;font-weight:normal;font-stretch:normal;font-size:53.7802px;font-family:'Old English Text MT';-inkscape-font-specification:'Old English Text MT, Normal';font-variant-ligatures:normal;font-variant-caps:normal;font-variant-numeric:normal;font-variant-east-asian:normal;fill:#000000;fill-opacity:1;stroke-width:0.720267"
         x="-121.52758"
         y="182.80983">2022</tspan></text></g></svg>
