<?xml version="1.0" encoding="UTF-8" standalone="no"?>
<!-- Created with Inkscape (http://www.inkscape.org/) -->

<svg
   width="210mm"
   height="297mm"
   viewBox="0 0 210 297"
   version="1.1"
   id="svg13543"
   inkscape:version="1.2 (dc2aedaf03, 2022-05-15)"
   sodipodi:docname="Simple Water Drop Icon.svg"
   xmlns:inkscape="http://www.inkscape.org/namespaces/inkscape"
   xmlns:sodipodi="http://sodipodi.sourceforge.net/DTD/sodipodi-0.dtd"
   xmlns="http://www.w3.org/2000/svg"
   xmlns:svg="http://www.w3.org/2000/svg">
  <sodipodi:namedview
     id="namedview13545"
     pagecolor="#ffffff"
     bordercolor="#999999"
     borderopacity="1"
     inkscape:showpageshadow="0"
     inkscape:pageopacity="0"
     inkscape:pagecheckerboard="0"
     inkscape:deskcolor="#ffffff"
     inkscape:document-units="px"
     showgrid="false"
     showborder="false"
     inkscape:zoom="1"
     inkscape:cx="399"
     inkscape:cy="513.5"
     inkscape:window-width="958"
     inkscape:window-height="991"
     inkscape:window-x="952"
     inkscape:window-y="0"
     inkscape:window-maximized="0"
     inkscape:current-layer="layer1" />
  <defs
     id="defs13540" />
  <g
     inkscape:label="Layer 1"
     inkscape:groupmode="layer"
     id="layer1">
    <path
       id="rect14494"
       style="opacity:1;stroke-width:3.175;stroke-linecap:square;fill:#0085ff;fill-opacity:1"
       d="m 104.75306,89.400691 c 0,0 29.79919,39.524029 29.79919,61.809989 0,22.28596 -13.84225,37.46039 -29.79919,37.46499 -15.96427,0.005 -29.834478,-15.17903 -29.834477,-37.46499 -7e-6,-22.28597 29.834477,-61.809989 29.834477,-61.809989 z"
       sodipodi:nodetypes="csasc" />
    <path
       id="path23622"
       style="opacity:1;fill:#00b1ff;fill-opacity:1;stroke-width:3.175;stroke-linecap:square"
       d="m 104.74986,92.046521 c 0,0 24.4069,37.417279 24.4069,58.515319 0,21.09805 -11.33744,35.46364 -24.4069,35.46799 -13.075462,0.004 -24.435794,-14.36994 -24.435793,-35.46799 -6e-6,-21.09805 24.435793,-58.515319 24.435793,-58.515319 z"
       sodipodi:nodetypes="csasc" />
    <path
       id="path26528"
       style="opacity:1;fill:#50dbff;fill-opacity:1;stroke-width:3.175;stroke-linecap:square"
       d="m 104.74575,97.073604 c 0,0 17.46712,26.778176 17.46712,41.877256 0,15.0991 -8.11379,25.38002 -17.46712,25.38314 -9.357625,0.003 -17.487796,-10.28404 -17.487795,-25.38314 -4e-6,-15.09909 17.487795,-41.877256 17.487795,-41.877256 z"
       sodipodi:nodetypes="csasc" />
    <path
       id="path28708"
       style="opacity:1;fill:#8be7ff;fill-opacity:1;stroke-width:3.175;stroke-linecap:square"
       d="m 104.7412,102.10069 c 0,0 9.77151,14.98035 9.77151,23.42713 0,8.4468 -4.53904,14.19818 -9.77151,14.19993 -5.234883,0.002 -9.783093,-5.75313 -9.783093,-14.19993 -2e-6,-8.44679 9.783093,-23.42713 9.783093,-23.42713 z"
       sodipodi:nodetypes="csasc" />
    <path
       id="path28710"
       style="opacity:1;fill:#ffffff;fill-opacity:1;stroke-width:3.175;stroke-linecap:square"
       d="M 104.74916 93.634078 L 104.74865 93.634595 C 104.75001 93.636683 126.7504 127.36524 126.7504 146.38383 C 126.7504 165.40301 116.53032 178.35316 104.74865 178.35707 C 92.961551 178.36107 82.720531 165.40301 82.720532 146.38383 C 82.720527 129.77991 99.503306 101.97312 103.76731 95.176103 C 99.353034 102.19775 81.139228 132.25381 81.139234 150.17275 C 81.139233 170.55803 92.115438 184.44649 104.74916 184.44249 C 117.37709 184.43829 128.3317 170.55803 128.3317 150.17275 C 128.3317 129.78748 104.74916 93.634078 104.74916 93.634078 z " />
    <path
       id="path28715"
       style="opacity:1;fill:#ffffff;fill-opacity:1;stroke-width:3.175;stroke-linecap:square"
       d="M 120.42417 131.65863 C 117.69454 147.04692 109.4471 157.97879 99.380497 161.51521 C 101.07834 162.3199 102.88585 162.74728 104.74503 162.74666 C 113.65683 162.74369 121.38794 152.9479 121.38794 138.56157 C 121.38794 136.46022 121.03059 134.12061 120.42417 131.65863 z " />
    <g
       id="g28781"
       transform="rotate(-15,94.889674,122.23621)">
      <ellipse
         style="opacity:1;fill:#ffffff;fill-opacity:1;stroke-width:3.175;stroke-linecap:square"
         id="path28772"
         cx="112.71249"
         cy="134.67291"
         rx="2.9104166"
         ry="3.96875" />
      <ellipse
         style="opacity:1;fill:#ffffff;fill-opacity:1;stroke-width:3.175;stroke-linecap:square"
         id="ellipse28774"
         cx="111.91874"
         cy="124.75104"
         rx="2.1166666"
         ry="2.8863635" />
      <ellipse
         style="opacity:1;fill:#ffffff;fill-opacity:1;stroke-width:3.175;stroke-linecap:square"
         id="ellipse28776"
         cx="111.33665"
         cy="116.7053"
         rx="1.5345832"
         ry="2.0926135" />
    </g>
  </g>
</svg>
