<?xml version="1.0" encoding="UTF-8" standalone="no"?>
<!-- Created with Inkscape (http://www.inkscape.org/) -->

<svg
   width="210mm"
   height="297mm"
   viewBox="0 0 210 297"
   version="1.1"
   id="svg5"
   inkscape:version="1.2 (dc2aedaf03, 2022-05-15)"
   sodipodi:docname="Text Styling.svg"
   xmlns:inkscape="http://www.inkscape.org/namespaces/inkscape"
   xmlns:sodipodi="http://sodipodi.sourceforge.net/DTD/sodipodi-0.dtd"
   xmlns:xlink="http://www.w3.org/1999/xlink"
   xmlns="http://www.w3.org/2000/svg"
   xmlns:svg="http://www.w3.org/2000/svg">
  <sodipodi:namedview
     id="namedview7"
     pagecolor="#ffffff"
     bordercolor="#999999"
     borderopacity="1"
     inkscape:showpageshadow="0"
     inkscape:pageopacity="0"
     inkscape:pagecheckerboard="0"
     inkscape:deskcolor="#ffffff"
     inkscape:document-units="px"
     showgrid="false"
     showborder="false"
     inkscape:zoom="0.70710678"
     inkscape:cx="535.98694"
     inkscape:cy="580.53467"
     inkscape:window-width="1180"
     inkscape:window-height="991"
     inkscape:window-x="730"
     inkscape:window-y="0"
     inkscape:window-maximized="0"
     inkscape:current-layer="layer1" />
  <defs
     id="defs2">
    <linearGradient
       inkscape:collect="always"
       id="linearGradient11185">
      <stop
         style="stop-color:#15d2ff;stop-opacity:1;"
         offset="0"
         id="stop11181" />
      <stop
         style="stop-color:#006e8d;stop-opacity:1;"
         offset="0.74485594"
         id="stop11313" />
      <stop
         style="stop-color:#005970;stop-opacity:1;"
         offset="1"
         id="stop11183" />
    </linearGradient>
    <filter
       inkscape:collect="always"
       style="color-interpolation-filters:sRGB"
       id="filter7152"
       x="-2.4661926"
       y="-0.5294395"
       width="5.9323852"
       height="2.058879">
      <feGaussianBlur
         inkscape:collect="always"
         stdDeviation="0.56819123"
         id="feGaussianBlur7154" />
    </filter>
    <radialGradient
       inkscape:collect="always"
       xlink:href="#linearGradient11185"
       id="radialGradient11187"
       cx="160.1479"
       cy="156.59322"
       fx="160.1479"
       fy="156.59322"
       r="90.925095"
       gradientTransform="matrix(1,0,0,0.56584364,0,67.98594)"
       gradientUnits="userSpaceOnUse" />
  </defs>
  <g
     inkscape:label="Layer 1"
     inkscape:groupmode="layer"
     id="layer1">
    <rect
       style="opacity:0.704641;fill:url(#radialGradient11187);fill-opacity:1;stroke:none;stroke-width:8.99999;stroke-linecap:round;stroke-linejoin:round;stroke-dasharray:none;paint-order:stroke markers fill"
       id="rect9540"
       width="181.85019"
       height="102.89877"
       x="69.222801"
       y="105.14383" />
    <g
       id="g7260"
       transform="translate(-3.7561939,0.39800136)">
      <path
         d="m 205.62221,158.54414 c -0.50804,1.09736 -1.44283,1.74765 -2.6418,1.74765 -1.78829,0 -2.1744,-1.72733 -2.23536,-3.51562 0.26418,0.0203 0.79254,0.0406 1.11768,0.0406 2.51987,0 4.57234,-0.67061 4.57234,-3.19048 0,-1.95086 -1.38186,-2.98726 -3.33273,-2.98726 -3.3124,0 -4.71459,2.56051 -4.71459,5.8526 0,3.08886 1.28026,5.36487 4.38945,5.36487 1.54443,0 3.3124,-0.89414 3.3124,-2.43858 0,-0.36578 -0.12193,-0.71125 -0.46739,-0.87382 z m -2.84501,-6.74674 c 1.01607,0 1.44283,0.93479 1.44283,1.95086 0,1.52412 -1.0364,2.05248 -2.56051,2.05248 -0.2845,0 -0.58933,-0.0203 -0.91447,-0.061 0.0406,-1.74765 0.40643,-3.94237 2.03215,-3.94237 z"
         id="path7170"
         style="font-size:20.3215px;line-height:1.25;font-family:Sansita;-inkscape-font-specification:'Sansita, Normal';letter-spacing:16.5947px;opacity:0.704641;stroke:#000000;stroke-width:9;stroke-linecap:round;stroke-linejoin:round;filter:url(#filter7152)" />
      <path
         d="m 203.98182,157.08883 c -0.50803,1.09736 -1.44282,1.74765 -2.64179,1.74765 -1.78829,0 -2.1744,-1.72733 -2.23537,-3.51562 0.26418,0.0203 0.79254,0.0406 1.11769,0.0406 2.51986,0 4.57233,-0.67061 4.57233,-3.19047 0,-1.95087 -1.38186,-2.98726 -3.33272,-2.98726 -3.31241,0 -4.71459,2.56051 -4.71459,5.85259 0,3.08887 1.28025,5.36488 4.38944,5.36488 1.54444,0 3.31241,-0.89415 3.31241,-2.43858 0,-0.36579 -0.12193,-0.71126 -0.4674,-0.87383 z m -2.84501,-6.74674 c 1.01608,0 1.44283,0.93479 1.44283,1.95087 0,1.52411 -1.0364,2.05247 -2.56051,2.05247 -0.2845,0 -0.58932,-0.0203 -0.91447,-0.061 0.0406,-1.74765 0.40643,-3.94237 2.03215,-3.94237 z"
         id="path7187"
         style="font-size:20.3215px;line-height:1.25;font-family:Sansita;-inkscape-font-specification:'Sansita, Normal';letter-spacing:16.5947px;fill:#ffffff;stroke:#ffffff;stroke-width:9;stroke-linecap:round;stroke-linejoin:round" />
      <path
         d="m 203.98182,157.08883 c -0.50803,1.09736 -1.44282,1.74765 -2.64179,1.74765 -1.78829,0 -2.1744,-1.72733 -2.23537,-3.51562 0.26418,0.0203 0.79254,0.0406 1.11769,0.0406 2.51986,0 4.57233,-0.67061 4.57233,-3.19047 0,-1.95087 -1.38186,-2.98726 -3.33272,-2.98726 -3.31241,0 -4.71459,2.56051 -4.71459,5.85259 0,3.08887 1.28025,5.36488 4.38944,5.36488 1.54444,0 3.31241,-0.89415 3.31241,-2.43858 0,-0.36579 -0.12193,-0.71126 -0.4674,-0.87383 z m -2.84501,-6.74674 c 1.01608,0 1.44283,0.93479 1.44283,1.95087 0,1.52411 -1.0364,2.05247 -2.56051,2.05247 -0.2845,0 -0.58932,-0.0203 -0.91447,-0.061 0.0406,-1.74765 0.40643,-3.94237 2.03215,-3.94237 z"
         id="path7204"
         style="font-size:20.3215px;line-height:1.25;font-family:Sansita;-inkscape-font-specification:'Sansita, Normal';letter-spacing:16.5947px;fill:#006680;stroke:#006680;stroke-width:4;stroke-linecap:round;stroke-linejoin:round" />
      <path
         d="m 203.98182,157.08883 c -0.50803,1.09736 -1.44282,1.74765 -2.64179,1.74765 -1.78829,0 -2.1744,-1.72733 -2.23537,-3.51562 0.26418,0.0203 0.79254,0.0406 1.11769,0.0406 2.51986,0 4.57233,-0.67061 4.57233,-3.19047 0,-1.95087 -1.38186,-2.98726 -3.33272,-2.98726 -3.31241,0 -4.71459,2.56051 -4.71459,5.85259 0,3.08887 1.28025,5.36488 4.38944,5.36488 1.54444,0 3.31241,-0.89415 3.31241,-2.43858 0,-0.36579 -0.12193,-0.71126 -0.4674,-0.87383 z m -2.84501,-6.74674 c 1.01608,0 1.44283,0.93479 1.44283,1.95087 0,1.52411 -1.0364,2.05247 -2.56051,2.05247 -0.2845,0 -0.58932,-0.0203 -0.91447,-0.061 0.0406,-1.74765 0.40643,-3.94237 2.03215,-3.94237 z"
         id="path7221"
         style="font-size:20.3215px;line-height:1.25;font-family:Sansita;-inkscape-font-specification:'Sansita, Normal';letter-spacing:16.5947px;fill:#ffffff;stroke-width:0.508038" />
    </g>
    <g
       id="g7992"
       transform="translate(10.462545,0.39800136)">
      <path
         d="m 176.95653,150.63907 c -1.44283,0 -2.47923,0.65029 -3.04823,1.99151 l -0.1016,-1.82893 -1.86958,0.24385 v 14.28602 l 2.23536,-0.24386 v -3.4953 c 0.54868,0.1829 1.19897,0.26418 1.76797,0.26418 3.25144,0 4.55202,-2.54018 4.55202,-5.7713 0,-2.76373 -0.77222,-5.44617 -3.53594,-5.44617 z m -0.77222,1.56476 c 1.76797,0 1.86958,2.19472 1.86958,3.98301 0,1.86958 -0.14225,4.45041 -1.99151,4.45041 -0.67061,0 -1.3209,-0.24386 -1.8899,-0.62996 v -4.83652 c 0,-1.52411 0.48772,-2.96694 2.01183,-2.96694 z"
         id="path7168"
         style="font-size:20.3215px;line-height:1.25;font-family:Sansita;-inkscape-font-specification:'Sansita, Normal';letter-spacing:16.5947px;opacity:0.704641;stroke:#000000;stroke-width:9;stroke-linecap:round;stroke-linejoin:round;filter:url(#filter7152)" />
      <path
         d="m 175.31614,149.18377 c -1.44282,0 -2.47922,0.65029 -3.04822,1.9915 l -0.10161,-1.82893 -1.86958,0.24386 v 14.28601 l 2.23537,-0.24386 v -3.49529 c 0.54868,0.18289 1.19897,0.26418 1.76797,0.26418 3.25144,0 4.55201,-2.54019 4.55201,-5.77131 0,-2.76372 -0.77221,-5.44616 -3.53594,-5.44616 z m -0.77221,1.56475 c 1.76797,0 1.86957,2.19472 1.86957,3.98302 0,1.86957 -0.14225,4.45041 -1.9915,4.45041 -0.67061,0 -1.3209,-0.24386 -1.8899,-0.62997 v -4.83652 c 0,-1.52411 0.48771,-2.96694 2.01183,-2.96694 z"
         id="path7185"
         style="font-size:20.3215px;line-height:1.25;font-family:Sansita;-inkscape-font-specification:'Sansita, Normal';letter-spacing:16.5947px;fill:#ffffff;stroke:#ffffff;stroke-width:9;stroke-linecap:round;stroke-linejoin:round" />
      <path
         d="m 175.31614,149.18377 c -1.44282,0 -2.47922,0.65029 -3.04822,1.9915 l -0.10161,-1.82893 -1.86958,0.24386 v 14.28601 l 2.23537,-0.24386 v -3.49529 c 0.54868,0.18289 1.19897,0.26418 1.76797,0.26418 3.25144,0 4.55201,-2.54019 4.55201,-5.77131 0,-2.76372 -0.77221,-5.44616 -3.53594,-5.44616 z m -0.77221,1.56475 c 1.76797,0 1.86957,2.19472 1.86957,3.98302 0,1.86957 -0.14225,4.45041 -1.9915,4.45041 -0.67061,0 -1.3209,-0.24386 -1.8899,-0.62997 v -4.83652 c 0,-1.52411 0.48771,-2.96694 2.01183,-2.96694 z"
         id="path7202"
         style="font-size:20.3215px;line-height:1.25;font-family:Sansita;-inkscape-font-specification:'Sansita, Normal';letter-spacing:16.5947px;fill:#006680;stroke:#006680;stroke-width:4;stroke-linecap:round;stroke-linejoin:round" />
      <path
         d="m 175.31614,149.18377 c -1.44282,0 -2.47922,0.65029 -3.04822,1.9915 l -0.10161,-1.82893 -1.86958,0.24386 v 14.28601 l 2.23537,-0.24386 v -3.49529 c 0.54868,0.18289 1.19897,0.26418 1.76797,0.26418 3.25144,0 4.55201,-2.54019 4.55201,-5.77131 0,-2.76372 -0.77221,-5.44616 -3.53594,-5.44616 z m -0.77221,1.56475 c 1.76797,0 1.86957,2.19472 1.86957,3.98302 0,1.86957 -0.14225,4.45041 -1.9915,4.45041 -0.67061,0 -1.3209,-0.24386 -1.8899,-0.62997 v -4.83652 c 0,-1.52411 0.48771,-2.96694 2.01183,-2.96694 z"
         id="path7219"
         style="font-size:20.3215px;line-height:1.25;font-family:Sansita;-inkscape-font-specification:'Sansita, Normal';letter-spacing:16.5947px;fill:#ffffff;stroke-width:0.508038" />
    </g>
    <g
       id="g8724"
       transform="translate(25.334677,0.39800136)">
      <path
         d="m 150.64815,160.59661 c 0.12192,0.67061 0.62996,1.11768 1.40218,1.11768 0.50804,0 0.97543,-0.20321 1.19897,-0.62996 -0.48772,-0.26418 -0.62997,-0.7519 -0.62997,-1.34122 v -5.89324 c 0,-2.07279 -1.28025,-3.2108 -3.63755,-3.2108 -2.49954,0 -3.94237,1.15833 -3.94237,2.43858 0,0.95511 0.62997,1.42251 1.58508,1.42251 0.24386,0 0.62997,-0.061 0.83318,-0.22354 -0.12193,-0.30482 -0.16257,-0.60964 -0.16257,-0.87382 0,-0.95511 0.62996,-1.68669 1.64604,-1.68669 1.19897,0 1.44283,0.79254 1.44283,2.01183 v 1.76797 c -2.76373,0 -5.87292,0.52836 -5.87292,3.29209 0,1.84925 1.40219,3.06854 3.23112,3.06854 1.07704,0 2.07279,-0.34546 2.90598,-1.25993 z M 148.616,160.495 c -1.05672,0 -1.66637,-0.73157 -1.66637,-1.78829 0,-1.76797 1.68669,-2.19472 3.45466,-2.19472 v 1.6054 c 0,1.25993 -0.52836,2.37761 -1.78829,2.37761 z"
         id="path7166"
         style="font-size:20.3215px;line-height:1.25;font-family:Sansita;-inkscape-font-specification:'Sansita, Normal';letter-spacing:16.5947px;opacity:0.704641;stroke:#000000;stroke-width:9;stroke-linecap:round;stroke-linejoin:round;filter:url(#filter7152)" />
      <path
         d="m 149.00776,159.1413 c 0.12193,0.67061 0.62997,1.11769 1.40218,1.11769 0.50804,0 0.97544,-0.20322 1.19897,-0.62997 -0.48771,-0.26418 -0.62996,-0.7519 -0.62996,-1.34122 v -5.89324 c 0,-2.07279 -1.28026,-3.21079 -3.63755,-3.21079 -2.49955,0 -3.94237,1.15832 -3.94237,2.43858 0,0.95511 0.62996,1.4225 1.58507,1.4225 0.24386,0 0.62997,-0.061 0.83318,-0.22353 -0.12192,-0.30483 -0.16257,-0.60965 -0.16257,-0.87383 0,-0.95511 0.62997,-1.68668 1.64604,-1.68668 1.19897,0 1.44283,0.79254 1.44283,2.01183 v 1.76797 c -2.76372,0 -5.87291,0.52835 -5.87291,3.29208 0,1.84926 1.40218,3.06855 3.23112,3.06855 1.07704,0 2.07279,-0.34547 2.90597,-1.25994 z m -2.03215,-0.1016 c -1.05672,0 -1.66636,-0.73158 -1.66636,-1.7883 0,-1.76797 1.68668,-2.19472 3.45465,-2.19472 v 1.6054 c 0,1.25993 -0.52836,2.37762 -1.78829,2.37762 z"
         id="path7183"
         style="font-size:20.3215px;line-height:1.25;font-family:Sansita;-inkscape-font-specification:'Sansita, Normal';letter-spacing:16.5947px;fill:#ffffff;stroke:#ffffff;stroke-width:9;stroke-linecap:round;stroke-linejoin:round" />
      <path
         d="m 149.00776,159.1413 c 0.12193,0.67061 0.62997,1.11769 1.40218,1.11769 0.50804,0 0.97544,-0.20322 1.19897,-0.62997 -0.48771,-0.26418 -0.62996,-0.7519 -0.62996,-1.34122 v -5.89324 c 0,-2.07279 -1.28026,-3.21079 -3.63755,-3.21079 -2.49955,0 -3.94237,1.15832 -3.94237,2.43858 0,0.95511 0.62996,1.4225 1.58507,1.4225 0.24386,0 0.62997,-0.061 0.83318,-0.22353 -0.12192,-0.30483 -0.16257,-0.60965 -0.16257,-0.87383 0,-0.95511 0.62997,-1.68668 1.64604,-1.68668 1.19897,0 1.44283,0.79254 1.44283,2.01183 v 1.76797 c -2.76372,0 -5.87291,0.52835 -5.87291,3.29208 0,1.84926 1.40218,3.06855 3.23112,3.06855 1.07704,0 2.07279,-0.34547 2.90597,-1.25994 z m -2.03215,-0.1016 c -1.05672,0 -1.66636,-0.73158 -1.66636,-1.7883 0,-1.76797 1.68668,-2.19472 3.45465,-2.19472 v 1.6054 c 0,1.25993 -0.52836,2.37762 -1.78829,2.37762 z"
         id="path7200"
         style="font-size:20.3215px;line-height:1.25;font-family:Sansita;-inkscape-font-specification:'Sansita, Normal';letter-spacing:16.5947px;fill:#006680;stroke:#006680;stroke-width:4;stroke-linecap:round;stroke-linejoin:round" />
      <path
         d="m 149.00776,159.1413 c 0.12193,0.67061 0.62997,1.11769 1.40218,1.11769 0.50804,0 0.97544,-0.20322 1.19897,-0.62997 -0.48771,-0.26418 -0.62996,-0.7519 -0.62996,-1.34122 v -5.89324 c 0,-2.07279 -1.28026,-3.21079 -3.63755,-3.21079 -2.49955,0 -3.94237,1.15832 -3.94237,2.43858 0,0.95511 0.62996,1.4225 1.58507,1.4225 0.24386,0 0.62997,-0.061 0.83318,-0.22353 -0.12192,-0.30483 -0.16257,-0.60965 -0.16257,-0.87383 0,-0.95511 0.62997,-1.68668 1.64604,-1.68668 1.19897,0 1.44283,0.79254 1.44283,2.01183 v 1.76797 c -2.76372,0 -5.87291,0.52835 -5.87291,3.29208 0,1.84926 1.40218,3.06855 3.23112,3.06855 1.07704,0 2.07279,-0.34547 2.90597,-1.25994 z m -2.03215,-0.1016 c -1.05672,0 -1.66636,-0.73158 -1.66636,-1.7883 0,-1.76797 1.68668,-2.19472 3.45465,-2.19472 v 1.6054 c 0,1.25993 -0.52836,2.37762 -1.78829,2.37762 z"
         id="path7217"
         style="font-size:20.3215px;line-height:1.25;font-family:Sansita;-inkscape-font-specification:'Sansita, Normal';letter-spacing:16.5947px;fill:#ffffff;stroke-width:0.508038" />
    </g>
    <g
       id="g8730"
       transform="translate(40.745833)">
      <path
         d="m 123.14082,151.83804 c 0.87382,0 1.21929,0.73158 1.21929,1.6054 0,0.30482 -0.061,0.60965 -0.16258,0.91447 0.20322,0.16257 0.58933,0.22354 0.83319,0.22354 1.03639,0 1.58507,-0.69094 1.58507,-1.5038 0,-1.11768 -1.03639,-2.43858 -3.25144,-2.43858 -3.08887,0 -4.61298,2.66212 -4.61298,5.8526 0,3.08886 1.28026,5.36487 4.38945,5.36487 1.54443,0 3.25144,-0.89414 3.25144,-2.43858 0,-0.48771 -0.20322,-0.75189 -0.65029,-0.95511 -0.30482,1.15833 -1.19897,1.82894 -2.39794,1.82894 -1.95086,0 -2.23536,-2.0728 -2.23536,-4.02366 0,-1.68668 0.34546,-4.43009 2.03215,-4.43009 z"
         id="path7164"
         style="font-size:20.3215px;line-height:1.25;font-family:Sansita;-inkscape-font-specification:'Sansita, Normal';letter-spacing:16.5947px;opacity:0.704641;stroke:#000000;stroke-width:9;stroke-linecap:round;stroke-linejoin:round;filter:url(#filter7152)" />
      <path
         d="m 121.50043,150.38274 c 0.87382,0 1.21929,0.73157 1.21929,1.60539 0,0.30483 -0.061,0.60965 -0.16257,0.91447 0.20321,0.16257 0.58932,0.22354 0.83318,0.22354 1.0364,0 1.58508,-0.69093 1.58508,-1.50379 0,-1.11769 -1.0364,-2.43858 -3.25144,-2.43858 -3.08887,0 -4.61298,2.66211 -4.61298,5.85259 0,3.08887 1.28025,5.36488 4.38944,5.36488 1.54443,0 3.25144,-0.89415 3.25144,-2.43858 0,-0.48772 -0.20321,-0.7519 -0.65029,-0.95512 -0.30482,1.15833 -1.19897,1.82894 -2.39793,1.82894 -1.95087,0 -2.23537,-2.07279 -2.23537,-4.02366 0,-1.68668 0.34547,-4.43008 2.03215,-4.43008 z"
         id="path7181"
         style="font-size:20.3215px;line-height:1.25;font-family:Sansita;-inkscape-font-specification:'Sansita, Normal';letter-spacing:16.5947px;fill:#ffffff;stroke:#ffffff;stroke-width:9;stroke-linecap:round;stroke-linejoin:round" />
      <path
         d="m 121.50043,150.38274 c 0.87382,0 1.21929,0.73157 1.21929,1.60539 0,0.30483 -0.061,0.60965 -0.16257,0.91447 0.20321,0.16257 0.58932,0.22354 0.83318,0.22354 1.0364,0 1.58508,-0.69093 1.58508,-1.50379 0,-1.11769 -1.0364,-2.43858 -3.25144,-2.43858 -3.08887,0 -4.61298,2.66211 -4.61298,5.85259 0,3.08887 1.28025,5.36488 4.38944,5.36488 1.54443,0 3.25144,-0.89415 3.25144,-2.43858 0,-0.48772 -0.20321,-0.7519 -0.65029,-0.95512 -0.30482,1.15833 -1.19897,1.82894 -2.39793,1.82894 -1.95087,0 -2.23537,-2.07279 -2.23537,-4.02366 0,-1.68668 0.34547,-4.43008 2.03215,-4.43008 z"
         id="path7198"
         style="font-size:20.3215px;line-height:1.25;font-family:Sansita;-inkscape-font-specification:'Sansita, Normal';letter-spacing:16.5947px;fill:#006680;stroke:#006680;stroke-width:4;stroke-linecap:round;stroke-linejoin:round" />
      <path
         d="m 121.50043,150.38274 c 0.87382,0 1.21929,0.73157 1.21929,1.60539 0,0.30483 -0.061,0.60965 -0.16257,0.91447 0.20321,0.16257 0.58932,0.22354 0.83318,0.22354 1.0364,0 1.58508,-0.69093 1.58508,-1.50379 0,-1.11769 -1.0364,-2.43858 -3.25144,-2.43858 -3.08887,0 -4.61298,2.66211 -4.61298,5.85259 0,3.08887 1.28025,5.36488 4.38944,5.36488 1.54443,0 3.25144,-0.89415 3.25144,-2.43858 0,-0.48772 -0.20321,-0.7519 -0.65029,-0.95512 -0.30482,1.15833 -1.19897,1.82894 -2.39793,1.82894 -1.95087,0 -2.23537,-2.07279 -2.23537,-4.02366 0,-1.68668 0.34547,-4.43008 2.03215,-4.43008 z"
         id="path7215"
         style="font-size:20.3215px;line-height:1.25;font-family:Sansita;-inkscape-font-specification:'Sansita, Normal';letter-spacing:16.5947px;fill:#ffffff;stroke-width:0.508038" />
    </g>
    <g
       id="g8742"
       transform="translate(55.033333)">
      <path
         d="m 97.137261,151.71611 c 0.853503,0 1.300576,0.54868 1.300576,1.42251 0,0.30482 -0.06096,0.60964 -0.162572,0.91447 0.203215,0.16257 0.589323,0.22353 0.833181,0.22353 0.955114,0 1.585074,-0.46739 1.585074,-1.4225 0,-1.70701 -1.585074,-2.21505 -3.29208,-2.21505 -1.930543,0 -3.759478,0.93479 -3.759478,2.84501 0,3.41402 4.938125,3.17016 4.938125,5.73067 0,1.01607 -0.528359,1.56475 -1.544434,1.56475 -0.894146,0 -1.48347,-0.50803 -1.48347,-1.40218 0,-0.30482 0.06096,-0.60965 0.162572,-0.91447 -0.203215,-0.16257 -0.589323,-0.22353 -0.833181,-0.22353 -0.955111,0 -1.585077,0.46739 -1.585077,1.4225 0,1.70701 1.788292,2.19472 3.495298,2.19472 2.174401,0 3.922045,-1.05672 3.922045,-3.21079 0,-3.41402 -4.93812,-3.14984 -4.93812,-5.71035 0,-0.79253 0.569002,-1.21929 1.361541,-1.21929 z"
         id="path7162"
         style="font-size:20.3215px;line-height:1.25;font-family:Sansita;-inkscape-font-specification:'Sansita, Normal';letter-spacing:16.5947px;opacity:0.704641;stroke:#000000;stroke-width:9;stroke-linecap:round;stroke-linejoin:round;filter:url(#filter7152)" />
      <path
         d="m 95.496875,150.26081 c 0.853503,0 1.300576,0.54868 1.300576,1.4225 0,0.30482 -0.06096,0.60965 -0.162572,0.91447 0.203215,0.16257 0.589323,0.22354 0.833181,0.22354 0.955111,0 1.585078,-0.4674 1.585078,-1.42251 0,-1.70701 -1.585078,-2.21504 -3.292084,-2.21504 -1.930542,0 -3.759477,0.93479 -3.759477,2.84501 0,3.41401 4.938124,3.17015 4.938124,5.73066 0,1.01608 -0.528359,1.56476 -1.544434,1.56476 -0.894146,0 -1.483469,-0.50804 -1.483469,-1.40219 0,-0.30482 0.06096,-0.60964 0.162572,-0.91447 -0.203215,-0.16257 -0.589324,-0.22353 -0.833182,-0.22353 -0.95511,0 -1.585077,0.46739 -1.585077,1.4225 0,1.70701 1.788292,2.19473 3.495298,2.19473 2.174401,0 3.92205,-1.05672 3.92205,-3.2108 0,-3.41401 -4.938125,-3.14983 -4.938125,-5.71034 0,-0.79254 0.569002,-1.21929 1.361541,-1.21929 z"
         id="path7179"
         style="font-size:20.3215px;line-height:1.25;font-family:Sansita;-inkscape-font-specification:'Sansita, Normal';letter-spacing:16.5947px;fill:#ffffff;stroke:#ffffff;stroke-width:9;stroke-linecap:round;stroke-linejoin:round" />
      <path
         d="m 95.496875,150.26081 c 0.853503,0 1.300576,0.54868 1.300576,1.4225 0,0.30482 -0.06096,0.60965 -0.162572,0.91447 0.203215,0.16257 0.589323,0.22354 0.833181,0.22354 0.955111,0 1.585078,-0.4674 1.585078,-1.42251 0,-1.70701 -1.585078,-2.21504 -3.292084,-2.21504 -1.930542,0 -3.759477,0.93479 -3.759477,2.84501 0,3.41401 4.938124,3.17015 4.938124,5.73066 0,1.01608 -0.528359,1.56476 -1.544434,1.56476 -0.894146,0 -1.483469,-0.50804 -1.483469,-1.40219 0,-0.30482 0.06096,-0.60964 0.162572,-0.91447 -0.203215,-0.16257 -0.589324,-0.22353 -0.833182,-0.22353 -0.95511,0 -1.585077,0.46739 -1.585077,1.4225 0,1.70701 1.788292,2.19473 3.495298,2.19473 2.174401,0 3.92205,-1.05672 3.92205,-3.2108 0,-3.41401 -4.938125,-3.14983 -4.938125,-5.71034 0,-0.79254 0.569002,-1.21929 1.361541,-1.21929 z"
         id="path7196"
         style="font-size:20.3215px;line-height:1.25;font-family:Sansita;-inkscape-font-specification:'Sansita, Normal';letter-spacing:16.5947px;fill:#006680;stroke:#006680;stroke-width:4;stroke-linecap:round;stroke-linejoin:round" />
      <path
         d="m 95.496875,150.26081 c 0.853503,0 1.300576,0.54868 1.300576,1.4225 0,0.30482 -0.06096,0.60965 -0.162572,0.91447 0.203215,0.16257 0.589323,0.22354 0.833181,0.22354 0.955111,0 1.585078,-0.4674 1.585078,-1.42251 0,-1.70701 -1.585078,-2.21504 -3.292084,-2.21504 -1.930542,0 -3.759477,0.93479 -3.759477,2.84501 0,3.41401 4.938124,3.17015 4.938124,5.73066 0,1.01608 -0.528359,1.56476 -1.544434,1.56476 -0.894146,0 -1.483469,-0.50804 -1.483469,-1.40219 0,-0.30482 0.06096,-0.60964 0.162572,-0.91447 -0.203215,-0.16257 -0.589324,-0.22353 -0.833182,-0.22353 -0.95511,0 -1.585077,0.46739 -1.585077,1.4225 0,1.70701 1.788292,2.19473 3.495298,2.19473 2.174401,0 3.92205,-1.05672 3.92205,-3.2108 0,-3.41401 -4.938125,-3.14983 -4.938125,-5.71034 0,-0.79254 0.569002,-1.21929 1.361541,-1.21929 z"
         id="path7213"
         style="font-size:20.3215px;line-height:1.25;font-family:Sansita;-inkscape-font-specification:'Sansita, Normal';letter-spacing:16.5947px;fill:#ffffff;stroke-width:0.508038" />
    </g>
    <g
       id="g9474"
       transform="translate(66.938459,0.39800136)">
      <path
         d="m 67.618102,147.18442 v 14.22505 h 2.235365 v -14.46891 z m 8.270851,3.86108 h -2.357295 l -3.39369,4.67395 3.231118,5.69002 h 2.601153 l -3.576585,-6.05581 z"
         id="path7160"
         style="font-size:20.3215px;line-height:1.25;font-family:Sansita;-inkscape-font-specification:'Sansita, Normal';letter-spacing:16.5947px;opacity:0.704641;stroke:#000000;stroke-width:9;stroke-linecap:round;stroke-linejoin:round;filter:url(#filter7152)" />
      <path
         d="m 65.977716,145.72911 v 14.22505 h 2.235365 v -14.46891 z m 8.270851,3.86109 h -2.357294 l -3.393691,4.67394 3.231119,5.69002 h 2.601152 l -3.576584,-6.0558 z"
         id="path7177"
         style="font-size:20.3215px;line-height:1.25;font-family:Sansita;-inkscape-font-specification:'Sansita, Normal';letter-spacing:16.5947px;fill:#ffffff;stroke:#ffffff;stroke-width:9;stroke-linecap:round;stroke-linejoin:round" />
      <path
         d="m 65.977716,145.72911 v 14.22505 h 2.235365 v -14.46891 z m 8.270851,3.86109 h -2.357294 l -3.393691,4.67394 3.231119,5.69002 h 2.601152 l -3.576584,-6.0558 z"
         id="path7194"
         style="font-size:20.3215px;line-height:1.25;font-family:Sansita;-inkscape-font-specification:'Sansita, Normal';letter-spacing:16.5947px;fill:#006680;stroke:#006680;stroke-width:4;stroke-linecap:round;stroke-linejoin:round" />
      <path
         d="m 65.977716,145.72911 v 14.22505 h 2.235365 v -14.46891 z m 8.270851,3.86109 h -2.357294 l -3.393691,4.67394 3.231119,5.69002 h 2.601152 l -3.576584,-6.0558 z"
         id="path7211"
         style="font-size:20.3215px;line-height:1.25;font-family:Sansita;-inkscape-font-specification:'Sansita, Normal';letter-spacing:16.5947px;fill:#ffffff;stroke-width:0.508038" />
    </g>
    <g
       id="g9480"
       transform="translate(80.929277,0.39800136)">
      <path
         d="m 40.212364,151.0455 v 10.36397 h 2.235365 v -5.28359 c 0,-1.82894 0.243858,-3.92205 2.072793,-3.92205 1.422506,0 1.544435,1.11768 1.544435,2.54019 v 5.26327 c 0,1.05671 0.487716,1.707 1.564755,1.707 0.508038,0 1.07704,-0.20321 1.300576,-0.62996 -0.487716,-0.26418 -0.629966,-0.7519 -0.629966,-1.34122 v -5.28359 c 0,-2.39794 -0.650288,-3.82045 -3.048226,-3.82045 -1.422505,0 -2.540187,0.67061 -3.068546,1.99151 l -0.101608,-1.82893 z"
         id="path7158"
         style="font-size:20.3215px;line-height:1.25;font-family:Sansita;-inkscape-font-specification:'Sansita, Normal';letter-spacing:16.5947px;opacity:0.704641;stroke:#000000;stroke-width:9;stroke-linecap:round;stroke-linejoin:round;filter:url(#filter7152)" />
      <path
         d="m 38.571979,149.5902 v 10.36396 h 2.235365 v -5.28359 c 0,-1.82893 0.243858,-3.92205 2.072793,-3.92205 1.422505,0 1.544434,1.11769 1.544434,2.54019 v 5.26327 c 0,1.05672 0.487716,1.70701 1.564755,1.70701 0.508038,0 1.07704,-0.20322 1.300577,-0.62997 -0.487717,-0.26418 -0.629967,-0.7519 -0.629967,-1.34122 v -5.28359 c 0,-2.39794 -0.650288,-3.82044 -3.048225,-3.82044 -1.422505,0 -2.540188,0.67061 -3.068547,1.9915 l -0.101607,-1.82893 z"
         id="path7175"
         style="font-size:20.3215px;line-height:1.25;font-family:Sansita;-inkscape-font-specification:'Sansita, Normal';letter-spacing:16.5947px;fill:#ffffff;stroke:#ffffff;stroke-width:9;stroke-linecap:round;stroke-linejoin:round" />
      <path
         d="m 38.571979,149.5902 v 10.36396 h 2.235365 v -5.28359 c 0,-1.82893 0.243858,-3.92205 2.072793,-3.92205 1.422505,0 1.544434,1.11769 1.544434,2.54019 v 5.26327 c 0,1.05672 0.487716,1.70701 1.564755,1.70701 0.508038,0 1.07704,-0.20322 1.300577,-0.62997 -0.487717,-0.26418 -0.629967,-0.7519 -0.629967,-1.34122 v -5.28359 c 0,-2.39794 -0.650288,-3.82044 -3.048225,-3.82044 -1.422505,0 -2.540188,0.67061 -3.068547,1.9915 l -0.101607,-1.82893 z"
         id="path7192"
         style="font-size:20.3215px;line-height:1.25;font-family:Sansita;-inkscape-font-specification:'Sansita, Normal';letter-spacing:16.5947px;fill:#006680;stroke:#006680;stroke-width:4;stroke-linecap:round;stroke-linejoin:round" />
      <path
         d="m 38.571979,149.5902 v 10.36396 h 2.235365 v -5.28359 c 0,-1.82893 0.243858,-3.92205 2.072793,-3.92205 1.422505,0 1.544434,1.11769 1.544434,2.54019 v 5.26327 c 0,1.05672 0.487716,1.70701 1.564755,1.70701 0.508038,0 1.07704,-0.20322 1.300577,-0.62997 -0.487717,-0.26418 -0.629967,-0.7519 -0.629967,-1.34122 v -5.28359 c 0,-2.39794 -0.650288,-3.82044 -3.048225,-3.82044 -1.422505,0 -2.540188,0.67061 -3.068547,1.9915 l -0.101607,-1.82893 z"
         id="path7209"
         style="font-size:20.3215px;line-height:1.25;font-family:Sansita;-inkscape-font-specification:'Sansita, Normal';letter-spacing:16.5947px;fill:#ffffff;stroke-width:0.508038" />
    </g>
    <g
       id="g9486"
       transform="translate(93.839063,0.39800136)">
      <path
         d="M 21.057166,161.40947 V 147.99728 H 18.67955 v 13.41219 z"
         id="path7156"
         style="font-size:20.3215px;line-height:1.25;font-family:Sansita;-inkscape-font-specification:'Sansita, Normal';letter-spacing:16.5947px;opacity:0.704641;stroke:#000000;stroke-width:9;stroke-linecap:round;stroke-linejoin:round;filter:url(#filter7152)" />
      <path
         d="m 19.41678,159.95416 v -13.41219 h -2.377615 v 13.41219 z"
         id="path7173"
         style="font-size:20.3215px;line-height:1.25;font-family:Sansita;-inkscape-font-specification:'Sansita, Normal';letter-spacing:16.5947px;fill:#ffffff;stroke:#ffffff;stroke-width:9;stroke-linecap:round;stroke-linejoin:round" />
      <path
         d="m 19.41678,159.95416 v -13.41219 h -2.377615 v 13.41219 z"
         id="path7190"
         style="font-size:20.3215px;line-height:1.25;font-family:Sansita;-inkscape-font-specification:'Sansita, Normal';letter-spacing:16.5947px;fill:#006680;stroke:#006680;stroke-width:4;stroke-linecap:round;stroke-linejoin:round" />
      <path
         d="m 19.41678,159.95416 v -13.41219 h -2.377615 v 13.41219 z"
         id="path7207"
         style="font-size:20.3215px;line-height:1.25;font-family:Sansita;-inkscape-font-specification:'Sansita, Normal';letter-spacing:16.5947px;fill:#ffffff;stroke-width:0.508038" />
    </g>
  </g>
</svg>
